G04 PROTEUS GERBER X2 FILE*
%TF.GenerationSoftware,Labcenter,Proteus,8.6-SP2-Build23525*%
%TF.CreationDate,2019-07-10T19:11:28+00:00*%
%TF.FileFunction,Soldermask,Bot*%
%TF.FilePolarity,Negative*%
%TF.Part,Single*%
%FSLAX45Y45*%
%MOMM*%
G01*
%AMPPAD026*
4,1,68,
-0.762000,1.016000,
0.762000,1.016000,
0.788400,1.014720,
0.813930,1.010950,
0.838490,1.004800,
0.861960,0.996400,
0.884220,0.985870,
0.905150,0.973300,
0.924650,0.958840,
0.942580,0.942580,
0.958840,0.924640,
0.973300,0.905150,
0.985860,0.884220,
0.996400,0.861960,
1.004800,0.838490,
1.010950,0.813930,
1.014720,0.788400,
1.016000,0.762000,
1.016000,-0.762000,
1.014720,-0.788400,
1.010950,-0.813930,
1.004800,-0.838490,
0.996400,-0.861960,
0.985860,-0.884220,
0.973300,-0.905150,
0.958840,-0.924640,
0.942580,-0.942580,
0.924650,-0.958840,
0.905150,-0.973300,
0.884220,-0.985870,
0.861960,-0.996400,
0.838490,-1.004800,
0.813930,-1.010950,
0.788400,-1.014720,
0.762000,-1.016000,
-0.762000,-1.016000,
-0.788400,-1.014720,
-0.813930,-1.010950,
-0.838490,-1.004800,
-0.861960,-0.996400,
-0.884220,-0.985870,
-0.905150,-0.973300,
-0.924650,-0.958840,
-0.942580,-0.942580,
-0.958840,-0.924640,
-0.973300,-0.905150,
-0.985860,-0.884220,
-0.996400,-0.861960,
-1.004800,-0.838490,
-1.010950,-0.813930,
-1.014720,-0.788400,
-1.016000,-0.762000,
-1.016000,0.762000,
-1.014720,0.788400,
-1.010950,0.813930,
-1.004800,0.838490,
-0.996400,0.861960,
-0.985860,0.884220,
-0.973300,0.905150,
-0.958840,0.924640,
-0.942580,0.942580,
-0.924650,0.958840,
-0.905150,0.973300,
-0.884220,0.985870,
-0.861960,0.996400,
-0.838490,1.004800,
-0.813930,1.010950,
-0.788400,1.014720,
-0.762000,1.016000,
0*%
%TA.AperFunction,Material*%
%ADD32PPAD026*%
%ADD33C,1.778000*%
%ADD34C,1.524000*%
%AMPPAD029*
4,1,36,
-0.635000,0.762000,
0.635000,0.762000,
0.660970,0.759470,
0.684980,0.752200,
0.706580,0.740650,
0.725290,0.725290,
0.740650,0.706570,
0.752200,0.684980,
0.759470,0.660970,
0.762000,0.635000,
0.762000,-0.635000,
0.759470,-0.660970,
0.752200,-0.684980,
0.740650,-0.706570,
0.725290,-0.725290,
0.706580,-0.740650,
0.684980,-0.752200,
0.660970,-0.759470,
0.635000,-0.762000,
-0.635000,-0.762000,
-0.660970,-0.759470,
-0.684980,-0.752200,
-0.706580,-0.740650,
-0.725290,-0.725290,
-0.740650,-0.706570,
-0.752200,-0.684980,
-0.759470,-0.660970,
-0.762000,-0.635000,
-0.762000,0.635000,
-0.759470,0.660970,
-0.752200,0.684980,
-0.740650,0.706570,
-0.725290,0.725290,
-0.706580,0.740650,
-0.684980,0.752200,
-0.660970,0.759470,
-0.635000,0.762000,
0*%
%TA.AperFunction,Material*%
%ADD35PPAD029*%
%AMPPAD033*
4,1,36,
1.016000,-1.143000,
-1.016000,-1.143000,
-1.041970,-1.140470,
-1.065980,-1.133200,
-1.087580,-1.121650,
-1.106290,-1.106290,
-1.121650,-1.087570,
-1.133200,-1.065980,
-1.140470,-1.041970,
-1.143000,-1.016000,
-1.143000,1.016000,
-1.140470,1.041970,
-1.133200,1.065980,
-1.121650,1.087570,
-1.106290,1.106290,
-1.087580,1.121650,
-1.065980,1.133200,
-1.041970,1.140470,
-1.016000,1.143000,
1.016000,1.143000,
1.041970,1.140470,
1.065980,1.133200,
1.087580,1.121650,
1.106290,1.106290,
1.121650,1.087570,
1.133200,1.065980,
1.140470,1.041970,
1.143000,1.016000,
1.143000,-1.016000,
1.140470,-1.041970,
1.133200,-1.065980,
1.121650,-1.087570,
1.106290,-1.106290,
1.087580,-1.121650,
1.065980,-1.133200,
1.041970,-1.140470,
1.016000,-1.143000,
0*%
%TA.AperFunction,Material*%
%ADD39PPAD033*%
%TA.AperFunction,Material*%
%ADD40C,2.286000*%
%AMPPAD040*
4,1,36,
-0.762000,0.508000,
-0.762000,-0.508000,
-0.759470,-0.533970,
-0.752200,-0.557980,
-0.740650,-0.579580,
-0.725290,-0.598290,
-0.706570,-0.613650,
-0.684980,-0.625200,
-0.660970,-0.632470,
-0.635000,-0.635000,
0.635000,-0.635000,
0.660970,-0.632470,
0.684980,-0.625200,
0.706570,-0.613650,
0.725290,-0.598290,
0.740650,-0.579580,
0.752200,-0.557980,
0.759470,-0.533970,
0.762000,-0.508000,
0.762000,0.508000,
0.759470,0.533970,
0.752200,0.557980,
0.740650,0.579580,
0.725290,0.598290,
0.706570,0.613650,
0.684980,0.625200,
0.660970,0.632470,
0.635000,0.635000,
-0.635000,0.635000,
-0.660970,0.632470,
-0.684980,0.625200,
-0.706570,0.613650,
-0.725290,0.598290,
-0.740650,0.579580,
-0.752200,0.557980,
-0.759470,0.533970,
-0.762000,0.508000,
0*%
%ADD46PPAD040*%
%AMPPAD041*
4,1,36,
-1.016000,-1.143000,
1.016000,-1.143000,
1.041970,-1.140470,
1.065980,-1.133200,
1.087580,-1.121650,
1.106290,-1.106290,
1.121650,-1.087570,
1.133200,-1.065980,
1.140470,-1.041970,
1.143000,-1.016000,
1.143000,1.016000,
1.140470,1.041970,
1.133200,1.065980,
1.121650,1.087570,
1.106290,1.106290,
1.087580,1.121650,
1.065980,1.133200,
1.041970,1.140470,
1.016000,1.143000,
-1.016000,1.143000,
-1.041970,1.140470,
-1.065980,1.133200,
-1.087580,1.121650,
-1.106290,1.106290,
-1.121650,1.087570,
-1.133200,1.065980,
-1.140470,1.041970,
-1.143000,1.016000,
-1.143000,-1.016000,
-1.140470,-1.041970,
-1.133200,-1.065980,
-1.121650,-1.087570,
-1.106290,-1.106290,
-1.087580,-1.121650,
-1.065980,-1.133200,
-1.041970,-1.140470,
-1.016000,-1.143000,
0*%
%ADD47PPAD041*%
%AMPPAD042*
4,1,36,
-0.508000,-0.762000,
0.508000,-0.762000,
0.533970,-0.759470,
0.557980,-0.752200,
0.579580,-0.740650,
0.598290,-0.725290,
0.613650,-0.706570,
0.625200,-0.684980,
0.632470,-0.660970,
0.635000,-0.635000,
0.635000,0.635000,
0.632470,0.660970,
0.625200,0.684980,
0.613650,0.706570,
0.598290,0.725290,
0.579580,0.740650,
0.557980,0.752200,
0.533970,0.759470,
0.508000,0.762000,
-0.508000,0.762000,
-0.533970,0.759470,
-0.557980,0.752200,
-0.579580,0.740650,
-0.598290,0.725290,
-0.613650,0.706570,
-0.625200,0.684980,
-0.632470,0.660970,
-0.635000,0.635000,
-0.635000,-0.635000,
-0.632470,-0.660970,
-0.625200,-0.684980,
-0.613650,-0.706570,
-0.598290,-0.725290,
-0.579580,-0.740650,
-0.557980,-0.752200,
-0.533970,-0.759470,
-0.508000,-0.762000,
0*%
%ADD48PPAD042*%
%ADD41C,3.302000*%
%AMPPAD038*
4,1,8,
-0.509800,1.397000,
0.509800,1.397000,
0.889000,1.017800,
0.889000,-1.017800,
0.509800,-1.397000,
-0.509800,-1.397000,
-0.889000,-1.017800,
-0.889000,1.017800,
-0.509800,1.397000,
0*%
%TA.AperFunction,Material*%
%ADD44PPAD038*%
%AMPPAD039*
4,1,36,
0.762000,0.635000,
0.762000,-0.635000,
0.759470,-0.660970,
0.752200,-0.684980,
0.740650,-0.706580,
0.725290,-0.725290,
0.706570,-0.740650,
0.684980,-0.752200,
0.660970,-0.759470,
0.635000,-0.762000,
-0.635000,-0.762000,
-0.660970,-0.759470,
-0.684980,-0.752200,
-0.706570,-0.740650,
-0.725290,-0.725290,
-0.740650,-0.706580,
-0.752200,-0.684980,
-0.759470,-0.660970,
-0.762000,-0.635000,
-0.762000,0.635000,
-0.759470,0.660970,
-0.752200,0.684980,
-0.740650,0.706580,
-0.725290,0.725290,
-0.706570,0.740650,
-0.684980,0.752200,
-0.660970,0.759470,
-0.635000,0.762000,
0.635000,0.762000,
0.660970,0.759470,
0.684980,0.752200,
0.706570,0.740650,
0.725290,0.725290,
0.740650,0.706580,
0.752200,0.684980,
0.759470,0.660970,
0.762000,0.635000,
0*%
%TA.AperFunction,Material*%
%ADD45PPAD039*%
%TA.AperFunction,Profile*%
%ADD29C,0.203200*%
%TD.AperFunction*%
D32*
X-3810000Y+5250000D03*
D33*
X-3556000Y+5250000D03*
X-3302000Y+5250000D03*
X-3048000Y+5250000D03*
X-2794000Y+5250000D03*
X-2540000Y+5250000D03*
X-2286000Y+5250000D03*
X-2032000Y+5250000D03*
X-2032000Y+6012000D03*
X-2286000Y+6012000D03*
X-2540000Y+6012000D03*
X-2794000Y+6012000D03*
X-3048000Y+6012000D03*
X-3302000Y+6012000D03*
D34*
X-3556000Y+6012000D03*
X-3810000Y+6012000D03*
D35*
X-8741680Y+4568320D03*
D33*
X-8487680Y+4568320D03*
X-8233680Y+4568320D03*
X-7979680Y+4568320D03*
X-7725680Y+4568320D03*
X-7471680Y+4568320D03*
X-7217680Y+4568320D03*
X-7217680Y+5330320D03*
X-7471680Y+5330320D03*
X-7725680Y+5330320D03*
X-7979680Y+5330320D03*
X-8233680Y+5330320D03*
X-8487680Y+5330320D03*
X-8741680Y+5330320D03*
D32*
X-9820000Y+2900000D03*
D33*
X-9566000Y+2900000D03*
X-9312000Y+2900000D03*
X-9058000Y+2900000D03*
X-8804000Y+2900000D03*
X-8550000Y+2900000D03*
X-8296000Y+2900000D03*
X-8296000Y+3662000D03*
X-8550000Y+3662000D03*
X-8804000Y+3662000D03*
X-9058000Y+3662000D03*
X-9312000Y+3662000D03*
X-9566000Y+3662000D03*
X-9820000Y+3662000D03*
D32*
X-8230000Y+6550000D03*
D33*
X-8484000Y+6550000D03*
X-8738000Y+6550000D03*
X-8738000Y+5788000D03*
X-8484000Y+5788000D03*
X-8230000Y+5788000D03*
D35*
X-7250000Y+6570000D03*
D33*
X-7504000Y+6570000D03*
D34*
X-7758000Y+6570000D03*
D33*
X-7758000Y+5808000D03*
X-7504000Y+5808000D03*
X-7250000Y+5808000D03*
D32*
X-7580000Y+2890000D03*
D33*
X-7326000Y+2890000D03*
X-7072000Y+2890000D03*
X-6818000Y+2890000D03*
X-6564000Y+2890000D03*
X-6310000Y+2890000D03*
X-6056000Y+2890000D03*
X-6056000Y+3652000D03*
X-6310000Y+3652000D03*
X-6564000Y+3652000D03*
X-6818000Y+3652000D03*
X-7072000Y+3652000D03*
X-7326000Y+3652000D03*
X-7580000Y+3652000D03*
D39*
X-8246000Y+1850000D03*
X-8500000Y+1850000D03*
X-8754000Y+1850000D03*
X-9346000Y+1850000D03*
X-9600000Y+1850000D03*
X-9854000Y+1850000D03*
X-7146000Y+1850000D03*
X-7400000Y+1850000D03*
X-7654000Y+1850000D03*
X-6046000Y+1850000D03*
X-6300000Y+1850000D03*
X-6554000Y+1850000D03*
D40*
X-3285659Y+3755601D03*
X-3285659Y+4263601D03*
D46*
X-8290000Y+2543360D03*
X-8290000Y+2330000D03*
X-6050000Y+2500000D03*
X-6050000Y+2286640D03*
X-2885725Y+3543481D03*
X-2885725Y+3756841D03*
X-2899159Y+4476961D03*
X-2899159Y+4263601D03*
X-3700000Y+3955601D03*
X-3700000Y+4168961D03*
D47*
X-6900000Y+2400000D03*
X-6478360Y+2400000D03*
X-9150000Y+2400000D03*
X-8728360Y+2400000D03*
D48*
X-8713360Y+5550000D03*
X-8500000Y+5550000D03*
D46*
X-8740000Y+5050000D03*
X-8740000Y+4836640D03*
D41*
X-10950000Y+1950380D03*
X-10950000Y+1450000D03*
D48*
X-8226640Y+6170000D03*
X-8440000Y+6170000D03*
X-7246640Y+6190000D03*
X-7460000Y+6190000D03*
D40*
X-10260000Y+1800000D03*
X-10410000Y+1950000D03*
D33*
X-2450000Y+2749929D03*
X-2450000Y+2250000D03*
D44*
X-3300000Y+1610000D03*
X-3046000Y+1610000D03*
X-2792000Y+1610000D03*
X-2538000Y+1610000D03*
X-2284000Y+1610000D03*
X-2030000Y+1610000D03*
X-5590000Y+1610000D03*
X-5336000Y+1610000D03*
X-5082000Y+1610000D03*
X-4828000Y+1610000D03*
X-4574000Y+1610000D03*
X-4320000Y+1610000D03*
X-4066000Y+1610000D03*
X-3812000Y+1610000D03*
X-3810000Y+6440000D03*
X-3556000Y+6440000D03*
X-3302000Y+6440000D03*
X-3048000Y+6440000D03*
X-2794000Y+6440000D03*
X-2540000Y+6440000D03*
X-2286000Y+6440000D03*
X-2032000Y+6440000D03*
X-6500000Y+6440000D03*
X-6246000Y+6440000D03*
X-5992000Y+6440000D03*
X-5738000Y+6440000D03*
X-5484000Y+6440000D03*
X-5230000Y+6440000D03*
X-4976000Y+6440000D03*
X-4722000Y+6440000D03*
X-4468000Y+6440000D03*
X-4214000Y+6440000D03*
D33*
X-2450380Y+3249620D03*
D45*
X-4850000Y+4662000D03*
D34*
X-4850000Y+4408000D03*
X-4850000Y+4154000D03*
X-4850000Y+3900000D03*
X-4850000Y+3646000D03*
X-4850000Y+3392000D03*
D33*
X-4850000Y+3138000D03*
D34*
X-4088000Y+3138000D03*
X-4088000Y+3392000D03*
D33*
X-4088000Y+3646000D03*
X-4088000Y+3900000D03*
D34*
X-4088000Y+4154000D03*
X-4088000Y+4408000D03*
D33*
X-4088000Y+4662000D03*
X-4720000Y+6090000D03*
X-4460000Y+6080000D03*
X-4200000Y+6080000D03*
D41*
X-10950000Y+2459620D03*
X-10950000Y+2960000D03*
D40*
X-10397601Y+2960000D03*
X-10397601Y+2720000D03*
D41*
X-1890000Y+2750000D03*
X-1890000Y+2249620D03*
X-1890000Y+4770000D03*
X-1890000Y+4269620D03*
X-1890000Y+3250000D03*
X-1890000Y+3750380D03*
D33*
X-2450000Y+3750000D03*
D39*
X-4446000Y+2300000D03*
X-4700000Y+2300000D03*
X-4954000Y+2300000D03*
D29*
X-11303600Y+6940000D02*
X-1902000Y+6940000D01*
X-1800400Y+1120000D02*
X-11303600Y+1120000D01*
X-1902000Y+6940000D02*
X-1775000Y+6813000D01*
X-1775000Y+5420000D02*
X-1521000Y+5166000D01*
X-1521000Y+1864000D01*
X-1775000Y+1610000D02*
X-1521000Y+1864000D01*
X-1775000Y+6813000D02*
X-1775000Y+5420000D01*
X-1775000Y+1610000D02*
X-1775000Y+1150000D01*
X-1775000Y+1145400D02*
X-1800400Y+1120000D01*
X-11330959Y+6914600D02*
X-11330959Y+1150000D01*
X-11305559Y+6940000D02*
X-11330959Y+6914600D01*
X-11330959Y+1145400D02*
X-11305559Y+1120000D01*
M02*
