G04 PROTEUS GERBER X2 FILE*
%TF.GenerationSoftware,Labcenter,Proteus,8.6-SP2-Build23525*%
%TF.CreationDate,2019-07-10T19:11:28+00:00*%
%TF.FileFunction,Copper,L2,Bot*%
%TF.FilePolarity,Positive*%
%TF.Part,Single*%
%FSLAX45Y45*%
%MOMM*%
G01*
%TA.AperFunction,Conductor*%
%ADD10C,0.635000*%
%ADD12C,2.032000*%
%ADD72C,1.422400*%
%ADD14C,2.540000*%
%ADD15C,0.254000*%
%TA.AperFunction,ComponentPad*%
%ADD16R,1.524000X1.524000*%
%ADD17C,1.524000*%
%ADD18C,1.270000*%
%TA.AperFunction,ComponentPad*%
%ADD19R,1.270000X1.270000*%
%TA.AperFunction,ComponentPad*%
%ADD21R,2.032000X2.032000*%
%TA.AperFunction,ComponentPad*%
%ADD22C,2.032000*%
%TA.AperFunction,SMDPad,CuDef*%
%ADD70R,1.270000X1.016000*%
%ADD73R,2.032000X2.032000*%
%ADD20R,1.016000X1.270000*%
%TA.AperFunction,ComponentPad*%
%ADD23C,3.048000*%
%TA.AperFunction,OtherPad,Unknown*%
%ADD24C,2.032000*%
%ADD25C,1.524000*%
%AMDIL020*
4,1,8,
-0.762000,0.965200,-0.457200,1.270000,0.457200,1.270000,0.762000,0.965200,0.762000,-0.965200,
0.457200,-1.270000,-0.457200,-1.270000,-0.762000,-0.965200,-0.762000,0.965200,
0*%
%TA.AperFunction,ComponentPad*%
%ADD28DIL020*%
%TA.AperFunction,Profile*%
%ADD29C,0.203200*%
%TD.AperFunction*%
G36*
X-1835959Y+6787751D02*
X-1835959Y+5394750D01*
X-1800249Y+5359041D01*
X-1581959Y+5140751D01*
X-1581959Y+4916699D01*
X-1905001Y+5239741D01*
X-1905001Y+5302605D01*
X-1979395Y+5376999D01*
X-2084605Y+5376999D01*
X-2158999Y+5302605D01*
X-2158999Y+5197395D01*
X-2084605Y+5123001D01*
X-2021741Y+5123001D01*
X-1871939Y+4973199D01*
X-1974168Y+4973199D01*
X-1975314Y+4972054D01*
X-2179828Y+5176568D01*
X-2159001Y+5197395D01*
X-2159001Y+5302605D01*
X-2233395Y+5376999D01*
X-2338605Y+5376999D01*
X-2412999Y+5302605D01*
X-2412999Y+5197395D01*
X-2368549Y+5152945D01*
X-2368549Y+5131809D01*
X-2092054Y+4855314D01*
X-2093199Y+4854168D01*
X-2093199Y+4685832D01*
X-1974168Y+4566801D01*
X-1805832Y+4566801D01*
X-1732549Y+4640084D01*
X-1732549Y+4399536D01*
X-1805832Y+4472819D01*
X-1974168Y+4472819D01*
X-1975314Y+4471674D01*
X-2457451Y+4953811D01*
X-2457451Y+5152945D01*
X-2413001Y+5197395D01*
X-2413001Y+5302605D01*
X-2487395Y+5376999D01*
X-2592605Y+5376999D01*
X-2666999Y+5302605D01*
X-2666999Y+5197395D01*
X-2622549Y+5152945D01*
X-2622549Y+4885429D01*
X-2092054Y+4354934D01*
X-2093199Y+4353788D01*
X-2093199Y+4185452D01*
X-1974168Y+4066421D01*
X-1805832Y+4066421D01*
X-1732549Y+4139704D01*
X-1732549Y+3880296D01*
X-1805832Y+3953579D01*
X-1974168Y+3953579D01*
X-2093199Y+3834548D01*
X-2093199Y+3832549D01*
X-2352945Y+3832549D01*
X-2397395Y+3876999D01*
X-2502605Y+3876999D01*
X-2576999Y+3802605D01*
X-2576999Y+3697395D01*
X-2502605Y+3623001D01*
X-2397395Y+3623001D01*
X-2352945Y+3667451D01*
X-2093199Y+3667451D01*
X-2093199Y+3666212D01*
X-1974168Y+3547181D01*
X-1805832Y+3547181D01*
X-1732549Y+3620464D01*
X-1732549Y+3533295D01*
X-1809718Y+3453199D01*
X-1974168Y+3453199D01*
X-2093199Y+3334168D01*
X-2093199Y+3317280D01*
X-2338436Y+3317280D01*
X-2397775Y+3376619D01*
X-2502985Y+3376619D01*
X-2547435Y+3332169D01*
X-2557673Y+3332169D01*
X-2758524Y+3533020D01*
X-2670607Y+3601161D01*
X-2653110Y+3636075D01*
X-2653110Y+4375196D01*
X-2670724Y+4410206D01*
X-2784860Y+4497937D01*
X-2784860Y+4578560D01*
X-3013458Y+4578560D01*
X-3013458Y+4375362D01*
X-2906435Y+4375362D01*
X-2892077Y+4365200D01*
X-3013458Y+4365200D01*
X-3013458Y+4347510D01*
X-3154043Y+4347510D01*
X-3222533Y+4416000D01*
X-3348785Y+4416000D01*
X-3438058Y+4326727D01*
X-3438058Y+4251510D01*
X-3585701Y+4251510D01*
X-3585701Y+4270560D01*
X-3617451Y+4270560D01*
X-3617451Y+5071809D01*
X-3566259Y+5123001D01*
X-3503395Y+5123001D01*
X-3429001Y+5197395D01*
X-3429001Y+5260261D01*
X-3428999Y+5260259D01*
X-3428999Y+5197395D01*
X-3354605Y+5123001D01*
X-3249395Y+5123001D01*
X-3175001Y+5197395D01*
X-3175001Y+5260261D01*
X-3174999Y+5260259D01*
X-3174999Y+5197395D01*
X-3100605Y+5123001D01*
X-2995395Y+5123001D01*
X-2921001Y+5197395D01*
X-2921001Y+5302605D01*
X-2995395Y+5376999D01*
X-3058259Y+5376999D01*
X-3348711Y+5667451D01*
X-3178191Y+5667451D01*
X-2876549Y+5365809D01*
X-2876549Y+5347055D01*
X-2920999Y+5302605D01*
X-2920999Y+5197395D01*
X-2846605Y+5123001D01*
X-2741395Y+5123001D01*
X-2667001Y+5197395D01*
X-2667001Y+5302605D01*
X-2711451Y+5347055D01*
X-2711451Y+5434191D01*
X-3109809Y+5832549D01*
X-4065809Y+5832549D01*
X-4117451Y+5884191D01*
X-4117451Y+5982945D01*
X-4073001Y+6027395D01*
X-4073001Y+6132605D01*
X-4147395Y+6206999D01*
X-4252605Y+6206999D01*
X-4326999Y+6132605D01*
X-4326999Y+6027395D01*
X-4282549Y+5982945D01*
X-4282549Y+5815807D01*
X-4234193Y+5767451D01*
X-4234191Y+5767451D01*
X-4149289Y+5682549D01*
X-4315809Y+5682549D01*
X-4377451Y+5744191D01*
X-4377451Y+5982945D01*
X-4333001Y+6027395D01*
X-4333001Y+6132605D01*
X-4407395Y+6206999D01*
X-4512605Y+6206999D01*
X-4586999Y+6132605D01*
X-4586999Y+6027395D01*
X-4542549Y+5982945D01*
X-4542549Y+5675809D01*
X-4399289Y+5532549D01*
X-4415809Y+5532549D01*
X-4637451Y+5754191D01*
X-4637451Y+5992945D01*
X-4593001Y+6037395D01*
X-4593001Y+6142605D01*
X-4667395Y+6216999D01*
X-4772605Y+6216999D01*
X-4846999Y+6142605D01*
X-4846999Y+6037395D01*
X-4802549Y+5992945D01*
X-4802549Y+5685809D01*
X-4484191Y+5367451D01*
X-4084191Y+5367451D01*
X-4082191Y+5365451D01*
X-3936999Y+5365451D01*
X-3936999Y+5123001D01*
X-3782549Y+5123001D01*
X-3782549Y+4999292D01*
X-3815806Y+5032549D01*
X-4150821Y+5032549D01*
X-4399179Y+4784191D01*
X-4399179Y+3811179D01*
X-4214999Y+3626999D01*
X-4214999Y+3593395D01*
X-4140605Y+3519001D01*
X-4035395Y+3519001D01*
X-3961001Y+3593395D01*
X-3961001Y+3698605D01*
X-4035395Y+3772999D01*
X-4127519Y+3772999D01*
X-4127521Y+3773001D01*
X-4035395Y+3773001D01*
X-3990945Y+3817451D01*
X-3735607Y+3817451D01*
X-3689468Y+3854002D01*
X-3585701Y+3854002D01*
X-3585701Y+3873052D01*
X-3519850Y+3873052D01*
X-3438058Y+3791260D01*
X-3438058Y+3692475D01*
X-3348785Y+3603202D01*
X-3222533Y+3603202D01*
X-3154803Y+3670932D01*
X-3000024Y+3670932D01*
X-3000024Y+3655242D01*
X-2878755Y+3655242D01*
X-2893075Y+3645080D01*
X-3000024Y+3645080D01*
X-3000024Y+3441882D01*
X-2900866Y+3441882D01*
X-2685996Y+3227012D01*
X-2983911Y+2932549D01*
X-4537069Y+2932549D01*
X-4723001Y+3118481D01*
X-4723001Y+3190605D01*
X-4797395Y+3264999D01*
X-4902605Y+3264999D01*
X-4976999Y+3190605D01*
X-4976999Y+3085395D01*
X-4902605Y+3011001D01*
X-4849001Y+3011001D01*
X-4605451Y+2767451D01*
X-2916090Y+2767451D01*
X-2529714Y+3149350D01*
X-2502985Y+3122621D01*
X-2397775Y+3122621D01*
X-2368214Y+3152182D01*
X-2079549Y+3152182D01*
X-1974168Y+3046801D01*
X-1805832Y+3046801D01*
X-1686801Y+3165832D01*
X-1686801Y+3334168D01*
X-1690619Y+3337986D01*
X-1581959Y+3451619D01*
X-1581959Y+1889249D01*
X-1835959Y+1635250D01*
X-1835959Y+1180959D01*
X-11270000Y+1180959D01*
X-11270000Y+6879041D01*
X-1927249Y+6879041D01*
X-1835959Y+6787751D01*
G37*
%LPC*%
G36*
X-2158999Y+5959395D02*
X-2158999Y+6064605D01*
X-2084605Y+6138999D01*
X-1979395Y+6138999D01*
X-1905001Y+6064605D01*
X-1905001Y+5959395D01*
X-1979395Y+5885001D01*
X-2084605Y+5885001D01*
X-2158999Y+5959395D01*
G37*
G36*
X-2412999Y+5959395D02*
X-2412999Y+6064605D01*
X-2338605Y+6138999D01*
X-2233395Y+6138999D01*
X-2159001Y+6064605D01*
X-2159001Y+5959395D01*
X-2233395Y+5885001D01*
X-2338605Y+5885001D01*
X-2412999Y+5959395D01*
G37*
G36*
X-2666999Y+5959395D02*
X-2666999Y+6064605D01*
X-2592605Y+6138999D01*
X-2487395Y+6138999D01*
X-2413001Y+6064605D01*
X-2413001Y+5959395D01*
X-2487395Y+5885001D01*
X-2592605Y+5885001D01*
X-2666999Y+5959395D01*
G37*
G36*
X-2920999Y+5959395D02*
X-2920999Y+6064605D01*
X-2846605Y+6138999D01*
X-2741395Y+6138999D01*
X-2667001Y+6064605D01*
X-2667001Y+5959395D01*
X-2741395Y+5885001D01*
X-2846605Y+5885001D01*
X-2920999Y+5959395D01*
G37*
G36*
X-3174999Y+5959395D02*
X-3174999Y+6064605D01*
X-3100605Y+6138999D01*
X-2995395Y+6138999D01*
X-2921001Y+6064605D01*
X-2921001Y+5959395D01*
X-2995395Y+5885001D01*
X-3100605Y+5885001D01*
X-3174999Y+5959395D01*
G37*
G36*
X-3428999Y+5959395D02*
X-3428999Y+6064605D01*
X-3354605Y+6138999D01*
X-3249395Y+6138999D01*
X-3175001Y+6064605D01*
X-3175001Y+5959395D01*
X-3249395Y+5885001D01*
X-3354605Y+5885001D01*
X-3428999Y+5959395D01*
G37*
G36*
X-3670299Y+5964656D02*
X-3670299Y+6059344D01*
X-3603344Y+6126299D01*
X-3508656Y+6126299D01*
X-3441701Y+6059344D01*
X-3441701Y+5964656D01*
X-3508656Y+5897701D01*
X-3603344Y+5897701D01*
X-3670299Y+5964656D01*
G37*
G36*
X-3924299Y+5964656D02*
X-3924299Y+6059344D01*
X-3857344Y+6126299D01*
X-3762656Y+6126299D01*
X-3695701Y+6059344D01*
X-3695701Y+5964656D01*
X-3762656Y+5897701D01*
X-3857344Y+5897701D01*
X-3924299Y+5964656D01*
G37*
G36*
X-7145041Y+6075701D02*
X-7167451Y+6075701D01*
X-7167451Y+5905055D01*
X-7123001Y+5860605D01*
X-7123001Y+5755395D01*
X-7197395Y+5681001D01*
X-7264261Y+5681001D01*
X-7165809Y+5582549D01*
X-7065809Y+5582549D01*
X-6917451Y+5434191D01*
X-6917451Y+5165809D01*
X-7065809Y+5017451D01*
X-8175809Y+5017451D01*
X-8497941Y+4695319D01*
X-8435075Y+4695319D01*
X-8360681Y+4620925D01*
X-8360681Y+4515715D01*
X-8435075Y+4441321D01*
X-8497939Y+4441321D01*
X-8975451Y+3963809D01*
X-8975451Y+3759055D01*
X-8931001Y+3714605D01*
X-8931001Y+3609395D01*
X-9005395Y+3535001D01*
X-9110605Y+3535001D01*
X-9184999Y+3609395D01*
X-9184999Y+3714605D01*
X-9140549Y+3759055D01*
X-9140549Y+4032191D01*
X-8718719Y+4454021D01*
X-8855979Y+4454021D01*
X-8855979Y+4682619D01*
X-8824229Y+4682619D01*
X-8824229Y+4735041D01*
X-8854299Y+4735041D01*
X-8854299Y+4938239D01*
X-8625701Y+4938239D01*
X-8625701Y+4801039D01*
X-8244191Y+5182549D01*
X-7134191Y+5182549D01*
X-7082549Y+5234191D01*
X-7082549Y+5365809D01*
X-7090681Y+5373941D01*
X-7090681Y+5277715D01*
X-7165075Y+5203321D01*
X-7270285Y+5203321D01*
X-7344679Y+5277715D01*
X-7344679Y+5382925D01*
X-7272173Y+5455431D01*
X-7282549Y+5465807D01*
X-7282549Y+5465809D01*
X-7497741Y+5681001D01*
X-7556605Y+5681001D01*
X-7630999Y+5755395D01*
X-7630999Y+5860605D01*
X-7556605Y+5934999D01*
X-7451395Y+5934999D01*
X-7377001Y+5860605D01*
X-7377001Y+5793741D01*
X-7376999Y+5793739D01*
X-7376999Y+5860605D01*
X-7332549Y+5905055D01*
X-7332549Y+6075701D01*
X-7348239Y+6075701D01*
X-7348239Y+6304299D01*
X-7145041Y+6304299D01*
X-7145041Y+6075701D01*
G37*
G36*
X-8360679Y+4515715D02*
X-8360679Y+4620925D01*
X-8286285Y+4695319D01*
X-8181075Y+4695319D01*
X-8106681Y+4620925D01*
X-8106681Y+4515715D01*
X-8181075Y+4441321D01*
X-8286285Y+4441321D01*
X-8360679Y+4515715D01*
G37*
G36*
X-8106679Y+4515715D02*
X-8106679Y+4620925D01*
X-8032285Y+4695319D01*
X-7927075Y+4695319D01*
X-7852681Y+4620925D01*
X-7852681Y+4515715D01*
X-7927075Y+4441321D01*
X-8032285Y+4441321D01*
X-8106679Y+4515715D01*
G37*
G36*
X-7852679Y+4515715D02*
X-7852679Y+4620925D01*
X-7778285Y+4695319D01*
X-7673075Y+4695319D01*
X-7598681Y+4620925D01*
X-7598681Y+4515715D01*
X-7673075Y+4441321D01*
X-7778285Y+4441321D01*
X-7852679Y+4515715D01*
G37*
G36*
X-7344681Y+4620925D02*
X-7344681Y+4515715D01*
X-7389131Y+4471265D01*
X-7389131Y+4044129D01*
X-7500711Y+3932549D01*
X-7235809Y+3932549D01*
X-7082259Y+3778999D01*
X-7019395Y+3778999D01*
X-6945001Y+3704605D01*
X-6945001Y+3599395D01*
X-7011847Y+3532549D01*
X-6878153Y+3532549D01*
X-6944999Y+3599395D01*
X-6944999Y+3704605D01*
X-6870605Y+3778999D01*
X-6765395Y+3778999D01*
X-6691001Y+3704605D01*
X-6691001Y+3599395D01*
X-6757847Y+3532549D01*
X-6624153Y+3532549D01*
X-6690999Y+3599395D01*
X-6690999Y+3704605D01*
X-6616605Y+3778999D01*
X-6511395Y+3778999D01*
X-6437001Y+3704605D01*
X-6437001Y+3641739D01*
X-6436999Y+3641741D01*
X-6436999Y+3704605D01*
X-6362605Y+3778999D01*
X-6257395Y+3778999D01*
X-6183001Y+3704605D01*
X-6183001Y+3599395D01*
X-6257395Y+3525001D01*
X-6320259Y+3525001D01*
X-6477809Y+3367451D01*
X-8372191Y+3367451D01*
X-8539741Y+3535001D01*
X-8602605Y+3535001D01*
X-8676999Y+3609395D01*
X-8676999Y+3672261D01*
X-8677001Y+3672259D01*
X-8677001Y+3609395D01*
X-8751395Y+3535001D01*
X-8856605Y+3535001D01*
X-8930999Y+3609395D01*
X-8930999Y+3714605D01*
X-8856605Y+3788999D01*
X-8793741Y+3788999D01*
X-8650191Y+3932549D01*
X-7734191Y+3932549D01*
X-7554229Y+4112511D01*
X-7554229Y+4471265D01*
X-7598679Y+4515715D01*
X-7598679Y+4620925D01*
X-7524285Y+4695319D01*
X-7419075Y+4695319D01*
X-7344681Y+4620925D01*
G37*
G36*
X-7344679Y+4515715D02*
X-7344679Y+4620925D01*
X-7270285Y+4695319D01*
X-7165075Y+4695319D01*
X-7090681Y+4620925D01*
X-7090681Y+4515715D01*
X-7165075Y+4441321D01*
X-7270285Y+4441321D01*
X-7344679Y+4515715D01*
G37*
G36*
X-7598679Y+5277715D02*
X-7598679Y+5382925D01*
X-7524285Y+5457319D01*
X-7419075Y+5457319D01*
X-7344681Y+5382925D01*
X-7344681Y+5277715D01*
X-7419075Y+5203321D01*
X-7524285Y+5203321D01*
X-7598679Y+5277715D01*
G37*
G36*
X-7852679Y+5277715D02*
X-7852679Y+5382925D01*
X-7778285Y+5457319D01*
X-7673075Y+5457319D01*
X-7598681Y+5382925D01*
X-7598681Y+5277715D01*
X-7673075Y+5203321D01*
X-7778285Y+5203321D01*
X-7852679Y+5277715D01*
G37*
G36*
X-8106679Y+5277715D02*
X-8106679Y+5382925D01*
X-8032285Y+5457319D01*
X-7927075Y+5457319D01*
X-7852681Y+5382925D01*
X-7852681Y+5277715D01*
X-7927075Y+5203321D01*
X-8032285Y+5203321D01*
X-8106679Y+5277715D01*
G37*
G36*
X-8360679Y+5277715D02*
X-8360679Y+5382925D01*
X-8286285Y+5457319D01*
X-8181075Y+5457319D01*
X-8106681Y+5382925D01*
X-8106681Y+5277715D01*
X-8181075Y+5203321D01*
X-8286285Y+5203321D01*
X-8360679Y+5277715D01*
G37*
G36*
X-8357001Y+5840605D02*
X-8357001Y+5735395D01*
X-8417451Y+5674945D01*
X-8417451Y+5664299D01*
X-8398401Y+5664299D01*
X-8398401Y+5435701D01*
X-8405131Y+5435701D01*
X-8405131Y+5427375D01*
X-8360681Y+5382925D01*
X-8360681Y+5277715D01*
X-8435075Y+5203321D01*
X-8540285Y+5203321D01*
X-8614679Y+5277715D01*
X-8614679Y+5382925D01*
X-8570229Y+5427375D01*
X-8570229Y+5435701D01*
X-8601599Y+5435701D01*
X-8601599Y+5664299D01*
X-8582549Y+5664299D01*
X-8582549Y+5706945D01*
X-8610999Y+5735395D01*
X-8610999Y+5840605D01*
X-8536605Y+5914999D01*
X-8431395Y+5914999D01*
X-8357001Y+5840605D01*
G37*
G36*
X-8611001Y+5840605D02*
X-8611001Y+5735395D01*
X-8682097Y+5664299D01*
X-8611761Y+5664299D01*
X-8611761Y+5435701D01*
X-8659131Y+5435701D01*
X-8659131Y+5427375D01*
X-8614681Y+5382925D01*
X-8614681Y+5277715D01*
X-8659131Y+5233265D01*
X-8659131Y+5151599D01*
X-8625701Y+5151599D01*
X-8625701Y+4948401D01*
X-8854299Y+4948401D01*
X-8854299Y+5151599D01*
X-8824229Y+5151599D01*
X-8824229Y+5233265D01*
X-8868679Y+5277715D01*
X-8868679Y+5382925D01*
X-8824229Y+5427375D01*
X-8824229Y+5504072D01*
X-8814959Y+5530298D01*
X-8814959Y+5664299D01*
X-8793903Y+5664299D01*
X-8864999Y+5735395D01*
X-8864999Y+5840605D01*
X-8790605Y+5914999D01*
X-8685395Y+5914999D01*
X-8611001Y+5840605D01*
G37*
G36*
X-9946999Y+3026999D02*
X-9693001Y+3026999D01*
X-9693001Y+2773001D01*
X-9946999Y+2773001D01*
X-9946999Y+3026999D01*
G37*
G36*
X-9692999Y+2847395D02*
X-9692999Y+2952605D01*
X-9618605Y+3026999D01*
X-9513395Y+3026999D01*
X-9439001Y+2952605D01*
X-9439001Y+2847395D01*
X-9513395Y+2773001D01*
X-9618605Y+2773001D01*
X-9692999Y+2847395D01*
G37*
G36*
X-7082259Y+3016999D02*
X-7019395Y+3016999D01*
X-6945001Y+2942605D01*
X-6945001Y+2837395D01*
X-6989451Y+2792945D01*
X-6989451Y+2606191D01*
X-6935659Y+2552399D01*
X-6747601Y+2552399D01*
X-6747601Y+2247601D01*
X-7052399Y+2247601D01*
X-7052399Y+2435659D01*
X-7154549Y+2537809D01*
X-7154549Y+2792945D01*
X-7198999Y+2837395D01*
X-7198999Y+2900259D01*
X-7199001Y+2900261D01*
X-7199001Y+2837395D01*
X-7273395Y+2763001D01*
X-7378605Y+2763001D01*
X-7452999Y+2837395D01*
X-7452999Y+2942605D01*
X-7378605Y+3016999D01*
X-7315739Y+3016999D01*
X-7316191Y+3017451D01*
X-8233847Y+3017451D01*
X-8169001Y+2952605D01*
X-8169001Y+2847395D01*
X-8207451Y+2808945D01*
X-8207451Y+2644959D01*
X-8175701Y+2644959D01*
X-8175701Y+2441761D01*
X-8404299Y+2441761D01*
X-8404299Y+2644959D01*
X-8372549Y+2644959D01*
X-8372549Y+2796945D01*
X-8422999Y+2847395D01*
X-8422999Y+2952605D01*
X-8358153Y+3017451D01*
X-8487847Y+3017451D01*
X-8423001Y+2952605D01*
X-8423001Y+2847395D01*
X-8467451Y+2802945D01*
X-8467451Y+2544169D01*
X-8575961Y+2435659D01*
X-8575961Y+2247601D01*
X-8880759Y+2247601D01*
X-8880759Y+2552399D01*
X-8692701Y+2552399D01*
X-8632549Y+2612551D01*
X-8632549Y+2802945D01*
X-8676999Y+2847395D01*
X-8676999Y+2952605D01*
X-8612153Y+3017451D01*
X-8741847Y+3017451D01*
X-8677001Y+2952605D01*
X-8677001Y+2847395D01*
X-8751395Y+2773001D01*
X-8856605Y+2773001D01*
X-8930999Y+2847395D01*
X-8930999Y+2952605D01*
X-8866153Y+3017451D01*
X-8995847Y+3017451D01*
X-8931001Y+2952605D01*
X-8931001Y+2847395D01*
X-9005395Y+2773001D01*
X-9110605Y+2773001D01*
X-9184999Y+2847395D01*
X-9184999Y+2908261D01*
X-9185001Y+2908259D01*
X-9185001Y+2847395D01*
X-9229451Y+2802945D01*
X-9229451Y+2596191D01*
X-9185659Y+2552399D01*
X-8997601Y+2552399D01*
X-8997601Y+2247601D01*
X-9302399Y+2247601D01*
X-9302399Y+2435659D01*
X-9394549Y+2527809D01*
X-9394549Y+2802945D01*
X-9438999Y+2847395D01*
X-9438999Y+2952605D01*
X-9364605Y+3026999D01*
X-9299741Y+3026999D01*
X-9144191Y+3182549D01*
X-7247809Y+3182549D01*
X-7082259Y+3016999D01*
G37*
G36*
X-9438999Y+3609395D02*
X-9438999Y+3714605D01*
X-9364605Y+3788999D01*
X-9259395Y+3788999D01*
X-9185001Y+3714605D01*
X-9185001Y+3609395D01*
X-9259395Y+3535001D01*
X-9364605Y+3535001D01*
X-9438999Y+3609395D01*
G37*
G36*
X-9692999Y+3609395D02*
X-9692999Y+3714605D01*
X-9618605Y+3788999D01*
X-9513395Y+3788999D01*
X-9439001Y+3714605D01*
X-9439001Y+3609395D01*
X-9513395Y+3535001D01*
X-9618605Y+3535001D01*
X-9692999Y+3609395D01*
G37*
G36*
X-9946999Y+3609395D02*
X-9946999Y+3714605D01*
X-9872605Y+3788999D01*
X-9767395Y+3788999D01*
X-9693001Y+3714605D01*
X-9693001Y+3609395D01*
X-9767395Y+3535001D01*
X-9872605Y+3535001D01*
X-9946999Y+3609395D01*
G37*
G36*
X-8356999Y+6676999D02*
X-8103001Y+6676999D01*
X-8103001Y+6423001D01*
X-8356999Y+6423001D01*
X-8356999Y+6676999D01*
G37*
G36*
X-8610999Y+6497395D02*
X-8610999Y+6602605D01*
X-8536605Y+6676999D01*
X-8431395Y+6676999D01*
X-8357001Y+6602605D01*
X-8357001Y+6497395D01*
X-8431395Y+6423001D01*
X-8536605Y+6423001D01*
X-8610999Y+6497395D01*
G37*
G36*
X-8864999Y+6497395D02*
X-8864999Y+6602605D01*
X-8790605Y+6676999D01*
X-8685395Y+6676999D01*
X-8611001Y+6602605D01*
X-8611001Y+6497395D01*
X-8685395Y+6423001D01*
X-8790605Y+6423001D01*
X-8864999Y+6497395D01*
G37*
G36*
X-8125041Y+6055701D02*
X-8147451Y+6055701D01*
X-8147451Y+5885055D01*
X-8103001Y+5840605D01*
X-8103001Y+5735395D01*
X-8177395Y+5661001D01*
X-8282605Y+5661001D01*
X-8356999Y+5735395D01*
X-8356999Y+5840605D01*
X-8312549Y+5885055D01*
X-8312549Y+6055701D01*
X-8328239Y+6055701D01*
X-8328239Y+6284299D01*
X-8125041Y+6284299D01*
X-8125041Y+6055701D01*
G37*
G36*
X-7135701Y+6455701D02*
X-7364299Y+6455701D01*
X-7364299Y+6684299D01*
X-7135701Y+6684299D01*
X-7135701Y+6455701D01*
G37*
G36*
X-7630999Y+6517395D02*
X-7630999Y+6622605D01*
X-7556605Y+6696999D01*
X-7451395Y+6696999D01*
X-7377001Y+6622605D01*
X-7377001Y+6517395D01*
X-7451395Y+6443001D01*
X-7556605Y+6443001D01*
X-7630999Y+6517395D01*
G37*
G36*
X-7643701Y+6617344D02*
X-7643701Y+6522656D01*
X-7710656Y+6455701D01*
X-7805344Y+6455701D01*
X-7872299Y+6522656D01*
X-7872299Y+6617344D01*
X-7805344Y+6684299D01*
X-7710656Y+6684299D01*
X-7643701Y+6617344D01*
G37*
G36*
X-7884999Y+5755395D02*
X-7884999Y+5860605D01*
X-7810605Y+5934999D01*
X-7705395Y+5934999D01*
X-7631001Y+5860605D01*
X-7631001Y+5755395D01*
X-7705395Y+5681001D01*
X-7810605Y+5681001D01*
X-7884999Y+5755395D01*
G37*
G36*
X-7706999Y+3016999D02*
X-7453001Y+3016999D01*
X-7453001Y+2763001D01*
X-7706999Y+2763001D01*
X-7706999Y+3016999D01*
G37*
G36*
X-6944999Y+2837395D02*
X-6944999Y+2942605D01*
X-6870605Y+3016999D01*
X-6765395Y+3016999D01*
X-6691001Y+2942605D01*
X-6691001Y+2837395D01*
X-6765395Y+2763001D01*
X-6870605Y+2763001D01*
X-6944999Y+2837395D01*
G37*
G36*
X-6690999Y+2837395D02*
X-6690999Y+2942605D01*
X-6616605Y+3016999D01*
X-6511395Y+3016999D01*
X-6437001Y+2942605D01*
X-6437001Y+2837395D01*
X-6511395Y+2763001D01*
X-6616605Y+2763001D01*
X-6690999Y+2837395D01*
G37*
G36*
X-6183001Y+2942605D02*
X-6183001Y+2837395D01*
X-6227451Y+2792945D01*
X-6227451Y+2534169D01*
X-6325961Y+2435659D01*
X-6325961Y+2247601D01*
X-6630759Y+2247601D01*
X-6630759Y+2552399D01*
X-6442701Y+2552399D01*
X-6392549Y+2602551D01*
X-6392549Y+2792945D01*
X-6436999Y+2837395D01*
X-6436999Y+2942605D01*
X-6362605Y+3016999D01*
X-6257395Y+3016999D01*
X-6183001Y+2942605D01*
G37*
G36*
X-5929001Y+2942605D02*
X-5929001Y+2837395D01*
X-5967451Y+2798945D01*
X-5967451Y+2601599D01*
X-5935701Y+2601599D01*
X-5935701Y+2398401D01*
X-6164299Y+2398401D01*
X-6164299Y+2601599D01*
X-6132549Y+2601599D01*
X-6132549Y+2786945D01*
X-6182999Y+2837395D01*
X-6182999Y+2942605D01*
X-6108605Y+3016999D01*
X-6003395Y+3016999D01*
X-5929001Y+2942605D01*
G37*
G36*
X-6182999Y+3599395D02*
X-6182999Y+3704605D01*
X-6108605Y+3778999D01*
X-6003395Y+3778999D01*
X-5929001Y+3704605D01*
X-5929001Y+3599395D01*
X-6003395Y+3525001D01*
X-6108605Y+3525001D01*
X-6182999Y+3599395D01*
G37*
G36*
X-8175701Y+2381916D02*
X-8153673Y+2357133D01*
X-8163451Y+2274344D01*
X-8163451Y+2002399D01*
X-8093601Y+2002399D01*
X-8093601Y+1697601D01*
X-8906399Y+1697601D01*
X-8906399Y+2002399D01*
X-8328549Y+2002399D01*
X-8328549Y+2228401D01*
X-8404299Y+2228401D01*
X-8404299Y+2431599D01*
X-8175701Y+2431599D01*
X-8175701Y+2381916D01*
G37*
G36*
X-9193601Y+1697601D02*
X-10006399Y+1697601D01*
X-10006399Y+2002399D01*
X-9193601Y+2002399D01*
X-9193601Y+1697601D01*
G37*
G36*
X-5935701Y+2185041D02*
X-5963451Y+2185041D01*
X-5963451Y+2002399D01*
X-5893601Y+2002399D01*
X-5893601Y+1697601D01*
X-6401601Y+1697601D01*
X-6401601Y+1636874D01*
X-6490875Y+1547601D01*
X-6626201Y+1412275D01*
X-6626201Y+1376353D01*
X-6730353Y+1272201D01*
X-7273647Y+1272201D01*
X-7273752Y+1272306D01*
X-10838100Y+1274533D01*
X-10865832Y+1246801D01*
X-11034168Y+1246801D01*
X-11153199Y+1365832D01*
X-11153199Y+1534168D01*
X-11034168Y+1653199D01*
X-10865832Y+1653199D01*
X-10842768Y+1630135D01*
X-7552399Y+1628160D01*
X-7552399Y+1697601D01*
X-7806399Y+1697601D01*
X-7806399Y+2002399D01*
X-6993601Y+2002399D01*
X-6993601Y+1697601D01*
X-7232077Y+1697601D01*
X-7162402Y+1627926D01*
X-7126458Y+1627904D01*
X-6999838Y+1627799D01*
X-6841725Y+1627799D01*
X-6706399Y+1763125D01*
X-6706399Y+2002399D01*
X-6128549Y+2002399D01*
X-6128549Y+2185041D01*
X-6164299Y+2185041D01*
X-6164299Y+2388239D01*
X-5935701Y+2388239D01*
X-5935701Y+2185041D01*
G37*
G36*
X-10815032Y+2102779D02*
X-10511600Y+2102779D01*
X-10346874Y+2102399D01*
X-10107601Y+1863126D01*
X-10107601Y+1736874D01*
X-10196874Y+1647601D01*
X-10323126Y+1647601D01*
X-10473126Y+1797601D01*
X-10511965Y+1797981D01*
X-10815032Y+1797981D01*
X-10865832Y+1747181D01*
X-11034168Y+1747181D01*
X-11153199Y+1866212D01*
X-11153199Y+2034548D01*
X-11034168Y+2153579D01*
X-10865832Y+2153579D01*
X-10815032Y+2102779D01*
G37*
G36*
X-8541599Y+6284299D02*
X-8338401Y+6284299D01*
X-8338401Y+6055701D01*
X-8541599Y+6055701D01*
X-8541599Y+6284299D01*
G37*
G36*
X-7561599Y+6304299D02*
X-7358401Y+6304299D01*
X-7358401Y+6075701D01*
X-7561599Y+6075701D01*
X-7561599Y+6304299D01*
G37*
G36*
X-1686801Y+2834168D02*
X-1686801Y+2665832D01*
X-1805832Y+2546801D01*
X-1974168Y+2546801D01*
X-2093199Y+2665832D01*
X-2093199Y+2667423D01*
X-2152899Y+2667416D01*
X-2352936Y+2667389D01*
X-2397395Y+2622930D01*
X-2502605Y+2622930D01*
X-2576999Y+2697324D01*
X-2576999Y+2802534D01*
X-2502605Y+2876928D01*
X-2397395Y+2876928D01*
X-2352960Y+2832493D01*
X-2187102Y+2832513D01*
X-2093199Y+2832526D01*
X-2093199Y+2834168D01*
X-1974168Y+2953199D01*
X-1805832Y+2953199D01*
X-1686801Y+2834168D01*
G37*
G36*
X-1686801Y+2333788D02*
X-1686801Y+2165452D01*
X-1805832Y+2046421D01*
X-1974168Y+2046421D01*
X-2093199Y+2165452D01*
X-2093199Y+2167193D01*
X-2187124Y+2167261D01*
X-2353029Y+2167367D01*
X-2397395Y+2123001D01*
X-2502605Y+2123001D01*
X-2576999Y+2197395D01*
X-2576999Y+2302605D01*
X-2502605Y+2376999D01*
X-2397395Y+2376999D01*
X-2352899Y+2332503D01*
X-2152876Y+2332359D01*
X-2093199Y+2332320D01*
X-2093199Y+2333788D01*
X-1974168Y+2452819D01*
X-1805832Y+2452819D01*
X-1686801Y+2333788D01*
G37*
G36*
X-3426999Y+1787799D02*
X-3173001Y+1787799D01*
X-3173001Y+1432201D01*
X-3426999Y+1432201D01*
X-3426999Y+1787799D01*
G37*
G36*
X-3172999Y+1787799D02*
X-2919001Y+1787799D01*
X-2919001Y+1432201D01*
X-3172999Y+1432201D01*
X-3172999Y+1787799D01*
G37*
G36*
X-2918999Y+1787799D02*
X-2665001Y+1787799D01*
X-2665001Y+1432201D01*
X-2918999Y+1432201D01*
X-2918999Y+1787799D01*
G37*
G36*
X-2664999Y+1787799D02*
X-2411001Y+1787799D01*
X-2411001Y+1432201D01*
X-2664999Y+1432201D01*
X-2664999Y+1787799D01*
G37*
G36*
X-2410999Y+1787799D02*
X-2157001Y+1787799D01*
X-2157001Y+1432201D01*
X-2410999Y+1432201D01*
X-2410999Y+1787799D01*
G37*
G36*
X-2156999Y+1787799D02*
X-1903001Y+1787799D01*
X-1903001Y+1432201D01*
X-2156999Y+1432201D01*
X-2156999Y+1787799D01*
G37*
G36*
X-5716999Y+1787799D02*
X-5463001Y+1787799D01*
X-5463001Y+1432201D01*
X-5716999Y+1432201D01*
X-5716999Y+1787799D01*
G37*
G36*
X-5462999Y+1787799D02*
X-5209001Y+1787799D01*
X-5209001Y+1432201D01*
X-5462999Y+1432201D01*
X-5462999Y+1787799D01*
G37*
G36*
X-5208999Y+1787799D02*
X-4955001Y+1787799D01*
X-4955001Y+1432201D01*
X-5208999Y+1432201D01*
X-5208999Y+1787799D01*
G37*
G36*
X-4954999Y+1787799D02*
X-4701001Y+1787799D01*
X-4701001Y+1432201D01*
X-4954999Y+1432201D01*
X-4954999Y+1787799D01*
G37*
G36*
X-4700999Y+1787799D02*
X-4447001Y+1787799D01*
X-4447001Y+1432201D01*
X-4700999Y+1432201D01*
X-4700999Y+1787799D01*
G37*
G36*
X-4446999Y+1787799D02*
X-4193001Y+1787799D01*
X-4193001Y+1432201D01*
X-4446999Y+1432201D01*
X-4446999Y+1787799D01*
G37*
G36*
X-4192999Y+1787799D02*
X-3939001Y+1787799D01*
X-3939001Y+1432201D01*
X-4192999Y+1432201D01*
X-4192999Y+1787799D01*
G37*
G36*
X-3938999Y+1787799D02*
X-3685001Y+1787799D01*
X-3685001Y+1432201D01*
X-3938999Y+1432201D01*
X-3938999Y+1787799D01*
G37*
G36*
X-3936999Y+6617799D02*
X-3683001Y+6617799D01*
X-3683001Y+6262201D01*
X-3936999Y+6262201D01*
X-3936999Y+6617799D01*
G37*
G36*
X-3682999Y+6617799D02*
X-3429001Y+6617799D01*
X-3429001Y+6262201D01*
X-3682999Y+6262201D01*
X-3682999Y+6617799D01*
G37*
G36*
X-3428999Y+6617799D02*
X-3175001Y+6617799D01*
X-3175001Y+6262201D01*
X-3428999Y+6262201D01*
X-3428999Y+6617799D01*
G37*
G36*
X-3174999Y+6617799D02*
X-2921001Y+6617799D01*
X-2921001Y+6262201D01*
X-3174999Y+6262201D01*
X-3174999Y+6617799D01*
G37*
G36*
X-2920999Y+6617799D02*
X-2667001Y+6617799D01*
X-2667001Y+6262201D01*
X-2920999Y+6262201D01*
X-2920999Y+6617799D01*
G37*
G36*
X-2666999Y+6617799D02*
X-2413001Y+6617799D01*
X-2413001Y+6262201D01*
X-2666999Y+6262201D01*
X-2666999Y+6617799D01*
G37*
G36*
X-2412999Y+6617799D02*
X-2159001Y+6617799D01*
X-2159001Y+6262201D01*
X-2412999Y+6262201D01*
X-2412999Y+6617799D01*
G37*
G36*
X-2158999Y+6617799D02*
X-1905001Y+6617799D01*
X-1905001Y+6262201D01*
X-2158999Y+6262201D01*
X-2158999Y+6617799D01*
G37*
G36*
X-6626999Y+6617799D02*
X-6373001Y+6617799D01*
X-6373001Y+6262201D01*
X-6626999Y+6262201D01*
X-6626999Y+6617799D01*
G37*
G36*
X-6372999Y+6617799D02*
X-6119001Y+6617799D01*
X-6119001Y+6262201D01*
X-6372999Y+6262201D01*
X-6372999Y+6617799D01*
G37*
G36*
X-6118999Y+6617799D02*
X-5865001Y+6617799D01*
X-5865001Y+6262201D01*
X-6118999Y+6262201D01*
X-6118999Y+6617799D01*
G37*
G36*
X-5864999Y+6617799D02*
X-5611001Y+6617799D01*
X-5611001Y+6262201D01*
X-5864999Y+6262201D01*
X-5864999Y+6617799D01*
G37*
G36*
X-5610999Y+6617799D02*
X-5357001Y+6617799D01*
X-5357001Y+6262201D01*
X-5610999Y+6262201D01*
X-5610999Y+6617799D01*
G37*
G36*
X-5356999Y+6617799D02*
X-5103001Y+6617799D01*
X-5103001Y+6262201D01*
X-5356999Y+6262201D01*
X-5356999Y+6617799D01*
G37*
G36*
X-5102999Y+6617799D02*
X-4849001Y+6617799D01*
X-4849001Y+6262201D01*
X-5102999Y+6262201D01*
X-5102999Y+6617799D01*
G37*
G36*
X-4848999Y+6617799D02*
X-4595001Y+6617799D01*
X-4595001Y+6262201D01*
X-4848999Y+6262201D01*
X-4848999Y+6617799D01*
G37*
G36*
X-4594999Y+6617799D02*
X-4341001Y+6617799D01*
X-4341001Y+6262201D01*
X-4594999Y+6262201D01*
X-4594999Y+6617799D01*
G37*
G36*
X-4340999Y+6617799D02*
X-4087001Y+6617799D01*
X-4087001Y+6262201D01*
X-4340999Y+6262201D01*
X-4340999Y+6617799D01*
G37*
G36*
X-4735701Y+4776299D02*
X-4735701Y+4547701D01*
X-4964299Y+4547701D01*
X-4964299Y+4776299D01*
X-4735701Y+4776299D01*
G37*
G36*
X-4897344Y+4522299D02*
X-4802656Y+4522299D01*
X-4735701Y+4455344D01*
X-4735701Y+4360656D01*
X-4802656Y+4293701D01*
X-4897344Y+4293701D01*
X-4964299Y+4360656D01*
X-4964299Y+4455344D01*
X-4897344Y+4522299D01*
G37*
G36*
X-4897344Y+4268299D02*
X-4802656Y+4268299D01*
X-4735701Y+4201344D01*
X-4735701Y+4106656D01*
X-4802656Y+4039701D01*
X-4897344Y+4039701D01*
X-4964299Y+4106656D01*
X-4964299Y+4201344D01*
X-4897344Y+4268299D01*
G37*
G36*
X-4897344Y+4014299D02*
X-4802656Y+4014299D01*
X-4735701Y+3947344D01*
X-4735701Y+3852656D01*
X-4802656Y+3785701D01*
X-4897344Y+3785701D01*
X-4964299Y+3852656D01*
X-4964299Y+3947344D01*
X-4897344Y+4014299D01*
G37*
G36*
X-4897344Y+3760299D02*
X-4802656Y+3760299D01*
X-4735701Y+3693344D01*
X-4735701Y+3598656D01*
X-4802656Y+3531701D01*
X-4897344Y+3531701D01*
X-4964299Y+3598656D01*
X-4964299Y+3693344D01*
X-4897344Y+3760299D01*
G37*
G36*
X-4897344Y+3506299D02*
X-4802656Y+3506299D01*
X-4735701Y+3439344D01*
X-4735701Y+3344656D01*
X-4802656Y+3277701D01*
X-4897344Y+3277701D01*
X-4964299Y+3344656D01*
X-4964299Y+3439344D01*
X-4897344Y+3506299D01*
G37*
G36*
X-4135344Y+3252299D02*
X-4040656Y+3252299D01*
X-3973701Y+3185344D01*
X-3973701Y+3090656D01*
X-4040656Y+3023701D01*
X-4135344Y+3023701D01*
X-4202299Y+3090656D01*
X-4202299Y+3185344D01*
X-4135344Y+3252299D01*
G37*
G36*
X-4135344Y+3506299D02*
X-4040656Y+3506299D01*
X-3973701Y+3439344D01*
X-3973701Y+3344656D01*
X-4040656Y+3277701D01*
X-4135344Y+3277701D01*
X-4202299Y+3344656D01*
X-4202299Y+3439344D01*
X-4135344Y+3506299D01*
G37*
G36*
X-10865832Y+2256421D02*
X-11034168Y+2256421D01*
X-11153199Y+2375452D01*
X-11153199Y+2543788D01*
X-11034168Y+2662819D01*
X-10865832Y+2662819D01*
X-10746801Y+2543788D01*
X-10746801Y+2375452D01*
X-10865832Y+2256421D01*
G37*
G36*
X-10815032Y+3112399D02*
X-10334475Y+3112399D01*
X-10245202Y+3023126D01*
X-10245202Y+2656874D01*
X-10334475Y+2567601D01*
X-10460727Y+2567601D01*
X-10550000Y+2656874D01*
X-10550000Y+2807601D01*
X-10815032Y+2807601D01*
X-10865832Y+2756801D01*
X-11034168Y+2756801D01*
X-11153199Y+2875832D01*
X-11153199Y+3044168D01*
X-11034168Y+3163199D01*
X-10865832Y+3163199D01*
X-10815032Y+3112399D01*
G37*
G36*
X-4293601Y+2147601D02*
X-5106399Y+2147601D01*
X-5106399Y+2452399D01*
X-4293601Y+2452399D01*
X-4293601Y+2147601D01*
G37*
%LPD*%
G36*
X-7198999Y+3662259D02*
X-7198999Y+3599395D01*
X-7132153Y+3532549D01*
X-7265847Y+3532549D01*
X-7199001Y+3599395D01*
X-7199001Y+3662261D01*
X-7198999Y+3662259D01*
G37*
G36*
X-7452999Y+3704605D02*
X-7452999Y+3599395D01*
X-7386153Y+3532549D01*
X-7519847Y+3532549D01*
X-7453001Y+3599395D01*
X-7453001Y+3704605D01*
X-7515847Y+3767451D01*
X-7390153Y+3767451D01*
X-7452999Y+3704605D01*
G37*
D10*
X-7072000Y+2890000D02*
X-7082000Y+2900000D01*
X-7072000Y+2890000D02*
X-7072000Y+2910000D01*
X-7082000Y+2900000D01*
X-3285659Y+4263601D02*
X-3285659Y+4264961D01*
X-2962659Y+4264961D01*
X-2899159Y+4263601D01*
X-3285659Y+3755601D02*
X-3285659Y+3753481D01*
X-2949225Y+3753481D01*
X-2885725Y+3756841D01*
X-3302000Y+5250000D02*
X-3500000Y+5448000D01*
X-4048000Y+5448000D01*
X-4050000Y+5450000D01*
X-3048000Y+5250000D02*
X-3398000Y+5600000D01*
X-4000000Y+5600000D01*
X-2794000Y+5250000D02*
X-2794000Y+5400000D01*
X-3144000Y+5750000D01*
X-3950000Y+5750000D01*
X-4050000Y+5450000D02*
X-4450000Y+5450000D01*
X-4720000Y+5720000D01*
X-4720000Y+6090000D01*
X-4000000Y+5600000D02*
X-4350000Y+5600000D01*
X-4460000Y+5710000D01*
X-4460000Y+6080000D01*
X-3950000Y+5750000D02*
X-4100000Y+5750000D01*
X-4200000Y+5850000D01*
X-4200000Y+6080000D01*
D12*
X-10940380Y+2969620D02*
X-10950000Y+2969620D01*
D72*
X-10950000Y+2960000D02*
X-10940380Y+2969620D01*
D10*
X-8804000Y+3662000D02*
X-8616000Y+3850000D01*
X-7700000Y+3850000D01*
X-9312000Y+2900000D02*
X-9309354Y+2900646D01*
X-9110000Y+3100000D01*
X-7282000Y+3100000D01*
X-7082000Y+2900000D01*
X-7700000Y+3850000D02*
X-7270000Y+3850000D01*
X-7072000Y+3652000D01*
X-8550000Y+3662000D02*
X-8338000Y+3450000D01*
X-6512000Y+3450000D01*
X-6310000Y+3652000D01*
X-8290000Y+2543360D02*
X-8290000Y+2836500D01*
X-8296000Y+2900000D01*
X-6046000Y+1850000D02*
X-6046000Y+2235840D01*
X-6050000Y+2286640D01*
X-6050000Y+2500000D02*
X-6050000Y+2826500D01*
X-6056000Y+2890000D01*
X-9150000Y+2400000D02*
X-9312000Y+2562000D01*
X-9312000Y+2900000D01*
X-8728360Y+2400000D02*
X-8550000Y+2578360D01*
X-8550000Y+2900000D01*
X-6900000Y+2400000D02*
X-7072000Y+2572000D01*
X-7072000Y+2890000D01*
X-6478360Y+2400000D02*
X-6310000Y+2568360D01*
X-6310000Y+2890000D01*
X-4088000Y+3646000D02*
X-4151500Y+3680240D01*
X-4316630Y+3845370D01*
X-4316630Y+4750000D01*
X-4116630Y+4950000D01*
X-3935659Y+4950000D01*
X-2450380Y+3244990D02*
X-2460639Y+3234731D01*
X-3700000Y+3955601D02*
X-3485659Y+3955601D01*
X-3285659Y+3755601D01*
X-3285659Y+4263601D02*
X-3380299Y+4168961D01*
X-3700000Y+4168961D01*
X-3700000Y+3955601D02*
X-3700000Y+3950971D01*
X-3764341Y+3900000D01*
X-4088000Y+3900000D01*
X-3935659Y+4950000D02*
X-3856000Y+4950000D01*
X-3700000Y+4800000D02*
X-3700000Y+5106000D01*
X-3556000Y+5250000D01*
X-3856000Y+4950000D02*
X-3849999Y+4950000D01*
X-3700000Y+4800000D01*
X-3700000Y+4168961D01*
X-2450000Y+2749929D02*
X-1890000Y+2750000D01*
X-2450000Y+2250000D02*
X-1890000Y+2249620D01*
X-2450380Y+3249620D02*
X-2450380Y+3244990D01*
X-2450380Y+3239620D01*
X-2450380Y+3234731D01*
X-2460639Y+3234731D01*
X-1890000Y+4770000D02*
X-2286000Y+5166000D01*
X-2286000Y+5250000D01*
X-1890000Y+4269620D02*
X-2540000Y+4919620D01*
X-2540000Y+5250000D01*
X-2450000Y+3750000D02*
X-2042400Y+3750000D01*
X-1890000Y+3750380D01*
X-2885725Y+3543481D02*
X-2735659Y+3655601D01*
X-2735659Y+4355601D01*
X-2899159Y+4476961D01*
X-1890000Y+3250000D02*
X-1650000Y+3500000D01*
X-1650000Y+4868000D01*
X-2032000Y+5250000D01*
X-2450380Y+3249620D02*
X-2591864Y+3249620D01*
X-2885725Y+3543481D01*
X-2450380Y+3249620D02*
X-2374180Y+3234731D01*
X-2042400Y+3234731D01*
X-1890000Y+3250000D01*
X-7471680Y+4568320D02*
X-7471680Y+4078320D01*
X-7700000Y+3850000D01*
X-8487680Y+4568320D02*
X-9058000Y+3998000D01*
X-9058000Y+3662000D01*
X-7217680Y+4568320D02*
X-7100000Y+4568320D01*
X-7217680Y+4580000D02*
X-7217680Y+4568320D01*
X-7217680Y+4460000D01*
X-7217680Y+4580000D02*
X-7217680Y+4700000D01*
X-9566000Y+2900000D02*
X-9566000Y+3050000D01*
X-9566000Y+2900000D02*
X-9566000Y+2750000D01*
X-7326000Y+2890000D02*
X-7326000Y+2880000D01*
X-7326000Y+2750000D01*
X-9566000Y+3662000D02*
X-9566000Y+3540000D01*
X-7654000Y+1850000D02*
X-7654000Y+2050000D01*
X-7654000Y+1850000D02*
X-7850000Y+1850000D01*
D12*
X-10410000Y+1950000D02*
X-10260000Y+1800000D01*
X-6554000Y+1850000D02*
X-6554000Y+1700000D01*
X-6804000Y+1450000D01*
D10*
X-7654000Y+1850000D02*
X-7654000Y+1670000D01*
X-2450380Y+3244990D02*
X-2550380Y+3244990D01*
X-2950000Y+2850000D01*
X-4571260Y+2850000D01*
X-4850000Y+3128740D01*
X-4850000Y+3138000D01*
X-8741680Y+4568320D02*
X-8741680Y+4785840D01*
X-8740000Y+4836640D01*
X-8741680Y+5330320D02*
X-8741680Y+5100800D01*
X-8740000Y+5050000D01*
X-8741680Y+5330320D02*
X-8741680Y+5486500D01*
X-8713360Y+5550000D01*
X-8487680Y+5330320D02*
X-8487680Y+5486500D01*
X-8500000Y+5550000D01*
X-8500000Y+5724500D01*
X-8484000Y+5788000D01*
X-7200000Y+5500000D02*
X-7100000Y+5500000D01*
X-7000000Y+5400000D01*
X-7000000Y+5200000D01*
X-7100000Y+5100000D01*
X-8210000Y+5100000D01*
X-8741680Y+4568320D01*
X-7200000Y+5500000D02*
X-7444500Y+5744500D01*
X-7504000Y+5808000D01*
X-7250000Y+5808000D02*
X-7250000Y+6126500D01*
X-7246640Y+6190000D01*
X-8230000Y+5788000D02*
X-8230000Y+6106500D01*
X-8226640Y+6170000D01*
X-8738000Y+5788000D02*
X-8738000Y+5900000D01*
X-8738000Y+5788000D02*
X-8850000Y+5788000D01*
X-7758000Y+5808000D02*
X-7758000Y+5930000D01*
X-7758000Y+5808000D02*
X-7890000Y+5808000D01*
X-7758000Y+5808000D02*
X-7758000Y+5680000D01*
X-8440000Y+6170000D02*
X-8440000Y+6300000D01*
X-8440000Y+6170000D02*
X-8550000Y+6170000D01*
X-8440000Y+6170000D02*
X-8440000Y+6050000D01*
X-7460000Y+6190000D02*
X-7460000Y+6300000D01*
X-7460000Y+6190000D02*
X-7600000Y+6190000D01*
X-7460000Y+6190000D02*
X-7460000Y+6050000D01*
X-9566000Y+3662000D02*
X-9566000Y+3670000D01*
X-9566000Y+3780000D01*
X-9566000Y+3662000D02*
X-9478000Y+3750000D01*
X-9566000Y+3662000D02*
X-9660000Y+3568000D01*
X-9566000Y+2900000D02*
X-9466000Y+2800000D01*
X-9566000Y+2900000D02*
X-9650000Y+2984000D01*
X-9566000Y+2900000D02*
X-9460000Y+3006000D01*
X-9566000Y+3662000D02*
X-9654000Y+3750000D01*
X-9566000Y+3662000D02*
X-9474000Y+3570000D01*
X-7217680Y+4568320D02*
X-7129360Y+4480000D01*
X-7217680Y+4568320D02*
X-7306000Y+4480000D01*
X-7217680Y+4568320D02*
X-7126000Y+4660000D01*
X-8246000Y+1850000D02*
X-8246000Y+2279200D01*
X-8240000Y+2330000D01*
X-8290000Y+2330000D01*
X-9854000Y+1850000D02*
X-9854000Y+2000000D01*
X-9854000Y+1850000D02*
X-10020000Y+1850000D01*
X-9854000Y+1850000D02*
X-9854000Y+1700000D01*
D14*
X-7200000Y+1450000D02*
X-7140000Y+1450000D01*
X-7200037Y+1450037D01*
D12*
X-7200000Y+1450000D01*
D14*
X-6804000Y+1450000D02*
X-7140000Y+1450000D01*
X-7200037Y+1450037D02*
X-7090037Y+1450037D01*
X-7200105Y+1450105D01*
D12*
X-7400000Y+1850000D02*
X-7400000Y+1650000D01*
X-7200105Y+1450105D01*
X-7200037Y+1450037D01*
D10*
X-11030000Y+2460000D02*
X-11040000Y+2460000D01*
D12*
X-10397601Y+2720000D02*
X-10397601Y+2960000D01*
D14*
X-7200105Y+1450105D02*
X-10947601Y+1452399D01*
X-10950000Y+1450000D01*
D12*
X-10950000Y+1950380D02*
X-10511600Y+1950380D01*
X-10410000Y+1950000D01*
X-10950000Y+2960000D02*
X-10499201Y+2960000D01*
X-10397601Y+2960000D01*
D10*
X-10950000Y+2459620D02*
X-10740000Y+2459620D01*
X-10950000Y+2459620D02*
X-10950000Y+2670000D01*
X-10950000Y+2459620D02*
X-11039620Y+2459620D01*
X-11160000Y+2459620D01*
X-11035000Y+2455000D02*
X-11039620Y+2459620D01*
X-11040000Y+2460000D01*
X-10950000Y+2459620D02*
X-10950000Y+2250000D01*
X-10950000Y+2459620D02*
X-10800380Y+2310000D01*
X-10950000Y+2459620D02*
X-10799620Y+2610000D01*
X-10950000Y+2459620D02*
X-11100380Y+2610000D01*
X-10950000Y+2459620D02*
X-11099620Y+2310000D01*
D15*
X-1835959Y+6787751D02*
X-1835959Y+5394750D01*
X-1800249Y+5359041D01*
X-1581959Y+5140751D01*
X-1581959Y+4916699D01*
X-1905001Y+5239741D01*
X-1905001Y+5302605D01*
X-1979395Y+5376999D01*
X-2084605Y+5376999D01*
X-2158999Y+5302605D01*
X-2158999Y+5197395D01*
X-2084605Y+5123001D01*
X-2021741Y+5123001D01*
X-1871939Y+4973199D01*
X-1974168Y+4973199D01*
X-1975314Y+4972054D01*
X-2179828Y+5176568D01*
X-2159001Y+5197395D01*
X-2159001Y+5302605D01*
X-2233395Y+5376999D01*
X-2338605Y+5376999D01*
X-2412999Y+5302605D01*
X-2412999Y+5197395D01*
X-2368549Y+5152945D01*
X-2368549Y+5131809D01*
X-2092054Y+4855314D01*
X-2093199Y+4854168D01*
X-2093199Y+4685832D01*
X-1974168Y+4566801D01*
X-1805832Y+4566801D01*
X-1732549Y+4640084D01*
X-1732549Y+4399536D01*
X-1805832Y+4472819D01*
X-1974168Y+4472819D01*
X-1975314Y+4471674D01*
X-2457451Y+4953811D01*
X-2457451Y+5152945D01*
X-2413001Y+5197395D01*
X-2413001Y+5302605D01*
X-2487395Y+5376999D01*
X-2592605Y+5376999D01*
X-2666999Y+5302605D01*
X-2666999Y+5197395D01*
X-2622549Y+5152945D01*
X-2622549Y+4885429D01*
X-2092054Y+4354934D01*
X-2093199Y+4353788D01*
X-2093199Y+4185452D01*
X-1974168Y+4066421D01*
X-1805832Y+4066421D01*
X-1732549Y+4139704D01*
X-1732549Y+3880296D01*
X-1805832Y+3953579D01*
X-1974168Y+3953579D01*
X-2093199Y+3834548D01*
X-2093199Y+3832549D01*
X-2352945Y+3832549D01*
X-2397395Y+3876999D01*
X-2502605Y+3876999D01*
X-2576999Y+3802605D01*
X-2576999Y+3697395D01*
X-2502605Y+3623001D01*
X-2397395Y+3623001D01*
X-2352945Y+3667451D01*
X-2093199Y+3667451D01*
X-2093199Y+3666212D01*
X-1974168Y+3547181D01*
X-1805832Y+3547181D01*
X-1732549Y+3620464D01*
X-1732549Y+3533295D01*
X-1809718Y+3453199D01*
X-1974168Y+3453199D01*
X-2093199Y+3334168D01*
X-2093199Y+3317280D01*
X-2338436Y+3317280D01*
X-2397775Y+3376619D01*
X-2502985Y+3376619D01*
X-2547435Y+3332169D01*
X-2557673Y+3332169D01*
X-2758524Y+3533020D01*
X-2670607Y+3601161D01*
X-2653110Y+3636075D01*
X-2653110Y+4375196D01*
X-2670724Y+4410206D01*
X-2784860Y+4497937D01*
X-2784860Y+4578560D01*
X-3013458Y+4578560D01*
X-3013458Y+4375362D01*
X-2906435Y+4375362D01*
X-2892077Y+4365200D01*
X-3013458Y+4365200D01*
X-3013458Y+4347510D01*
X-3154043Y+4347510D01*
X-3222533Y+4416000D01*
X-3348785Y+4416000D01*
X-3438058Y+4326727D01*
X-3438058Y+4251510D01*
X-3585701Y+4251510D01*
X-3585701Y+4270560D01*
X-3617451Y+4270560D01*
X-3617451Y+5071809D01*
X-3566259Y+5123001D01*
X-3503395Y+5123001D01*
X-3429001Y+5197395D01*
X-3429001Y+5260261D01*
X-3428999Y+5260259D01*
X-3428999Y+5197395D01*
X-3354605Y+5123001D01*
X-3249395Y+5123001D01*
X-3175001Y+5197395D01*
X-3175001Y+5260261D01*
X-3174999Y+5260259D01*
X-3174999Y+5197395D01*
X-3100605Y+5123001D01*
X-2995395Y+5123001D01*
X-2921001Y+5197395D01*
X-2921001Y+5302605D01*
X-2995395Y+5376999D01*
X-3058259Y+5376999D01*
X-3348711Y+5667451D01*
X-3178191Y+5667451D01*
X-2876549Y+5365809D01*
X-2876549Y+5347055D01*
X-2920999Y+5302605D01*
X-2920999Y+5197395D01*
X-2846605Y+5123001D01*
X-2741395Y+5123001D01*
X-2667001Y+5197395D01*
X-2667001Y+5302605D01*
X-2711451Y+5347055D01*
X-2711451Y+5434191D01*
X-3109809Y+5832549D01*
X-4065809Y+5832549D01*
X-4117451Y+5884191D01*
X-4117451Y+5982945D01*
X-4073001Y+6027395D01*
X-4073001Y+6132605D01*
X-4147395Y+6206999D01*
X-4252605Y+6206999D01*
X-4326999Y+6132605D01*
X-4326999Y+6027395D01*
X-4282549Y+5982945D01*
X-4282549Y+5815807D01*
X-4234193Y+5767451D01*
X-4234191Y+5767451D01*
X-4149289Y+5682549D01*
X-4315809Y+5682549D01*
X-4377451Y+5744191D01*
X-4377451Y+5982945D01*
X-4333001Y+6027395D01*
X-4333001Y+6132605D01*
X-4407395Y+6206999D01*
X-4512605Y+6206999D01*
X-4586999Y+6132605D01*
X-4586999Y+6027395D01*
X-4542549Y+5982945D01*
X-4542549Y+5675809D01*
X-4399289Y+5532549D01*
X-4415809Y+5532549D01*
X-4637451Y+5754191D01*
X-4637451Y+5992945D01*
X-4593001Y+6037395D01*
X-4593001Y+6142605D01*
X-4667395Y+6216999D01*
X-4772605Y+6216999D01*
X-4846999Y+6142605D01*
X-4846999Y+6037395D01*
X-4802549Y+5992945D01*
X-4802549Y+5685809D01*
X-4484191Y+5367451D01*
X-4084191Y+5367451D01*
X-4082191Y+5365451D01*
X-3936999Y+5365451D01*
X-3936999Y+5123001D01*
X-3782549Y+5123001D01*
X-3782549Y+4999292D01*
X-3815806Y+5032549D01*
X-4150821Y+5032549D01*
X-4399179Y+4784191D01*
X-4399179Y+3811179D01*
X-4214999Y+3626999D01*
X-4214999Y+3593395D01*
X-4140605Y+3519001D01*
X-4035395Y+3519001D01*
X-3961001Y+3593395D01*
X-3961001Y+3698605D01*
X-4035395Y+3772999D01*
X-4127519Y+3772999D01*
X-4127521Y+3773001D01*
X-4035395Y+3773001D01*
X-3990945Y+3817451D01*
X-3735607Y+3817451D01*
X-3689468Y+3854002D01*
X-3585701Y+3854002D01*
X-3585701Y+3873052D01*
X-3519850Y+3873052D01*
X-3438058Y+3791260D01*
X-3438058Y+3692475D01*
X-3348785Y+3603202D01*
X-3222533Y+3603202D01*
X-3154803Y+3670932D01*
X-3000024Y+3670932D01*
X-3000024Y+3655242D01*
X-2878755Y+3655242D01*
X-2893075Y+3645080D01*
X-3000024Y+3645080D01*
X-3000024Y+3441882D01*
X-2900866Y+3441882D01*
X-2685996Y+3227012D01*
X-2983911Y+2932549D01*
X-4537069Y+2932549D01*
X-4723001Y+3118481D01*
X-4723001Y+3190605D01*
X-4797395Y+3264999D01*
X-4902605Y+3264999D01*
X-4976999Y+3190605D01*
X-4976999Y+3085395D01*
X-4902605Y+3011001D01*
X-4849001Y+3011001D01*
X-4605451Y+2767451D01*
X-2916090Y+2767451D01*
X-2529714Y+3149350D01*
X-2502985Y+3122621D01*
X-2397775Y+3122621D01*
X-2368214Y+3152182D01*
X-2079549Y+3152182D01*
X-1974168Y+3046801D01*
X-1805832Y+3046801D01*
X-1686801Y+3165832D01*
X-1686801Y+3334168D01*
X-1690619Y+3337986D01*
X-1581959Y+3451619D01*
X-1581959Y+1889249D01*
X-1835959Y+1635250D01*
X-1835959Y+1180959D01*
X-11270000Y+1180959D01*
X-11270000Y+6879041D01*
X-1927249Y+6879041D01*
X-1835959Y+6787751D01*
X-2158999Y+5959395D02*
X-2158999Y+6064605D01*
X-2084605Y+6138999D01*
X-1979395Y+6138999D01*
X-1905001Y+6064605D01*
X-1905001Y+5959395D01*
X-1979395Y+5885001D01*
X-2084605Y+5885001D01*
X-2158999Y+5959395D01*
X-2412999Y+5959395D02*
X-2412999Y+6064605D01*
X-2338605Y+6138999D01*
X-2233395Y+6138999D01*
X-2159001Y+6064605D01*
X-2159001Y+5959395D01*
X-2233395Y+5885001D01*
X-2338605Y+5885001D01*
X-2412999Y+5959395D01*
X-2666999Y+5959395D02*
X-2666999Y+6064605D01*
X-2592605Y+6138999D01*
X-2487395Y+6138999D01*
X-2413001Y+6064605D01*
X-2413001Y+5959395D01*
X-2487395Y+5885001D01*
X-2592605Y+5885001D01*
X-2666999Y+5959395D01*
X-2920999Y+5959395D02*
X-2920999Y+6064605D01*
X-2846605Y+6138999D01*
X-2741395Y+6138999D01*
X-2667001Y+6064605D01*
X-2667001Y+5959395D01*
X-2741395Y+5885001D01*
X-2846605Y+5885001D01*
X-2920999Y+5959395D01*
X-3174999Y+5959395D02*
X-3174999Y+6064605D01*
X-3100605Y+6138999D01*
X-2995395Y+6138999D01*
X-2921001Y+6064605D01*
X-2921001Y+5959395D01*
X-2995395Y+5885001D01*
X-3100605Y+5885001D01*
X-3174999Y+5959395D01*
X-3428999Y+5959395D02*
X-3428999Y+6064605D01*
X-3354605Y+6138999D01*
X-3249395Y+6138999D01*
X-3175001Y+6064605D01*
X-3175001Y+5959395D01*
X-3249395Y+5885001D01*
X-3354605Y+5885001D01*
X-3428999Y+5959395D01*
X-3670299Y+5964656D02*
X-3670299Y+6059344D01*
X-3603344Y+6126299D01*
X-3508656Y+6126299D01*
X-3441701Y+6059344D01*
X-3441701Y+5964656D01*
X-3508656Y+5897701D01*
X-3603344Y+5897701D01*
X-3670299Y+5964656D01*
X-3924299Y+5964656D02*
X-3924299Y+6059344D01*
X-3857344Y+6126299D01*
X-3762656Y+6126299D01*
X-3695701Y+6059344D01*
X-3695701Y+5964656D01*
X-3762656Y+5897701D01*
X-3857344Y+5897701D01*
X-3924299Y+5964656D01*
X-7145041Y+6075701D02*
X-7167451Y+6075701D01*
X-7167451Y+5905055D01*
X-7123001Y+5860605D01*
X-7123001Y+5755395D01*
X-7197395Y+5681001D01*
X-7264261Y+5681001D01*
X-7165809Y+5582549D01*
X-7065809Y+5582549D01*
X-6917451Y+5434191D01*
X-6917451Y+5165809D01*
X-7065809Y+5017451D01*
X-8175809Y+5017451D01*
X-8497941Y+4695319D01*
X-8435075Y+4695319D01*
X-8360681Y+4620925D01*
X-8360681Y+4515715D01*
X-8435075Y+4441321D01*
X-8497939Y+4441321D01*
X-8975451Y+3963809D01*
X-8975451Y+3759055D01*
X-8931001Y+3714605D01*
X-8931001Y+3609395D01*
X-9005395Y+3535001D01*
X-9110605Y+3535001D01*
X-9184999Y+3609395D01*
X-9184999Y+3714605D01*
X-9140549Y+3759055D01*
X-9140549Y+4032191D01*
X-8718719Y+4454021D01*
X-8855979Y+4454021D01*
X-8855979Y+4682619D01*
X-8824229Y+4682619D01*
X-8824229Y+4735041D01*
X-8854299Y+4735041D01*
X-8854299Y+4938239D01*
X-8625701Y+4938239D01*
X-8625701Y+4801039D01*
X-8244191Y+5182549D01*
X-7134191Y+5182549D01*
X-7082549Y+5234191D01*
X-7082549Y+5365809D01*
X-7090681Y+5373941D01*
X-7090681Y+5277715D01*
X-7165075Y+5203321D01*
X-7270285Y+5203321D01*
X-7344679Y+5277715D01*
X-7344679Y+5382925D01*
X-7272173Y+5455431D01*
X-7282549Y+5465807D01*
X-7282549Y+5465809D01*
X-7497741Y+5681001D01*
X-7556605Y+5681001D01*
X-7630999Y+5755395D01*
X-7630999Y+5860605D01*
X-7556605Y+5934999D01*
X-7451395Y+5934999D01*
X-7377001Y+5860605D01*
X-7377001Y+5793741D01*
X-7376999Y+5793739D01*
X-7376999Y+5860605D01*
X-7332549Y+5905055D01*
X-7332549Y+6075701D01*
X-7348239Y+6075701D01*
X-7348239Y+6304299D01*
X-7145041Y+6304299D01*
X-7145041Y+6075701D01*
X-8360679Y+4515715D02*
X-8360679Y+4620925D01*
X-8286285Y+4695319D01*
X-8181075Y+4695319D01*
X-8106681Y+4620925D01*
X-8106681Y+4515715D01*
X-8181075Y+4441321D01*
X-8286285Y+4441321D01*
X-8360679Y+4515715D01*
X-8106679Y+4515715D02*
X-8106679Y+4620925D01*
X-8032285Y+4695319D01*
X-7927075Y+4695319D01*
X-7852681Y+4620925D01*
X-7852681Y+4515715D01*
X-7927075Y+4441321D01*
X-8032285Y+4441321D01*
X-8106679Y+4515715D01*
X-7852679Y+4515715D02*
X-7852679Y+4620925D01*
X-7778285Y+4695319D01*
X-7673075Y+4695319D01*
X-7598681Y+4620925D01*
X-7598681Y+4515715D01*
X-7673075Y+4441321D01*
X-7778285Y+4441321D01*
X-7852679Y+4515715D01*
X-7344681Y+4620925D02*
X-7344681Y+4515715D01*
X-7389131Y+4471265D01*
X-7389131Y+4044129D01*
X-7500711Y+3932549D01*
X-7235809Y+3932549D01*
X-7082259Y+3778999D01*
X-7019395Y+3778999D01*
X-6945001Y+3704605D01*
X-6945001Y+3599395D01*
X-7011847Y+3532549D01*
X-6878153Y+3532549D01*
X-6944999Y+3599395D01*
X-6944999Y+3704605D01*
X-6870605Y+3778999D01*
X-6765395Y+3778999D01*
X-6691001Y+3704605D01*
X-6691001Y+3599395D01*
X-6757847Y+3532549D01*
X-6624153Y+3532549D01*
X-6690999Y+3599395D01*
X-6690999Y+3704605D01*
X-6616605Y+3778999D01*
X-6511395Y+3778999D01*
X-6437001Y+3704605D01*
X-6437001Y+3641739D01*
X-6436999Y+3641741D01*
X-6436999Y+3704605D01*
X-6362605Y+3778999D01*
X-6257395Y+3778999D01*
X-6183001Y+3704605D01*
X-6183001Y+3599395D01*
X-6257395Y+3525001D01*
X-6320259Y+3525001D01*
X-6477809Y+3367451D01*
X-8372191Y+3367451D01*
X-8539741Y+3535001D01*
X-8602605Y+3535001D01*
X-8676999Y+3609395D01*
X-8676999Y+3672261D01*
X-8677001Y+3672259D01*
X-8677001Y+3609395D01*
X-8751395Y+3535001D01*
X-8856605Y+3535001D01*
X-8930999Y+3609395D01*
X-8930999Y+3714605D01*
X-8856605Y+3788999D01*
X-8793741Y+3788999D01*
X-8650191Y+3932549D01*
X-7734191Y+3932549D01*
X-7554229Y+4112511D01*
X-7554229Y+4471265D01*
X-7598679Y+4515715D01*
X-7598679Y+4620925D01*
X-7524285Y+4695319D01*
X-7419075Y+4695319D01*
X-7344681Y+4620925D01*
X-7344679Y+4515715D02*
X-7344679Y+4620925D01*
X-7270285Y+4695319D01*
X-7165075Y+4695319D01*
X-7090681Y+4620925D01*
X-7090681Y+4515715D01*
X-7165075Y+4441321D01*
X-7270285Y+4441321D01*
X-7344679Y+4515715D01*
X-7598679Y+5277715D02*
X-7598679Y+5382925D01*
X-7524285Y+5457319D01*
X-7419075Y+5457319D01*
X-7344681Y+5382925D01*
X-7344681Y+5277715D01*
X-7419075Y+5203321D01*
X-7524285Y+5203321D01*
X-7598679Y+5277715D01*
X-7852679Y+5277715D02*
X-7852679Y+5382925D01*
X-7778285Y+5457319D01*
X-7673075Y+5457319D01*
X-7598681Y+5382925D01*
X-7598681Y+5277715D01*
X-7673075Y+5203321D01*
X-7778285Y+5203321D01*
X-7852679Y+5277715D01*
X-8106679Y+5277715D02*
X-8106679Y+5382925D01*
X-8032285Y+5457319D01*
X-7927075Y+5457319D01*
X-7852681Y+5382925D01*
X-7852681Y+5277715D01*
X-7927075Y+5203321D01*
X-8032285Y+5203321D01*
X-8106679Y+5277715D01*
X-8360679Y+5277715D02*
X-8360679Y+5382925D01*
X-8286285Y+5457319D01*
X-8181075Y+5457319D01*
X-8106681Y+5382925D01*
X-8106681Y+5277715D01*
X-8181075Y+5203321D01*
X-8286285Y+5203321D01*
X-8360679Y+5277715D01*
X-8357001Y+5840605D02*
X-8357001Y+5735395D01*
X-8417451Y+5674945D01*
X-8417451Y+5664299D01*
X-8398401Y+5664299D01*
X-8398401Y+5435701D01*
X-8405131Y+5435701D01*
X-8405131Y+5427375D01*
X-8360681Y+5382925D01*
X-8360681Y+5277715D01*
X-8435075Y+5203321D01*
X-8540285Y+5203321D01*
X-8614679Y+5277715D01*
X-8614679Y+5382925D01*
X-8570229Y+5427375D01*
X-8570229Y+5435701D01*
X-8601599Y+5435701D01*
X-8601599Y+5664299D01*
X-8582549Y+5664299D01*
X-8582549Y+5706945D01*
X-8610999Y+5735395D01*
X-8610999Y+5840605D01*
X-8536605Y+5914999D01*
X-8431395Y+5914999D01*
X-8357001Y+5840605D01*
X-8611001Y+5840605D02*
X-8611001Y+5735395D01*
X-8682097Y+5664299D01*
X-8611761Y+5664299D01*
X-8611761Y+5435701D01*
X-8659131Y+5435701D01*
X-8659131Y+5427375D01*
X-8614681Y+5382925D01*
X-8614681Y+5277715D01*
X-8659131Y+5233265D01*
X-8659131Y+5151599D01*
X-8625701Y+5151599D01*
X-8625701Y+4948401D01*
X-8854299Y+4948401D01*
X-8854299Y+5151599D01*
X-8824229Y+5151599D01*
X-8824229Y+5233265D01*
X-8868679Y+5277715D01*
X-8868679Y+5382925D01*
X-8824229Y+5427375D01*
X-8824229Y+5504072D01*
X-8814959Y+5530298D01*
X-8814959Y+5664299D01*
X-8793903Y+5664299D01*
X-8864999Y+5735395D01*
X-8864999Y+5840605D01*
X-8790605Y+5914999D01*
X-8685395Y+5914999D01*
X-8611001Y+5840605D01*
X-9946999Y+3026999D02*
X-9693001Y+3026999D01*
X-9693001Y+2773001D01*
X-9946999Y+2773001D01*
X-9946999Y+3026999D01*
X-9692999Y+2847395D02*
X-9692999Y+2952605D01*
X-9618605Y+3026999D01*
X-9513395Y+3026999D01*
X-9439001Y+2952605D01*
X-9439001Y+2847395D01*
X-9513395Y+2773001D01*
X-9618605Y+2773001D01*
X-9692999Y+2847395D01*
X-7082259Y+3016999D02*
X-7019395Y+3016999D01*
X-6945001Y+2942605D01*
X-6945001Y+2837395D01*
X-6989451Y+2792945D01*
X-6989451Y+2606191D01*
X-6935659Y+2552399D01*
X-6747601Y+2552399D01*
X-6747601Y+2247601D01*
X-7052399Y+2247601D01*
X-7052399Y+2435659D01*
X-7154549Y+2537809D01*
X-7154549Y+2792945D01*
X-7198999Y+2837395D01*
X-7198999Y+2900259D01*
X-7199001Y+2900261D01*
X-7199001Y+2837395D01*
X-7273395Y+2763001D01*
X-7378605Y+2763001D01*
X-7452999Y+2837395D01*
X-7452999Y+2942605D01*
X-7378605Y+3016999D01*
X-7315739Y+3016999D01*
X-7316191Y+3017451D01*
X-8233847Y+3017451D01*
X-8169001Y+2952605D01*
X-8169001Y+2847395D01*
X-8207451Y+2808945D01*
X-8207451Y+2644959D01*
X-8175701Y+2644959D01*
X-8175701Y+2441761D01*
X-8404299Y+2441761D01*
X-8404299Y+2644959D01*
X-8372549Y+2644959D01*
X-8372549Y+2796945D01*
X-8422999Y+2847395D01*
X-8422999Y+2952605D01*
X-8358153Y+3017451D01*
X-8487847Y+3017451D01*
X-8423001Y+2952605D01*
X-8423001Y+2847395D01*
X-8467451Y+2802945D01*
X-8467451Y+2544169D01*
X-8575961Y+2435659D01*
X-8575961Y+2247601D01*
X-8880759Y+2247601D01*
X-8880759Y+2552399D01*
X-8692701Y+2552399D01*
X-8632549Y+2612551D01*
X-8632549Y+2802945D01*
X-8676999Y+2847395D01*
X-8676999Y+2952605D01*
X-8612153Y+3017451D01*
X-8741847Y+3017451D01*
X-8677001Y+2952605D01*
X-8677001Y+2847395D01*
X-8751395Y+2773001D01*
X-8856605Y+2773001D01*
X-8930999Y+2847395D01*
X-8930999Y+2952605D01*
X-8866153Y+3017451D01*
X-8995847Y+3017451D01*
X-8931001Y+2952605D01*
X-8931001Y+2847395D01*
X-9005395Y+2773001D01*
X-9110605Y+2773001D01*
X-9184999Y+2847395D01*
X-9184999Y+2908261D01*
X-9185001Y+2908259D01*
X-9185001Y+2847395D01*
X-9229451Y+2802945D01*
X-9229451Y+2596191D01*
X-9185659Y+2552399D01*
X-8997601Y+2552399D01*
X-8997601Y+2247601D01*
X-9302399Y+2247601D01*
X-9302399Y+2435659D01*
X-9394549Y+2527809D01*
X-9394549Y+2802945D01*
X-9438999Y+2847395D01*
X-9438999Y+2952605D01*
X-9364605Y+3026999D01*
X-9299741Y+3026999D01*
X-9144191Y+3182549D01*
X-7247809Y+3182549D01*
X-7082259Y+3016999D01*
X-9438999Y+3609395D02*
X-9438999Y+3714605D01*
X-9364605Y+3788999D01*
X-9259395Y+3788999D01*
X-9185001Y+3714605D01*
X-9185001Y+3609395D01*
X-9259395Y+3535001D01*
X-9364605Y+3535001D01*
X-9438999Y+3609395D01*
X-9692999Y+3609395D02*
X-9692999Y+3714605D01*
X-9618605Y+3788999D01*
X-9513395Y+3788999D01*
X-9439001Y+3714605D01*
X-9439001Y+3609395D01*
X-9513395Y+3535001D01*
X-9618605Y+3535001D01*
X-9692999Y+3609395D01*
X-9946999Y+3609395D02*
X-9946999Y+3714605D01*
X-9872605Y+3788999D01*
X-9767395Y+3788999D01*
X-9693001Y+3714605D01*
X-9693001Y+3609395D01*
X-9767395Y+3535001D01*
X-9872605Y+3535001D01*
X-9946999Y+3609395D01*
X-8356999Y+6676999D02*
X-8103001Y+6676999D01*
X-8103001Y+6423001D01*
X-8356999Y+6423001D01*
X-8356999Y+6676999D01*
X-8610999Y+6497395D02*
X-8610999Y+6602605D01*
X-8536605Y+6676999D01*
X-8431395Y+6676999D01*
X-8357001Y+6602605D01*
X-8357001Y+6497395D01*
X-8431395Y+6423001D01*
X-8536605Y+6423001D01*
X-8610999Y+6497395D01*
X-8864999Y+6497395D02*
X-8864999Y+6602605D01*
X-8790605Y+6676999D01*
X-8685395Y+6676999D01*
X-8611001Y+6602605D01*
X-8611001Y+6497395D01*
X-8685395Y+6423001D01*
X-8790605Y+6423001D01*
X-8864999Y+6497395D01*
X-8125041Y+6055701D02*
X-8147451Y+6055701D01*
X-8147451Y+5885055D01*
X-8103001Y+5840605D01*
X-8103001Y+5735395D01*
X-8177395Y+5661001D01*
X-8282605Y+5661001D01*
X-8356999Y+5735395D01*
X-8356999Y+5840605D01*
X-8312549Y+5885055D01*
X-8312549Y+6055701D01*
X-8328239Y+6055701D01*
X-8328239Y+6284299D01*
X-8125041Y+6284299D01*
X-8125041Y+6055701D01*
X-7135701Y+6455701D02*
X-7364299Y+6455701D01*
X-7364299Y+6684299D01*
X-7135701Y+6684299D01*
X-7135701Y+6455701D01*
X-7630999Y+6517395D02*
X-7630999Y+6622605D01*
X-7556605Y+6696999D01*
X-7451395Y+6696999D01*
X-7377001Y+6622605D01*
X-7377001Y+6517395D01*
X-7451395Y+6443001D01*
X-7556605Y+6443001D01*
X-7630999Y+6517395D01*
X-7643701Y+6617344D02*
X-7643701Y+6522656D01*
X-7710656Y+6455701D01*
X-7805344Y+6455701D01*
X-7872299Y+6522656D01*
X-7872299Y+6617344D01*
X-7805344Y+6684299D01*
X-7710656Y+6684299D01*
X-7643701Y+6617344D01*
X-7884999Y+5755395D02*
X-7884999Y+5860605D01*
X-7810605Y+5934999D01*
X-7705395Y+5934999D01*
X-7631001Y+5860605D01*
X-7631001Y+5755395D01*
X-7705395Y+5681001D01*
X-7810605Y+5681001D01*
X-7884999Y+5755395D01*
X-7706999Y+3016999D02*
X-7453001Y+3016999D01*
X-7453001Y+2763001D01*
X-7706999Y+2763001D01*
X-7706999Y+3016999D01*
X-6944999Y+2837395D02*
X-6944999Y+2942605D01*
X-6870605Y+3016999D01*
X-6765395Y+3016999D01*
X-6691001Y+2942605D01*
X-6691001Y+2837395D01*
X-6765395Y+2763001D01*
X-6870605Y+2763001D01*
X-6944999Y+2837395D01*
X-6690999Y+2837395D02*
X-6690999Y+2942605D01*
X-6616605Y+3016999D01*
X-6511395Y+3016999D01*
X-6437001Y+2942605D01*
X-6437001Y+2837395D01*
X-6511395Y+2763001D01*
X-6616605Y+2763001D01*
X-6690999Y+2837395D01*
X-6183001Y+2942605D02*
X-6183001Y+2837395D01*
X-6227451Y+2792945D01*
X-6227451Y+2534169D01*
X-6325961Y+2435659D01*
X-6325961Y+2247601D01*
X-6630759Y+2247601D01*
X-6630759Y+2552399D01*
X-6442701Y+2552399D01*
X-6392549Y+2602551D01*
X-6392549Y+2792945D01*
X-6436999Y+2837395D01*
X-6436999Y+2942605D01*
X-6362605Y+3016999D01*
X-6257395Y+3016999D01*
X-6183001Y+2942605D01*
X-5929001Y+2942605D02*
X-5929001Y+2837395D01*
X-5967451Y+2798945D01*
X-5967451Y+2601599D01*
X-5935701Y+2601599D01*
X-5935701Y+2398401D01*
X-6164299Y+2398401D01*
X-6164299Y+2601599D01*
X-6132549Y+2601599D01*
X-6132549Y+2786945D01*
X-6182999Y+2837395D01*
X-6182999Y+2942605D01*
X-6108605Y+3016999D01*
X-6003395Y+3016999D01*
X-5929001Y+2942605D01*
X-6182999Y+3599395D02*
X-6182999Y+3704605D01*
X-6108605Y+3778999D01*
X-6003395Y+3778999D01*
X-5929001Y+3704605D01*
X-5929001Y+3599395D01*
X-6003395Y+3525001D01*
X-6108605Y+3525001D01*
X-6182999Y+3599395D01*
X-8175701Y+2381916D02*
X-8153673Y+2357133D01*
X-8163451Y+2274344D01*
X-8163451Y+2002399D01*
X-8093601Y+2002399D01*
X-8093601Y+1697601D01*
X-8906399Y+1697601D01*
X-8906399Y+2002399D01*
X-8328549Y+2002399D01*
X-8328549Y+2228401D01*
X-8404299Y+2228401D01*
X-8404299Y+2431599D01*
X-8175701Y+2431599D01*
X-8175701Y+2381916D01*
X-9193601Y+1697601D02*
X-10006399Y+1697601D01*
X-10006399Y+2002399D01*
X-9193601Y+2002399D01*
X-9193601Y+1697601D01*
X-5935701Y+2185041D02*
X-5963451Y+2185041D01*
X-5963451Y+2002399D01*
X-5893601Y+2002399D01*
X-5893601Y+1697601D01*
X-6401601Y+1697601D01*
X-6401601Y+1636874D01*
X-6490875Y+1547601D01*
X-6626201Y+1412275D01*
X-6626201Y+1376353D01*
X-6730353Y+1272201D01*
X-7273647Y+1272201D01*
X-7273752Y+1272306D01*
X-10838100Y+1274533D01*
X-10865832Y+1246801D01*
X-11034168Y+1246801D01*
X-11153199Y+1365832D01*
X-11153199Y+1534168D01*
X-11034168Y+1653199D01*
X-10865832Y+1653199D01*
X-10842768Y+1630135D01*
X-7552399Y+1628160D01*
X-7552399Y+1697601D01*
X-7806399Y+1697601D01*
X-7806399Y+2002399D01*
X-6993601Y+2002399D01*
X-6993601Y+1697601D01*
X-7232077Y+1697601D01*
X-7162402Y+1627926D01*
X-7126458Y+1627904D01*
X-6999838Y+1627799D01*
X-6841725Y+1627799D01*
X-6706399Y+1763125D01*
X-6706399Y+2002399D01*
X-6128549Y+2002399D01*
X-6128549Y+2185041D01*
X-6164299Y+2185041D01*
X-6164299Y+2388239D01*
X-5935701Y+2388239D01*
X-5935701Y+2185041D01*
X-10815032Y+2102779D02*
X-10511600Y+2102779D01*
X-10346874Y+2102399D01*
X-10107601Y+1863126D01*
X-10107601Y+1736874D01*
X-10196874Y+1647601D01*
X-10323126Y+1647601D01*
X-10473126Y+1797601D01*
X-10511965Y+1797981D01*
X-10815032Y+1797981D01*
X-10865832Y+1747181D01*
X-11034168Y+1747181D01*
X-11153199Y+1866212D01*
X-11153199Y+2034548D01*
X-11034168Y+2153579D01*
X-10865832Y+2153579D01*
X-10815032Y+2102779D01*
X-8541599Y+6284299D02*
X-8338401Y+6284299D01*
X-8338401Y+6055701D01*
X-8541599Y+6055701D01*
X-8541599Y+6284299D01*
X-7561599Y+6304299D02*
X-7358401Y+6304299D01*
X-7358401Y+6075701D01*
X-7561599Y+6075701D01*
X-7561599Y+6304299D01*
X-1686801Y+2834168D02*
X-1686801Y+2665832D01*
X-1805832Y+2546801D01*
X-1974168Y+2546801D01*
X-2093199Y+2665832D01*
X-2093199Y+2667423D01*
X-2152899Y+2667416D01*
X-2352936Y+2667389D01*
X-2397395Y+2622930D01*
X-2502605Y+2622930D01*
X-2576999Y+2697324D01*
X-2576999Y+2802534D01*
X-2502605Y+2876928D01*
X-2397395Y+2876928D01*
X-2352960Y+2832493D01*
X-2187102Y+2832513D01*
X-2093199Y+2832526D01*
X-2093199Y+2834168D01*
X-1974168Y+2953199D01*
X-1805832Y+2953199D01*
X-1686801Y+2834168D01*
X-1686801Y+2333788D02*
X-1686801Y+2165452D01*
X-1805832Y+2046421D01*
X-1974168Y+2046421D01*
X-2093199Y+2165452D01*
X-2093199Y+2167193D01*
X-2187124Y+2167261D01*
X-2353029Y+2167367D01*
X-2397395Y+2123001D01*
X-2502605Y+2123001D01*
X-2576999Y+2197395D01*
X-2576999Y+2302605D01*
X-2502605Y+2376999D01*
X-2397395Y+2376999D01*
X-2352899Y+2332503D01*
X-2152876Y+2332359D01*
X-2093199Y+2332320D01*
X-2093199Y+2333788D01*
X-1974168Y+2452819D01*
X-1805832Y+2452819D01*
X-1686801Y+2333788D01*
X-3426999Y+1787799D02*
X-3173001Y+1787799D01*
X-3173001Y+1432201D01*
X-3426999Y+1432201D01*
X-3426999Y+1787799D01*
X-3172999Y+1787799D02*
X-2919001Y+1787799D01*
X-2919001Y+1432201D01*
X-3172999Y+1432201D01*
X-3172999Y+1787799D01*
X-2918999Y+1787799D02*
X-2665001Y+1787799D01*
X-2665001Y+1432201D01*
X-2918999Y+1432201D01*
X-2918999Y+1787799D01*
X-2664999Y+1787799D02*
X-2411001Y+1787799D01*
X-2411001Y+1432201D01*
X-2664999Y+1432201D01*
X-2664999Y+1787799D01*
X-2410999Y+1787799D02*
X-2157001Y+1787799D01*
X-2157001Y+1432201D01*
X-2410999Y+1432201D01*
X-2410999Y+1787799D01*
X-2156999Y+1787799D02*
X-1903001Y+1787799D01*
X-1903001Y+1432201D01*
X-2156999Y+1432201D01*
X-2156999Y+1787799D01*
X-5716999Y+1787799D02*
X-5463001Y+1787799D01*
X-5463001Y+1432201D01*
X-5716999Y+1432201D01*
X-5716999Y+1787799D01*
X-5462999Y+1787799D02*
X-5209001Y+1787799D01*
X-5209001Y+1432201D01*
X-5462999Y+1432201D01*
X-5462999Y+1787799D01*
X-5208999Y+1787799D02*
X-4955001Y+1787799D01*
X-4955001Y+1432201D01*
X-5208999Y+1432201D01*
X-5208999Y+1787799D01*
X-4954999Y+1787799D02*
X-4701001Y+1787799D01*
X-4701001Y+1432201D01*
X-4954999Y+1432201D01*
X-4954999Y+1787799D01*
X-4700999Y+1787799D02*
X-4447001Y+1787799D01*
X-4447001Y+1432201D01*
X-4700999Y+1432201D01*
X-4700999Y+1787799D01*
X-4446999Y+1787799D02*
X-4193001Y+1787799D01*
X-4193001Y+1432201D01*
X-4446999Y+1432201D01*
X-4446999Y+1787799D01*
X-4192999Y+1787799D02*
X-3939001Y+1787799D01*
X-3939001Y+1432201D01*
X-4192999Y+1432201D01*
X-4192999Y+1787799D01*
X-3938999Y+1787799D02*
X-3685001Y+1787799D01*
X-3685001Y+1432201D01*
X-3938999Y+1432201D01*
X-3938999Y+1787799D01*
X-3936999Y+6617799D02*
X-3683001Y+6617799D01*
X-3683001Y+6262201D01*
X-3936999Y+6262201D01*
X-3936999Y+6617799D01*
X-3682999Y+6617799D02*
X-3429001Y+6617799D01*
X-3429001Y+6262201D01*
X-3682999Y+6262201D01*
X-3682999Y+6617799D01*
X-3428999Y+6617799D02*
X-3175001Y+6617799D01*
X-3175001Y+6262201D01*
X-3428999Y+6262201D01*
X-3428999Y+6617799D01*
X-3174999Y+6617799D02*
X-2921001Y+6617799D01*
X-2921001Y+6262201D01*
X-3174999Y+6262201D01*
X-3174999Y+6617799D01*
X-2920999Y+6617799D02*
X-2667001Y+6617799D01*
X-2667001Y+6262201D01*
X-2920999Y+6262201D01*
X-2920999Y+6617799D01*
X-2666999Y+6617799D02*
X-2413001Y+6617799D01*
X-2413001Y+6262201D01*
X-2666999Y+6262201D01*
X-2666999Y+6617799D01*
X-2412999Y+6617799D02*
X-2159001Y+6617799D01*
X-2159001Y+6262201D01*
X-2412999Y+6262201D01*
X-2412999Y+6617799D01*
X-2158999Y+6617799D02*
X-1905001Y+6617799D01*
X-1905001Y+6262201D01*
X-2158999Y+6262201D01*
X-2158999Y+6617799D01*
X-6626999Y+6617799D02*
X-6373001Y+6617799D01*
X-6373001Y+6262201D01*
X-6626999Y+6262201D01*
X-6626999Y+6617799D01*
X-6372999Y+6617799D02*
X-6119001Y+6617799D01*
X-6119001Y+6262201D01*
X-6372999Y+6262201D01*
X-6372999Y+6617799D01*
X-6118999Y+6617799D02*
X-5865001Y+6617799D01*
X-5865001Y+6262201D01*
X-6118999Y+6262201D01*
X-6118999Y+6617799D01*
X-5864999Y+6617799D02*
X-5611001Y+6617799D01*
X-5611001Y+6262201D01*
X-5864999Y+6262201D01*
X-5864999Y+6617799D01*
X-5610999Y+6617799D02*
X-5357001Y+6617799D01*
X-5357001Y+6262201D01*
X-5610999Y+6262201D01*
X-5610999Y+6617799D01*
X-5356999Y+6617799D02*
X-5103001Y+6617799D01*
X-5103001Y+6262201D01*
X-5356999Y+6262201D01*
X-5356999Y+6617799D01*
X-5102999Y+6617799D02*
X-4849001Y+6617799D01*
X-4849001Y+6262201D01*
X-5102999Y+6262201D01*
X-5102999Y+6617799D01*
X-4848999Y+6617799D02*
X-4595001Y+6617799D01*
X-4595001Y+6262201D01*
X-4848999Y+6262201D01*
X-4848999Y+6617799D01*
X-4594999Y+6617799D02*
X-4341001Y+6617799D01*
X-4341001Y+6262201D01*
X-4594999Y+6262201D01*
X-4594999Y+6617799D01*
X-4340999Y+6617799D02*
X-4087001Y+6617799D01*
X-4087001Y+6262201D01*
X-4340999Y+6262201D01*
X-4340999Y+6617799D01*
X-4735701Y+4776299D02*
X-4735701Y+4547701D01*
X-4964299Y+4547701D01*
X-4964299Y+4776299D01*
X-4735701Y+4776299D01*
X-4897344Y+4522299D02*
X-4802656Y+4522299D01*
X-4735701Y+4455344D01*
X-4735701Y+4360656D01*
X-4802656Y+4293701D01*
X-4897344Y+4293701D01*
X-4964299Y+4360656D01*
X-4964299Y+4455344D01*
X-4897344Y+4522299D01*
X-4897344Y+4268299D02*
X-4802656Y+4268299D01*
X-4735701Y+4201344D01*
X-4735701Y+4106656D01*
X-4802656Y+4039701D01*
X-4897344Y+4039701D01*
X-4964299Y+4106656D01*
X-4964299Y+4201344D01*
X-4897344Y+4268299D01*
X-4897344Y+4014299D02*
X-4802656Y+4014299D01*
X-4735701Y+3947344D01*
X-4735701Y+3852656D01*
X-4802656Y+3785701D01*
X-4897344Y+3785701D01*
X-4964299Y+3852656D01*
X-4964299Y+3947344D01*
X-4897344Y+4014299D01*
X-4897344Y+3760299D02*
X-4802656Y+3760299D01*
X-4735701Y+3693344D01*
X-4735701Y+3598656D01*
X-4802656Y+3531701D01*
X-4897344Y+3531701D01*
X-4964299Y+3598656D01*
X-4964299Y+3693344D01*
X-4897344Y+3760299D01*
X-4897344Y+3506299D02*
X-4802656Y+3506299D01*
X-4735701Y+3439344D01*
X-4735701Y+3344656D01*
X-4802656Y+3277701D01*
X-4897344Y+3277701D01*
X-4964299Y+3344656D01*
X-4964299Y+3439344D01*
X-4897344Y+3506299D01*
X-4135344Y+3252299D02*
X-4040656Y+3252299D01*
X-3973701Y+3185344D01*
X-3973701Y+3090656D01*
X-4040656Y+3023701D01*
X-4135344Y+3023701D01*
X-4202299Y+3090656D01*
X-4202299Y+3185344D01*
X-4135344Y+3252299D01*
X-4135344Y+3506299D02*
X-4040656Y+3506299D01*
X-3973701Y+3439344D01*
X-3973701Y+3344656D01*
X-4040656Y+3277701D01*
X-4135344Y+3277701D01*
X-4202299Y+3344656D01*
X-4202299Y+3439344D01*
X-4135344Y+3506299D01*
X-10865832Y+2256421D02*
X-11034168Y+2256421D01*
X-11153199Y+2375452D01*
X-11153199Y+2543788D01*
X-11034168Y+2662819D01*
X-10865832Y+2662819D01*
X-10746801Y+2543788D01*
X-10746801Y+2375452D01*
X-10865832Y+2256421D01*
X-10815032Y+3112399D02*
X-10334475Y+3112399D01*
X-10245202Y+3023126D01*
X-10245202Y+2656874D01*
X-10334475Y+2567601D01*
X-10460727Y+2567601D01*
X-10550000Y+2656874D01*
X-10550000Y+2807601D01*
X-10815032Y+2807601D01*
X-10865832Y+2756801D01*
X-11034168Y+2756801D01*
X-11153199Y+2875832D01*
X-11153199Y+3044168D01*
X-11034168Y+3163199D01*
X-10865832Y+3163199D01*
X-10815032Y+3112399D01*
X-4293601Y+2147601D02*
X-5106399Y+2147601D01*
X-5106399Y+2452399D01*
X-4293601Y+2452399D01*
X-4293601Y+2147601D01*
X-7198999Y+3662259D02*
X-7198999Y+3599395D01*
X-7132153Y+3532549D01*
X-7265847Y+3532549D01*
X-7199001Y+3599395D01*
X-7199001Y+3662261D01*
X-7198999Y+3662259D01*
X-7452999Y+3704605D02*
X-7452999Y+3599395D01*
X-7386153Y+3532549D01*
X-7519847Y+3532549D01*
X-7453001Y+3599395D01*
X-7453001Y+3704605D01*
X-7515847Y+3767451D01*
X-7390153Y+3767451D01*
X-7452999Y+3704605D01*
X-7344679Y+4568320D02*
X-7217680Y+4568320D01*
X-7090681Y+4568320D02*
X-7217680Y+4568320D01*
X-7217680Y+4441321D02*
X-7217680Y+4568320D01*
X-7217680Y+4695319D02*
X-7217680Y+4568320D01*
X-9692999Y+2900000D02*
X-9566000Y+2900000D01*
X-9439001Y+2900000D02*
X-9566000Y+2900000D01*
X-9566000Y+2773001D02*
X-9566000Y+2900000D01*
X-9566000Y+3026999D02*
X-9566000Y+2900000D01*
X-9692999Y+3662000D02*
X-9566000Y+3662000D01*
X-9439001Y+3662000D02*
X-9566000Y+3662000D01*
X-9566000Y+3535001D02*
X-9566000Y+3662000D01*
X-9566000Y+3788999D02*
X-9566000Y+3662000D01*
X-8864999Y+5788000D02*
X-8738000Y+5788000D01*
X-8611001Y+5788000D02*
X-8738000Y+5788000D01*
X-8738000Y+5914999D02*
X-8738000Y+5788000D01*
X-7884999Y+5808000D02*
X-7758000Y+5808000D01*
X-7631001Y+5808000D02*
X-7758000Y+5808000D01*
X-7758000Y+5681001D02*
X-7758000Y+5808000D01*
X-7758000Y+5934999D02*
X-7758000Y+5808000D01*
X-7452999Y+2890000D02*
X-7326000Y+2890000D01*
X-7199001Y+2890000D02*
X-7326000Y+2890000D01*
X-7326000Y+2763001D02*
X-7326000Y+2890000D01*
X-7326000Y+3016999D02*
X-7326000Y+2890000D01*
X-7452999Y+3652000D02*
X-7326000Y+3652000D01*
X-7199001Y+3652000D02*
X-7326000Y+3652000D01*
X-10006399Y+1850000D02*
X-9854000Y+1850000D01*
X-9854000Y+2002399D02*
X-9854000Y+1850000D01*
X-9854000Y+1697601D02*
X-9854000Y+1850000D01*
X-7806399Y+1850000D02*
X-7654000Y+1850000D01*
X-7654000Y+2002399D02*
X-7654000Y+1850000D01*
X-7654000Y+1697601D02*
X-7654000Y+1850000D01*
X-8541599Y+6170000D02*
X-8440000Y+6170000D01*
X-8338401Y+6170000D02*
X-8440000Y+6170000D01*
X-8440000Y+6055701D02*
X-8440000Y+6170000D01*
X-8440000Y+6284299D02*
X-8440000Y+6170000D01*
X-7561599Y+6190000D02*
X-7460000Y+6190000D01*
X-7358401Y+6190000D02*
X-7460000Y+6190000D01*
X-7460000Y+6075701D02*
X-7460000Y+6190000D01*
X-7460000Y+6304299D02*
X-7460000Y+6190000D01*
X-10950000Y+2256421D02*
X-10950000Y+2459620D01*
X-10950000Y+2662819D02*
X-10950000Y+2459620D01*
X-10746801Y+2459620D02*
X-10950000Y+2459620D01*
X-11153199Y+2459620D02*
X-10950000Y+2459620D01*
D16*
X-3810000Y+5250000D03*
D17*
X-3556000Y+5250000D03*
X-3302000Y+5250000D03*
X-3048000Y+5250000D03*
X-2794000Y+5250000D03*
X-2540000Y+5250000D03*
X-2286000Y+5250000D03*
X-2032000Y+5250000D03*
X-2032000Y+6012000D03*
X-2286000Y+6012000D03*
X-2540000Y+6012000D03*
X-2794000Y+6012000D03*
X-3048000Y+6012000D03*
X-3302000Y+6012000D03*
D18*
X-3556000Y+6012000D03*
X-3810000Y+6012000D03*
D19*
X-8741680Y+4568320D03*
D17*
X-8487680Y+4568320D03*
X-8233680Y+4568320D03*
X-7979680Y+4568320D03*
X-7725680Y+4568320D03*
X-7471680Y+4568320D03*
X-7217680Y+4568320D03*
X-7217680Y+5330320D03*
X-7471680Y+5330320D03*
X-7725680Y+5330320D03*
X-7979680Y+5330320D03*
X-8233680Y+5330320D03*
X-8487680Y+5330320D03*
X-8741680Y+5330320D03*
D16*
X-9820000Y+2900000D03*
D17*
X-9566000Y+2900000D03*
X-9312000Y+2900000D03*
X-9058000Y+2900000D03*
X-8804000Y+2900000D03*
X-8550000Y+2900000D03*
X-8296000Y+2900000D03*
X-8296000Y+3662000D03*
X-8550000Y+3662000D03*
X-8804000Y+3662000D03*
X-9058000Y+3662000D03*
X-9312000Y+3662000D03*
X-9566000Y+3662000D03*
X-9820000Y+3662000D03*
D16*
X-8230000Y+6550000D03*
D17*
X-8484000Y+6550000D03*
X-8738000Y+6550000D03*
X-8738000Y+5788000D03*
X-8484000Y+5788000D03*
X-8230000Y+5788000D03*
D19*
X-7250000Y+6570000D03*
D17*
X-7504000Y+6570000D03*
D18*
X-7758000Y+6570000D03*
D17*
X-7758000Y+5808000D03*
X-7504000Y+5808000D03*
X-7250000Y+5808000D03*
D16*
X-7580000Y+2890000D03*
D17*
X-7326000Y+2890000D03*
X-7072000Y+2890000D03*
X-6818000Y+2890000D03*
X-6564000Y+2890000D03*
X-6310000Y+2890000D03*
X-6056000Y+2890000D03*
X-6056000Y+3652000D03*
X-6310000Y+3652000D03*
X-6564000Y+3652000D03*
X-6818000Y+3652000D03*
X-7072000Y+3652000D03*
X-7326000Y+3652000D03*
X-7580000Y+3652000D03*
D21*
X-8246000Y+1850000D03*
X-8500000Y+1850000D03*
X-8754000Y+1850000D03*
X-9346000Y+1850000D03*
X-9600000Y+1850000D03*
X-9854000Y+1850000D03*
X-7146000Y+1850000D03*
X-7400000Y+1850000D03*
X-7654000Y+1850000D03*
X-6046000Y+1850000D03*
X-6300000Y+1850000D03*
X-6554000Y+1850000D03*
D22*
X-3285659Y+3755601D03*
X-3285659Y+4263601D03*
D70*
X-8290000Y+2543360D03*
X-8290000Y+2330000D03*
X-6050000Y+2500000D03*
X-6050000Y+2286640D03*
X-2885725Y+3543481D03*
X-2885725Y+3756841D03*
X-2899159Y+4476961D03*
X-2899159Y+4263601D03*
X-3700000Y+3955601D03*
X-3700000Y+4168961D03*
D73*
X-6900000Y+2400000D03*
X-6478360Y+2400000D03*
X-9150000Y+2400000D03*
X-8728360Y+2400000D03*
D20*
X-8713360Y+5550000D03*
X-8500000Y+5550000D03*
D70*
X-8740000Y+5050000D03*
X-8740000Y+4836640D03*
D23*
X-10950000Y+1950380D03*
X-10950000Y+1450000D03*
D20*
X-8226640Y+6170000D03*
X-8440000Y+6170000D03*
X-7246640Y+6190000D03*
X-7460000Y+6190000D03*
D24*
X-10260000Y+1800000D03*
X-10410000Y+1950000D03*
D25*
X-2450000Y+2749929D03*
X-2450000Y+2250000D03*
D28*
X-3300000Y+1610000D03*
X-3046000Y+1610000D03*
X-2792000Y+1610000D03*
X-2538000Y+1610000D03*
X-2284000Y+1610000D03*
X-2030000Y+1610000D03*
X-5590000Y+1610000D03*
X-5336000Y+1610000D03*
X-5082000Y+1610000D03*
X-4828000Y+1610000D03*
X-4574000Y+1610000D03*
X-4320000Y+1610000D03*
X-4066000Y+1610000D03*
X-3812000Y+1610000D03*
X-3810000Y+6440000D03*
X-3556000Y+6440000D03*
X-3302000Y+6440000D03*
X-3048000Y+6440000D03*
X-2794000Y+6440000D03*
X-2540000Y+6440000D03*
X-2286000Y+6440000D03*
X-2032000Y+6440000D03*
X-6500000Y+6440000D03*
X-6246000Y+6440000D03*
X-5992000Y+6440000D03*
X-5738000Y+6440000D03*
X-5484000Y+6440000D03*
X-5230000Y+6440000D03*
X-4976000Y+6440000D03*
X-4722000Y+6440000D03*
X-4468000Y+6440000D03*
X-4214000Y+6440000D03*
D25*
X-2450380Y+3249620D03*
D19*
X-4850000Y+4662000D03*
D18*
X-4850000Y+4408000D03*
X-4850000Y+4154000D03*
X-4850000Y+3900000D03*
X-4850000Y+3646000D03*
X-4850000Y+3392000D03*
D17*
X-4850000Y+3138000D03*
D18*
X-4088000Y+3138000D03*
X-4088000Y+3392000D03*
D17*
X-4088000Y+3646000D03*
X-4088000Y+3900000D03*
D18*
X-4088000Y+4154000D03*
X-4088000Y+4408000D03*
D17*
X-4088000Y+4662000D03*
D25*
X-4720000Y+6090000D03*
X-4460000Y+6080000D03*
X-4200000Y+6080000D03*
D23*
X-10950000Y+2459620D03*
X-10950000Y+2960000D03*
D24*
X-10397601Y+2960000D03*
X-10397601Y+2720000D03*
D23*
X-1890000Y+2750000D03*
X-1890000Y+2249620D03*
X-1890000Y+4770000D03*
X-1890000Y+4269620D03*
X-1890000Y+3250000D03*
X-1890000Y+3750380D03*
D25*
X-2450000Y+3750000D03*
D21*
X-4446000Y+2300000D03*
X-4700000Y+2300000D03*
X-4954000Y+2300000D03*
D29*
X-11303600Y+6940000D02*
X-1902000Y+6940000D01*
X-1800400Y+1120000D02*
X-11303600Y+1120000D01*
X-1902000Y+6940000D02*
X-1775000Y+6813000D01*
X-1775000Y+5420000D02*
X-1521000Y+5166000D01*
X-1521000Y+1864000D01*
X-1775000Y+1610000D02*
X-1521000Y+1864000D01*
X-1775000Y+6813000D02*
X-1775000Y+5420000D01*
X-1775000Y+1610000D02*
X-1775000Y+1150000D01*
X-1775000Y+1145400D02*
X-1800400Y+1120000D01*
X-11330959Y+6914600D02*
X-11330959Y+1150000D01*
X-11305559Y+6940000D02*
X-11330959Y+6914600D01*
X-11330959Y+1145400D02*
X-11305559Y+1120000D01*
M02*
