G04 PROTEUS GERBER X2 FILE*
%TF.GenerationSoftware,Labcenter,Proteus,8.6-SP2-Build23525*%
%TF.CreationDate,2019-07-10T19:11:28+00:00*%
%TF.FileFunction,Legend,Top*%
%TF.FilePolarity,Positive*%
%TF.Part,Single*%
%FSLAX45Y45*%
%MOMM*%
G01*
%TA.AperFunction,Profile*%
%ADD29C,0.203200*%
%TA.AperFunction,Material*%
%ADD30C,0.203200*%
%TA.AperFunction,NonMaterial*%
%ADD31C,0.203200*%
%TD.AperFunction*%
D29*
X-11303600Y+6940000D02*
X-1902000Y+6940000D01*
X-1800400Y+1120000D02*
X-11303600Y+1120000D01*
X-1902000Y+6940000D02*
X-1775000Y+6813000D01*
X-1775000Y+5420000D02*
X-1521000Y+5166000D01*
X-1521000Y+1864000D01*
X-1775000Y+1610000D02*
X-1521000Y+1864000D01*
X-1775000Y+6813000D02*
X-1775000Y+5420000D01*
X-1775000Y+1610000D02*
X-1775000Y+1150000D01*
X-1775000Y+1145400D02*
X-1800400Y+1120000D01*
X-11330959Y+6914600D02*
X-11330959Y+1150000D01*
X-11305559Y+6940000D02*
X-11330959Y+6914600D01*
X-11330959Y+1145400D02*
X-11305559Y+1120000D01*
D30*
X-3937000Y+5377000D02*
X-3937000Y+5504000D01*
X-3810000Y+5631000D02*
X-3812436Y+5656876D01*
X-3819485Y+5680848D01*
X-3830762Y+5702438D01*
X-3845878Y+5721170D01*
X-3864446Y+5736569D01*
X-3886081Y+5748158D01*
X-3910394Y+5755460D01*
X-3937000Y+5758000D01*
X-3810000Y+5631000D02*
X-3812436Y+5604394D01*
X-3819485Y+5580081D01*
X-3830762Y+5558446D01*
X-3845878Y+5539878D01*
X-3864446Y+5524762D01*
X-3886081Y+5513485D01*
X-3910394Y+5506436D01*
X-3937000Y+5504000D01*
X-3937000Y+5758000D02*
X-3937000Y+5885000D01*
X-1905000Y+5377000D02*
X-1905000Y+5885000D01*
X-3937000Y+5377000D02*
X-1905000Y+5377000D01*
X-1905000Y+5885000D02*
X-3937000Y+5885000D01*
X-4069080Y+5440500D02*
X-3992880Y+5440500D01*
X-3977640Y+5456375D01*
X-3977640Y+5519875D01*
X-3992880Y+5535750D01*
X-4069080Y+5535750D01*
X-4038600Y+5599250D02*
X-4069080Y+5631000D01*
X-3977640Y+5631000D01*
X-3992880Y+5694500D02*
X-4053840Y+5694500D01*
X-4069080Y+5710375D01*
X-4069080Y+5773875D01*
X-4053840Y+5789750D01*
X-3992880Y+5789750D01*
X-3977640Y+5773875D01*
X-3977640Y+5710375D01*
X-3992880Y+5694500D01*
X-3977640Y+5694500D02*
X-4069080Y+5789750D01*
D31*
X-11100000Y+750000D02*
X-1500000Y+750000D01*
X-11100000Y+750000D02*
X-10973000Y+623000D01*
X-11100000Y+750000D02*
X-10973000Y+877000D01*
X-1500000Y+750000D02*
X-1627000Y+877000D01*
X-1500000Y+750000D02*
X-1627000Y+623000D01*
X-6268250Y+750000D02*
X-6268359Y+752634D01*
X-6269249Y+757903D01*
X-6271111Y+763172D01*
X-6274154Y+768441D01*
X-6278809Y+773643D01*
X-6284078Y+777469D01*
X-6289347Y+779909D01*
X-6294616Y+781290D01*
X-6299885Y+781750D01*
X-6300000Y+781750D01*
X-6331750Y+750000D02*
X-6331641Y+752634D01*
X-6330751Y+757903D01*
X-6328889Y+763172D01*
X-6325846Y+768441D01*
X-6321191Y+773643D01*
X-6315922Y+777469D01*
X-6310653Y+779909D01*
X-6305384Y+781290D01*
X-6300115Y+781750D01*
X-6300000Y+781750D01*
X-6331750Y+750000D02*
X-6331641Y+747366D01*
X-6330751Y+742097D01*
X-6328889Y+736828D01*
X-6325846Y+731559D01*
X-6321191Y+726357D01*
X-6315922Y+722531D01*
X-6310653Y+720091D01*
X-6305384Y+718710D01*
X-6300115Y+718250D01*
X-6300000Y+718250D01*
X-6268250Y+750000D02*
X-6268359Y+747366D01*
X-6269249Y+742097D01*
X-6271111Y+736828D01*
X-6274154Y+731559D01*
X-6278809Y+726357D01*
X-6284078Y+722531D01*
X-6289347Y+720091D01*
X-6294616Y+718710D01*
X-6299885Y+718250D01*
X-6300000Y+718250D01*
X-6458750Y+851600D02*
X-6474625Y+836360D01*
X-6522250Y+836360D01*
X-6538125Y+851600D01*
X-6538125Y+866840D01*
X-6522250Y+882080D01*
X-6474625Y+882080D01*
X-6458750Y+866840D01*
X-6458750Y+805880D01*
X-6474625Y+790640D01*
X-6522250Y+790640D01*
X-6331750Y+866840D02*
X-6347625Y+882080D01*
X-6395250Y+882080D01*
X-6411125Y+866840D01*
X-6411125Y+805880D01*
X-6395250Y+790640D01*
X-6347625Y+790640D01*
X-6331750Y+805880D01*
X-6331750Y+821120D01*
X-6347625Y+836360D01*
X-6411125Y+836360D01*
X-6300000Y+790640D02*
X-6300000Y+851600D01*
X-6300000Y+836360D02*
X-6284125Y+851600D01*
X-6252375Y+821120D01*
X-6220625Y+851600D01*
X-6204750Y+836360D01*
X-6204750Y+790640D01*
X-6173000Y+790640D02*
X-6173000Y+851600D01*
X-6173000Y+836360D02*
X-6157125Y+851600D01*
X-6125375Y+821120D01*
X-6093625Y+851600D01*
X-6077750Y+836360D01*
X-6077750Y+790640D01*
D30*
X-8868680Y+5076320D02*
X-8868680Y+5203320D01*
X-8868680Y+4695320D02*
X-8868680Y+4822320D01*
X-8741680Y+4949320D02*
X-8744116Y+4975196D01*
X-8751165Y+4999168D01*
X-8762442Y+5020758D01*
X-8777558Y+5039490D01*
X-8796126Y+5054889D01*
X-8817761Y+5066478D01*
X-8842074Y+5073780D01*
X-8868680Y+5076320D01*
X-8741680Y+4949320D02*
X-8744116Y+4922714D01*
X-8751165Y+4898401D01*
X-8762442Y+4876766D01*
X-8777558Y+4858198D01*
X-8796126Y+4843082D01*
X-8817761Y+4831805D01*
X-8842074Y+4824756D01*
X-8868680Y+4822320D01*
X-8868680Y+4695320D02*
X-7090680Y+4695320D01*
X-7090680Y+5203320D01*
X-8868680Y+5203320D01*
X-9000760Y+4822320D02*
X-8924560Y+4822320D01*
X-8909320Y+4838195D01*
X-8909320Y+4901695D01*
X-8924560Y+4917570D01*
X-9000760Y+4917570D01*
X-8970280Y+5044570D02*
X-8955040Y+5028695D01*
X-8955040Y+4981070D01*
X-8970280Y+4965195D01*
X-8985520Y+4965195D01*
X-9000760Y+4981070D01*
X-9000760Y+5028695D01*
X-8985520Y+5044570D01*
X-8924560Y+5044570D01*
X-8909320Y+5028695D01*
X-8909320Y+4981070D01*
X-9947000Y+3408000D02*
X-9947000Y+3535000D01*
X-9947000Y+3027000D02*
X-9947000Y+3154000D01*
X-9820000Y+3281000D02*
X-9822436Y+3306876D01*
X-9829485Y+3330848D01*
X-9840762Y+3352438D01*
X-9855878Y+3371170D01*
X-9874446Y+3386569D01*
X-9896081Y+3398158D01*
X-9920394Y+3405460D01*
X-9947000Y+3408000D01*
X-9820000Y+3281000D02*
X-9822436Y+3254394D01*
X-9829485Y+3230081D01*
X-9840762Y+3208446D01*
X-9855878Y+3189878D01*
X-9874446Y+3174762D01*
X-9896081Y+3163485D01*
X-9920394Y+3156436D01*
X-9947000Y+3154000D01*
X-9947000Y+3027000D02*
X-8169000Y+3027000D01*
X-8169000Y+3535000D01*
X-9947000Y+3535000D01*
X-10079080Y+3154000D02*
X-10002880Y+3154000D01*
X-9987640Y+3169875D01*
X-9987640Y+3233375D01*
X-10002880Y+3249250D01*
X-10079080Y+3249250D01*
X-10048600Y+3312750D02*
X-10079080Y+3344500D01*
X-9987640Y+3344500D01*
X-8103000Y+6423000D02*
X-8103000Y+6296000D01*
X-8230000Y+6169000D02*
X-8227564Y+6143124D01*
X-8220515Y+6119152D01*
X-8209238Y+6097562D01*
X-8194122Y+6078830D01*
X-8175554Y+6063431D01*
X-8153919Y+6051842D01*
X-8129606Y+6044540D01*
X-8103000Y+6042000D01*
X-8230000Y+6169000D02*
X-8227564Y+6195606D01*
X-8220515Y+6219919D01*
X-8209238Y+6241554D01*
X-8194122Y+6260122D01*
X-8175554Y+6275238D01*
X-8153919Y+6286515D01*
X-8129606Y+6293564D01*
X-8103000Y+6296000D01*
X-8103000Y+6042000D02*
X-8103000Y+5915000D01*
X-8865000Y+6423000D02*
X-8865000Y+5915000D01*
X-8103000Y+6423000D02*
X-8865000Y+6423000D01*
X-8103000Y+5915000D02*
X-8865000Y+5915000D01*
X-8982360Y+6072000D02*
X-8906160Y+6072000D01*
X-8890920Y+6087875D01*
X-8890920Y+6151375D01*
X-8906160Y+6167250D01*
X-8982360Y+6167250D01*
X-8982360Y+6214875D02*
X-8982360Y+6294250D01*
X-8967120Y+6294250D01*
X-8890920Y+6214875D01*
X-7123000Y+6443000D02*
X-7123000Y+6316000D01*
X-7250000Y+6189000D02*
X-7247564Y+6163124D01*
X-7240515Y+6139152D01*
X-7229238Y+6117562D01*
X-7214122Y+6098830D01*
X-7195554Y+6083431D01*
X-7173919Y+6071842D01*
X-7149606Y+6064540D01*
X-7123000Y+6062000D01*
X-7250000Y+6189000D02*
X-7247564Y+6215606D01*
X-7240515Y+6239919D01*
X-7229238Y+6261554D01*
X-7214122Y+6280122D01*
X-7195554Y+6295238D01*
X-7173919Y+6306515D01*
X-7149606Y+6313564D01*
X-7123000Y+6316000D01*
X-7123000Y+6062000D02*
X-7123000Y+5935000D01*
X-7885000Y+6443000D02*
X-7885000Y+5935000D01*
X-7123000Y+6443000D02*
X-7885000Y+6443000D01*
X-7123000Y+5935000D02*
X-7885000Y+5935000D01*
X-8001685Y+6085612D02*
X-7925485Y+6085612D01*
X-7910245Y+6101487D01*
X-7910245Y+6164987D01*
X-7925485Y+6180862D01*
X-8001685Y+6180862D01*
X-7955965Y+6244362D02*
X-7971205Y+6228487D01*
X-7986445Y+6228487D01*
X-8001685Y+6244362D01*
X-8001685Y+6291987D01*
X-7986445Y+6307862D01*
X-7971205Y+6307862D01*
X-7955965Y+6291987D01*
X-7955965Y+6244362D01*
X-7940725Y+6228487D01*
X-7925485Y+6228487D01*
X-7910245Y+6244362D01*
X-7910245Y+6291987D01*
X-7925485Y+6307862D01*
X-7940725Y+6307862D01*
X-7955965Y+6291987D01*
X-4911580Y+6026340D02*
X-4911580Y+5957760D01*
X-5033500Y+6026340D02*
X-5033500Y+5955220D01*
X-4924420Y+5401500D02*
X-5015860Y+5401500D01*
X-5015860Y+5480875D01*
X-5000620Y+5496750D01*
X-4985380Y+5496750D01*
X-4970140Y+5480875D01*
X-4970140Y+5401500D01*
X-4970140Y+5480875D02*
X-4954900Y+5496750D01*
X-4924420Y+5496750D01*
X-4985380Y+5560250D02*
X-5015860Y+5592000D01*
X-4924420Y+5592000D01*
X-4985380Y+5750750D02*
X-4970140Y+5734875D01*
X-4970140Y+5687250D01*
X-4985380Y+5671375D01*
X-5000620Y+5671375D01*
X-5015860Y+5687250D01*
X-5015860Y+5734875D01*
X-5000620Y+5750750D01*
X-4939660Y+5750750D01*
X-4924420Y+5734875D01*
X-4924420Y+5687250D01*
X-5171580Y+6026340D02*
X-5171580Y+5957760D01*
X-5293500Y+6026340D02*
X-5293500Y+5955220D01*
X-5184420Y+5401500D02*
X-5275860Y+5401500D01*
X-5275860Y+5480875D01*
X-5260620Y+5496750D01*
X-5245380Y+5496750D01*
X-5230140Y+5480875D01*
X-5230140Y+5401500D01*
X-5230140Y+5480875D02*
X-5214900Y+5496750D01*
X-5184420Y+5496750D01*
X-5260620Y+5544375D02*
X-5275860Y+5560250D01*
X-5275860Y+5607875D01*
X-5260620Y+5623750D01*
X-5245380Y+5623750D01*
X-5230140Y+5607875D01*
X-5230140Y+5560250D01*
X-5214900Y+5544375D01*
X-5184420Y+5544375D01*
X-5184420Y+5623750D01*
X-5199660Y+5655500D02*
X-5260620Y+5655500D01*
X-5275860Y+5671375D01*
X-5275860Y+5734875D01*
X-5260620Y+5750750D01*
X-5199660Y+5750750D01*
X-5184420Y+5734875D01*
X-5184420Y+5671375D01*
X-5199660Y+5655500D01*
X-5184420Y+5655500D02*
X-5275860Y+5750750D01*
X-7707000Y+3398000D02*
X-7707000Y+3525000D01*
X-7707000Y+3017000D02*
X-7707000Y+3144000D01*
X-7580000Y+3271000D02*
X-7582436Y+3296876D01*
X-7589485Y+3320848D01*
X-7600762Y+3342438D01*
X-7615878Y+3361170D01*
X-7634446Y+3376569D01*
X-7656081Y+3388158D01*
X-7680394Y+3395460D01*
X-7707000Y+3398000D01*
X-7580000Y+3271000D02*
X-7582436Y+3244394D01*
X-7589485Y+3220081D01*
X-7600762Y+3198446D01*
X-7615878Y+3179878D01*
X-7634446Y+3164762D01*
X-7656081Y+3153485D01*
X-7680394Y+3146436D01*
X-7707000Y+3144000D01*
X-7707000Y+3017000D02*
X-5929000Y+3017000D01*
X-5929000Y+3525000D01*
X-7707000Y+3525000D01*
X-7839080Y+3144000D02*
X-7762880Y+3144000D01*
X-7747640Y+3159875D01*
X-7747640Y+3223375D01*
X-7762880Y+3239250D01*
X-7839080Y+3239250D01*
X-7823840Y+3286875D02*
X-7839080Y+3302750D01*
X-7839080Y+3350375D01*
X-7823840Y+3366250D01*
X-7808600Y+3366250D01*
X-7793360Y+3350375D01*
X-7793360Y+3302750D01*
X-7778120Y+3286875D01*
X-7747640Y+3286875D01*
X-7747640Y+3366250D01*
X-5485180Y+4008400D02*
X-5485180Y+3830600D01*
X-5967780Y+3830600D01*
X-6018580Y+3881400D01*
X-6018580Y+4008400D01*
X-6018580Y+4211600D02*
X-6018580Y+4338600D01*
X-5967780Y+4389400D01*
X-5485180Y+4389400D01*
X-5485180Y+4211600D01*
X-6043980Y+4262400D02*
X-6094780Y+4262400D01*
X-6069380Y+4237000D02*
X-6069380Y+4287800D01*
X-5291720Y+4088250D02*
X-5276480Y+4072375D01*
X-5276480Y+4024750D01*
X-5306960Y+3993000D01*
X-5337440Y+3993000D01*
X-5367920Y+4024750D01*
X-5367920Y+4072375D01*
X-5352680Y+4088250D01*
X-5337440Y+4151750D02*
X-5367920Y+4183500D01*
X-5276480Y+4183500D01*
X-6373660Y+4041580D02*
X-6442240Y+4041580D01*
X-6373660Y+4163500D02*
X-6444780Y+4163500D01*
X-6448750Y+3896160D02*
X-6464625Y+3880920D01*
X-6512250Y+3880920D01*
X-6544000Y+3911400D01*
X-6544000Y+3941880D01*
X-6512250Y+3972360D01*
X-6464625Y+3972360D01*
X-6448750Y+3957120D01*
X-6401125Y+3957120D02*
X-6385250Y+3972360D01*
X-6337625Y+3972360D01*
X-6321750Y+3957120D01*
X-6321750Y+3941880D01*
X-6337625Y+3926640D01*
X-6385250Y+3926640D01*
X-6401125Y+3911400D01*
X-6401125Y+3880920D01*
X-6321750Y+3880920D01*
X-6591580Y+5029700D02*
X-6591580Y+4961120D01*
X-6713500Y+5029700D02*
X-6713500Y+4958580D01*
X-6764420Y+4814860D02*
X-6855860Y+4814860D01*
X-6855860Y+4894235D01*
X-6840620Y+4910110D01*
X-6825380Y+4910110D01*
X-6810140Y+4894235D01*
X-6810140Y+4814860D01*
X-6810140Y+4894235D02*
X-6794900Y+4910110D01*
X-6764420Y+4910110D01*
X-6825380Y+4973610D02*
X-6855860Y+5005360D01*
X-6764420Y+5005360D01*
X-6840620Y+5164110D02*
X-6855860Y+5148235D01*
X-6855860Y+5100610D01*
X-6840620Y+5084735D01*
X-6779660Y+5084735D01*
X-6764420Y+5100610D01*
X-6764420Y+5148235D01*
X-6779660Y+5164110D01*
X-6794900Y+5164110D01*
X-6810140Y+5148235D01*
X-6810140Y+5084735D01*
X-6141580Y+5026340D02*
X-6141580Y+4957760D01*
X-6263500Y+5026340D02*
X-6263500Y+4955220D01*
X-6314420Y+4811500D02*
X-6405860Y+4811500D01*
X-6405860Y+4890875D01*
X-6390620Y+4906750D01*
X-6375380Y+4906750D01*
X-6360140Y+4890875D01*
X-6360140Y+4811500D01*
X-6360140Y+4890875D02*
X-6344900Y+4906750D01*
X-6314420Y+4906750D01*
X-6375380Y+4970250D02*
X-6405860Y+5002000D01*
X-6314420Y+5002000D01*
X-6405860Y+5160750D02*
X-6405860Y+5081375D01*
X-6375380Y+5081375D01*
X-6375380Y+5144875D01*
X-6360140Y+5160750D01*
X-6329660Y+5160750D01*
X-6314420Y+5144875D01*
X-6314420Y+5097250D01*
X-6329660Y+5081375D01*
X-8881000Y+1723000D02*
X-8119000Y+1723000D01*
X-8119000Y+1977000D01*
X-8881000Y+1977000D01*
X-8881000Y+1723000D01*
X-8119000Y+1723000D02*
X-8119000Y+1596000D01*
X-8881000Y+1596000D01*
X-8881000Y+1723000D01*
X-8119000Y+1723000D02*
X-8246000Y+1596000D01*
X-8246000Y+1723000D02*
X-8373000Y+1596000D01*
X-8373000Y+1723000D02*
X-8500000Y+1596000D01*
X-8500000Y+1723000D02*
X-8627000Y+1596000D01*
X-8627000Y+1723000D02*
X-8754000Y+1596000D01*
X-8754000Y+1723000D02*
X-8881000Y+1596000D01*
X-8627000Y+1524880D02*
X-8595250Y+1555360D01*
X-8563500Y+1555360D01*
X-8531750Y+1524880D01*
X-8531750Y+1494400D01*
X-8563500Y+1463920D01*
X-8595250Y+1463920D01*
X-8627000Y+1494400D01*
X-8627000Y+1524880D01*
X-8563500Y+1494400D02*
X-8531750Y+1463920D01*
X-8468250Y+1524880D02*
X-8436500Y+1555360D01*
X-8436500Y+1463920D01*
X-9981000Y+1723000D02*
X-9219000Y+1723000D01*
X-9219000Y+1977000D01*
X-9981000Y+1977000D01*
X-9981000Y+1723000D01*
X-9219000Y+1723000D02*
X-9219000Y+1596000D01*
X-9981000Y+1596000D01*
X-9981000Y+1723000D01*
X-9219000Y+1723000D02*
X-9346000Y+1596000D01*
X-9346000Y+1723000D02*
X-9473000Y+1596000D01*
X-9473000Y+1723000D02*
X-9600000Y+1596000D01*
X-9600000Y+1723000D02*
X-9727000Y+1596000D01*
X-9727000Y+1723000D02*
X-9854000Y+1596000D01*
X-9854000Y+1723000D02*
X-9981000Y+1596000D01*
X-9727000Y+1524880D02*
X-9695250Y+1555360D01*
X-9663500Y+1555360D01*
X-9631750Y+1524880D01*
X-9631750Y+1494400D01*
X-9663500Y+1463920D01*
X-9695250Y+1463920D01*
X-9727000Y+1494400D01*
X-9727000Y+1524880D01*
X-9663500Y+1494400D02*
X-9631750Y+1463920D01*
X-9584125Y+1540120D02*
X-9568250Y+1555360D01*
X-9520625Y+1555360D01*
X-9504750Y+1540120D01*
X-9504750Y+1524880D01*
X-9520625Y+1509640D01*
X-9568250Y+1509640D01*
X-9584125Y+1494400D01*
X-9584125Y+1463920D01*
X-9504750Y+1463920D01*
X-7781000Y+1723000D02*
X-7019000Y+1723000D01*
X-7019000Y+1977000D01*
X-7781000Y+1977000D01*
X-7781000Y+1723000D01*
X-7019000Y+1723000D02*
X-7019000Y+1596000D01*
X-7781000Y+1596000D01*
X-7781000Y+1723000D01*
X-7019000Y+1723000D02*
X-7146000Y+1596000D01*
X-7146000Y+1723000D02*
X-7273000Y+1596000D01*
X-7273000Y+1723000D02*
X-7400000Y+1596000D01*
X-7400000Y+1723000D02*
X-7527000Y+1596000D01*
X-7527000Y+1723000D02*
X-7654000Y+1596000D01*
X-7654000Y+1723000D02*
X-7781000Y+1596000D01*
X-7527000Y+1524880D02*
X-7495250Y+1555360D01*
X-7463500Y+1555360D01*
X-7431750Y+1524880D01*
X-7431750Y+1494400D01*
X-7463500Y+1463920D01*
X-7495250Y+1463920D01*
X-7527000Y+1494400D01*
X-7527000Y+1524880D01*
X-7463500Y+1494400D02*
X-7431750Y+1463920D01*
X-7384125Y+1540120D02*
X-7368250Y+1555360D01*
X-7320625Y+1555360D01*
X-7304750Y+1540120D01*
X-7304750Y+1524880D01*
X-7320625Y+1509640D01*
X-7304750Y+1494400D01*
X-7304750Y+1479160D01*
X-7320625Y+1463920D01*
X-7368250Y+1463920D01*
X-7384125Y+1479160D01*
X-7352375Y+1509640D02*
X-7320625Y+1509640D01*
X-6681000Y+1723000D02*
X-5919000Y+1723000D01*
X-5919000Y+1977000D01*
X-6681000Y+1977000D01*
X-6681000Y+1723000D01*
X-5919000Y+1723000D02*
X-5919000Y+1596000D01*
X-6681000Y+1596000D01*
X-6681000Y+1723000D01*
X-5919000Y+1723000D02*
X-6046000Y+1596000D01*
X-6046000Y+1723000D02*
X-6173000Y+1596000D01*
X-6173000Y+1723000D02*
X-6300000Y+1596000D01*
X-6300000Y+1723000D02*
X-6427000Y+1596000D01*
X-6427000Y+1723000D02*
X-6554000Y+1596000D01*
X-6554000Y+1723000D02*
X-6681000Y+1596000D01*
X-6177000Y+1524880D02*
X-6145250Y+1555360D01*
X-6113500Y+1555360D01*
X-6081750Y+1524880D01*
X-6081750Y+1494400D01*
X-6113500Y+1463920D01*
X-6145250Y+1463920D01*
X-6177000Y+1494400D01*
X-6177000Y+1524880D01*
X-6113500Y+1494400D02*
X-6081750Y+1463920D01*
X-5954750Y+1494400D02*
X-6050000Y+1494400D01*
X-5986500Y+1555360D01*
X-5986500Y+1463920D01*
X-3539659Y+3628601D02*
X-3539659Y+4390601D01*
X-3412659Y+4517601D01*
X-3158659Y+4517601D01*
X-3031659Y+4390601D01*
X-3031659Y+3628601D01*
X-3158659Y+3501601D01*
X-3412659Y+3501601D01*
X-3539659Y+3628601D01*
X-3691739Y+3902601D02*
X-3600299Y+3997851D01*
X-3600299Y+3902601D02*
X-3691739Y+3997851D01*
X-3661259Y+4061351D02*
X-3691739Y+4093101D01*
X-3600299Y+4093101D01*
X-7091580Y+2439700D02*
X-7091580Y+2371120D01*
X-7213500Y+2439700D02*
X-7213500Y+2368580D01*
X-6917420Y+2291360D02*
X-7008860Y+2291360D01*
X-7008860Y+2370735D01*
X-6993620Y+2386610D01*
X-6978380Y+2386610D01*
X-6963140Y+2370735D01*
X-6963140Y+2291360D01*
X-6963140Y+2370735D02*
X-6947900Y+2386610D01*
X-6917420Y+2386610D01*
X-6993620Y+2434235D02*
X-7008860Y+2450110D01*
X-7008860Y+2497735D01*
X-6993620Y+2513610D01*
X-6978380Y+2513610D01*
X-6963140Y+2497735D01*
X-6947900Y+2513610D01*
X-6932660Y+2513610D01*
X-6917420Y+2497735D01*
X-6917420Y+2450110D01*
X-6932660Y+2434235D01*
X-6963140Y+2465985D02*
X-6963140Y+2497735D01*
X-9291580Y+2436340D02*
X-9291580Y+2367760D01*
X-9413500Y+2436340D02*
X-9413500Y+2365220D01*
X-9122021Y+2275000D02*
X-9213461Y+2275000D01*
X-9213461Y+2354375D01*
X-9198221Y+2370250D01*
X-9182981Y+2370250D01*
X-9167741Y+2354375D01*
X-9167741Y+2275000D01*
X-9167741Y+2354375D02*
X-9152501Y+2370250D01*
X-9122021Y+2370250D01*
X-9198221Y+2417875D02*
X-9213461Y+2433750D01*
X-9213461Y+2481375D01*
X-9198221Y+2497250D01*
X-9182981Y+2497250D01*
X-9167741Y+2481375D01*
X-9167741Y+2433750D01*
X-9152501Y+2417875D01*
X-9122021Y+2417875D01*
X-9122021Y+2497250D01*
X-8660300Y+2341580D02*
X-8728880Y+2341580D01*
X-8660300Y+2463500D02*
X-8731420Y+2463500D01*
X-8725390Y+2216160D02*
X-8741265Y+2200920D01*
X-8788890Y+2200920D01*
X-8820640Y+2231400D01*
X-8820640Y+2261880D01*
X-8788890Y+2292360D01*
X-8741265Y+2292360D01*
X-8725390Y+2277120D01*
X-8677765Y+2277120D02*
X-8661890Y+2292360D01*
X-8614265Y+2292360D01*
X-8598390Y+2277120D01*
X-8598390Y+2261880D01*
X-8614265Y+2246640D01*
X-8598390Y+2231400D01*
X-8598390Y+2216160D01*
X-8614265Y+2200920D01*
X-8661890Y+2200920D01*
X-8677765Y+2216160D01*
X-8646015Y+2246640D02*
X-8614265Y+2246640D01*
X-6423660Y+2341580D02*
X-6492240Y+2341580D01*
X-6423660Y+2463500D02*
X-6494780Y+2463500D01*
X-6483750Y+2221160D02*
X-6499625Y+2205920D01*
X-6547250Y+2205920D01*
X-6579000Y+2236400D01*
X-6579000Y+2266880D01*
X-6547250Y+2297360D01*
X-6499625Y+2297360D01*
X-6483750Y+2282120D01*
X-6436125Y+2297360D02*
X-6356750Y+2297360D01*
X-6356750Y+2282120D01*
X-6436125Y+2205920D01*
X-7685180Y+2298400D02*
X-7685180Y+2120600D01*
X-8167780Y+2120600D01*
X-8218580Y+2171400D01*
X-8218580Y+2298400D01*
X-8218580Y+2501600D02*
X-8218580Y+2628600D01*
X-8167780Y+2679400D01*
X-7685180Y+2679400D01*
X-7685180Y+2501600D01*
X-8243980Y+2552400D02*
X-8294780Y+2552400D01*
X-8269380Y+2527000D02*
X-8269380Y+2577800D01*
X-7508505Y+2366868D02*
X-7493265Y+2350993D01*
X-7493265Y+2303368D01*
X-7523745Y+2271618D01*
X-7554225Y+2271618D01*
X-7584705Y+2303368D01*
X-7584705Y+2350993D01*
X-7569465Y+2366868D01*
X-7523745Y+2493868D02*
X-7523745Y+2398618D01*
X-7584705Y+2462118D01*
X-7493265Y+2462118D01*
X-5485180Y+2298400D02*
X-5485180Y+2120600D01*
X-5967780Y+2120600D01*
X-6018580Y+2171400D01*
X-6018580Y+2298400D01*
X-6018580Y+2501600D02*
X-6018580Y+2628600D01*
X-5967780Y+2679400D01*
X-5485180Y+2679400D01*
X-5485180Y+2501600D01*
X-6043980Y+2552400D02*
X-6094780Y+2552400D01*
X-6069380Y+2527000D02*
X-6069380Y+2577800D01*
X-5306500Y+2361552D02*
X-5291260Y+2345677D01*
X-5291260Y+2298052D01*
X-5321740Y+2266302D01*
X-5352220Y+2266302D01*
X-5382700Y+2298052D01*
X-5382700Y+2345677D01*
X-5367460Y+2361552D01*
X-5336980Y+2425052D02*
X-5352220Y+2409177D01*
X-5367460Y+2409177D01*
X-5382700Y+2425052D01*
X-5382700Y+2472677D01*
X-5367460Y+2488552D01*
X-5352220Y+2488552D01*
X-5336980Y+2472677D01*
X-5336980Y+2425052D01*
X-5321740Y+2409177D01*
X-5306500Y+2409177D01*
X-5291260Y+2425052D01*
X-5291260Y+2472677D01*
X-5306500Y+2488552D01*
X-5321740Y+2488552D01*
X-5336980Y+2472677D01*
X-3413660Y+4811580D02*
X-3482240Y+4811580D01*
X-3413660Y+4933500D02*
X-3484780Y+4933500D01*
X-3642299Y+4640420D02*
X-3642299Y+4731860D01*
X-3562924Y+4731860D01*
X-3547049Y+4716620D01*
X-3547049Y+4701380D01*
X-3562924Y+4686140D01*
X-3642299Y+4686140D01*
X-3562924Y+4686140D02*
X-3547049Y+4670900D01*
X-3547049Y+4640420D01*
X-3515299Y+4655660D02*
X-3499424Y+4640420D01*
X-3435924Y+4640420D01*
X-3420049Y+4655660D01*
X-3420049Y+4670900D01*
X-3435924Y+4686140D01*
X-3499424Y+4686140D01*
X-3515299Y+4701380D01*
X-3515299Y+4716620D01*
X-3499424Y+4731860D01*
X-3435924Y+4731860D01*
X-3420049Y+4716620D01*
X-3388299Y+4731860D02*
X-3293049Y+4731860D01*
X-3340674Y+4731860D02*
X-3340674Y+4640420D01*
X-6708420Y+5363660D02*
X-6708420Y+5432240D01*
X-6586500Y+5363660D02*
X-6586500Y+5434780D01*
X-6758140Y+5341750D02*
X-6819100Y+5341750D01*
X-6849580Y+5373500D01*
X-6849580Y+5405250D01*
X-6819100Y+5437000D01*
X-6758140Y+5437000D01*
X-6788620Y+5341750D02*
X-6788620Y+5437000D01*
X-6258420Y+5360300D02*
X-6258420Y+5428880D01*
X-6136500Y+5360300D02*
X-6136500Y+5431420D01*
X-6308140Y+5348390D02*
X-6399580Y+5348390D01*
X-6399580Y+5427765D01*
X-6384340Y+5443640D01*
X-6369100Y+5443640D01*
X-6353860Y+5427765D01*
X-6338620Y+5443640D01*
X-6323380Y+5443640D01*
X-6308140Y+5427765D01*
X-6308140Y+5348390D01*
X-6353860Y+5348390D02*
X-6353860Y+5427765D01*
X-9241580Y+4466340D02*
X-9241580Y+4397760D01*
X-9363500Y+4466340D02*
X-9363500Y+4395220D01*
X-9104420Y+4251500D02*
X-9195860Y+4251500D01*
X-9195860Y+4330875D01*
X-9180620Y+4346750D01*
X-9165380Y+4346750D01*
X-9150140Y+4330875D01*
X-9150140Y+4251500D01*
X-9150140Y+4330875D02*
X-9134900Y+4346750D01*
X-9104420Y+4346750D01*
X-9165380Y+4410250D02*
X-9195860Y+4442000D01*
X-9104420Y+4442000D01*
X-9180620Y+4521375D02*
X-9195860Y+4537250D01*
X-9195860Y+4584875D01*
X-9180620Y+4600750D01*
X-9165380Y+4600750D01*
X-9150140Y+4584875D01*
X-9134900Y+4600750D01*
X-9119660Y+4600750D01*
X-9104420Y+4584875D01*
X-9104420Y+4537250D01*
X-9119660Y+4521375D01*
X-9150140Y+4553125D02*
X-9150140Y+4584875D01*
X-2929700Y+4928420D02*
X-2861120Y+4928420D01*
X-2929700Y+4806500D02*
X-2858580Y+4806500D01*
X-3085860Y+4654140D02*
X-3085860Y+4745580D01*
X-3006485Y+4745580D01*
X-2990610Y+4730340D01*
X-2990610Y+4715100D01*
X-3006485Y+4699860D01*
X-3085860Y+4699860D01*
X-3006485Y+4699860D02*
X-2990610Y+4684620D01*
X-2990610Y+4654140D01*
X-2927110Y+4715100D02*
X-2895360Y+4745580D01*
X-2895360Y+4654140D01*
X-2736610Y+4684620D02*
X-2831860Y+4684620D01*
X-2768360Y+4745580D01*
X-2768360Y+4654140D01*
D31*
X-1150000Y+1150000D02*
X-1150000Y+6890000D01*
X-1150000Y+1150000D02*
X-1023000Y+1277000D01*
X-1150000Y+1150000D02*
X-1277000Y+1277000D01*
X-1150000Y+6890000D02*
X-1277000Y+6763000D01*
X-1150000Y+6890000D02*
X-1023000Y+6763000D01*
X-1118250Y+4020000D02*
X-1118359Y+4022634D01*
X-1119249Y+4027903D01*
X-1121111Y+4033172D01*
X-1124154Y+4038441D01*
X-1128809Y+4043643D01*
X-1134078Y+4047469D01*
X-1139347Y+4049909D01*
X-1144616Y+4051290D01*
X-1149885Y+4051750D01*
X-1150000Y+4051750D01*
X-1181750Y+4020000D02*
X-1181641Y+4022634D01*
X-1180751Y+4027903D01*
X-1178889Y+4033172D01*
X-1175846Y+4038441D01*
X-1171191Y+4043643D01*
X-1165922Y+4047469D01*
X-1160653Y+4049909D01*
X-1155384Y+4051290D01*
X-1150115Y+4051750D01*
X-1150000Y+4051750D01*
X-1181750Y+4020000D02*
X-1181641Y+4017366D01*
X-1180751Y+4012097D01*
X-1178889Y+4006828D01*
X-1175846Y+4001559D01*
X-1171191Y+3996357D01*
X-1165922Y+3992531D01*
X-1160653Y+3990091D01*
X-1155384Y+3988710D01*
X-1150115Y+3988250D01*
X-1150000Y+3988250D01*
X-1118250Y+4020000D02*
X-1118359Y+4017366D01*
X-1119249Y+4012097D01*
X-1121111Y+4006828D01*
X-1124154Y+4001559D01*
X-1128809Y+3996357D01*
X-1134078Y+3992531D01*
X-1139347Y+3990091D01*
X-1144616Y+3988710D01*
X-1149885Y+3988250D01*
X-1150000Y+3988250D01*
X-1282080Y+3734250D02*
X-1282080Y+3654875D01*
X-1251600Y+3654875D01*
X-1251600Y+3718375D01*
X-1236360Y+3734250D01*
X-1205880Y+3734250D01*
X-1190640Y+3718375D01*
X-1190640Y+3670750D01*
X-1205880Y+3654875D01*
X-1282080Y+3781875D02*
X-1282080Y+3861250D01*
X-1266840Y+3861250D01*
X-1190640Y+3781875D01*
X-1205880Y+3940625D02*
X-1205880Y+3956500D01*
X-1190640Y+3956500D01*
X-1190640Y+3940625D01*
X-1205880Y+3940625D01*
X-1221120Y+4115250D02*
X-1221120Y+4020000D01*
X-1282080Y+4083500D01*
X-1190640Y+4083500D01*
X-1190640Y+4147000D02*
X-1251600Y+4147000D01*
X-1236360Y+4147000D02*
X-1251600Y+4162875D01*
X-1221120Y+4194625D01*
X-1251600Y+4226375D01*
X-1236360Y+4242250D01*
X-1190640Y+4242250D01*
X-1190640Y+4274000D02*
X-1251600Y+4274000D01*
X-1236360Y+4274000D02*
X-1251600Y+4289875D01*
X-1221120Y+4321625D01*
X-1251600Y+4353375D01*
X-1236360Y+4369250D01*
X-1190640Y+4369250D01*
D30*
X-11331000Y+2204380D02*
X-10569000Y+2204380D01*
X-10569000Y+1188380D02*
X-11331000Y+1188380D01*
X-11331000Y+2204380D02*
X-11331000Y+1188380D01*
X-10569000Y+2204380D02*
X-10569000Y+1188380D01*
X-9997400Y+1988380D02*
X-9982160Y+1988380D01*
X-9966920Y+2004255D01*
X-9966920Y+2067755D01*
X-9982160Y+2083630D01*
X-10058360Y+2083630D01*
X-10043120Y+2210630D02*
X-10058360Y+2194755D01*
X-10058360Y+2147130D01*
X-10043120Y+2131255D01*
X-9982160Y+2131255D01*
X-9966920Y+2147130D01*
X-9966920Y+2194755D01*
X-9982160Y+2210630D01*
X-9997400Y+2210630D01*
X-10012640Y+2194755D01*
X-10012640Y+2131255D01*
X-9951680Y+2242380D02*
X-9951680Y+2337630D01*
X-9966920Y+2369380D02*
X-10058360Y+2369380D01*
X-10012640Y+2417005D01*
X-10058360Y+2464630D01*
X-9966920Y+2464630D01*
X-10027880Y+2496380D02*
X-10058360Y+2528130D01*
X-10058360Y+2559880D01*
X-10027880Y+2591630D01*
X-9997400Y+2591630D01*
X-9966920Y+2559880D01*
X-9966920Y+2528130D01*
X-9997400Y+2496380D01*
X-10027880Y+2496380D01*
X-10058360Y+2623380D02*
X-10058360Y+2718630D01*
X-10058360Y+2671005D02*
X-9966920Y+2671005D01*
X-10027880Y+2750380D02*
X-10058360Y+2782130D01*
X-10058360Y+2813880D01*
X-10027880Y+2845630D01*
X-9997400Y+2845630D01*
X-9966920Y+2813880D01*
X-9966920Y+2782130D01*
X-9997400Y+2750380D01*
X-10027880Y+2750380D01*
X-9966920Y+2877380D02*
X-10058360Y+2877380D01*
X-10058360Y+2956755D01*
X-10043120Y+2972630D01*
X-10027880Y+2972630D01*
X-10012640Y+2956755D01*
X-10012640Y+2877380D01*
X-10012640Y+2956755D02*
X-9997400Y+2972630D01*
X-9966920Y+2972630D01*
X-9358420Y+4843660D02*
X-9358420Y+4912240D01*
X-9236500Y+4843660D02*
X-9236500Y+4914780D01*
X-9113380Y+4768250D02*
X-9098140Y+4784125D01*
X-9098140Y+4847625D01*
X-9113380Y+4863500D01*
X-9128620Y+4863500D01*
X-9143860Y+4847625D01*
X-9143860Y+4784125D01*
X-9159100Y+4768250D01*
X-9174340Y+4768250D01*
X-9189580Y+4784125D01*
X-9189580Y+4847625D01*
X-9174340Y+4863500D01*
X-9098140Y+4895250D02*
X-9189580Y+4895250D01*
X-9189580Y+4958750D01*
X-9159100Y+4990500D01*
X-9128620Y+4990500D01*
X-9098140Y+4958750D01*
X-9098140Y+4895250D01*
X-3413660Y+2691580D02*
X-3482240Y+2691580D01*
X-3413660Y+2813500D02*
X-3484780Y+2813500D01*
X-3707360Y+2957620D02*
X-3707360Y+2866180D01*
X-3612110Y+2866180D01*
X-3580360Y+2866180D02*
X-3580360Y+2957620D01*
X-3532735Y+2911900D01*
X-3485110Y+2957620D01*
X-3485110Y+2866180D01*
X-3453360Y+2957620D02*
X-3358110Y+2957620D01*
X-3405735Y+2957620D02*
X-3405735Y+2866180D01*
X-3294610Y+2927140D02*
X-3262860Y+2957620D01*
X-3262860Y+2866180D01*
X-3413660Y+2191580D02*
X-3482240Y+2191580D01*
X-3413660Y+2313500D02*
X-3484780Y+2313500D01*
X-3720680Y+2450940D02*
X-3720680Y+2359500D01*
X-3625430Y+2359500D01*
X-3593680Y+2359500D02*
X-3593680Y+2450940D01*
X-3546055Y+2405220D01*
X-3498430Y+2450940D01*
X-3498430Y+2359500D01*
X-3466680Y+2450940D02*
X-3371430Y+2450940D01*
X-3419055Y+2450940D02*
X-3419055Y+2359500D01*
X-3323805Y+2435700D02*
X-3307930Y+2450940D01*
X-3260305Y+2450940D01*
X-3244430Y+2435700D01*
X-3244430Y+2420460D01*
X-3260305Y+2405220D01*
X-3307930Y+2405220D01*
X-3323805Y+2389980D01*
X-3323805Y+2359500D01*
X-3244430Y+2359500D01*
X-2966340Y+2308420D02*
X-2897760Y+2308420D01*
X-2966340Y+2186500D02*
X-2895220Y+2186500D01*
X-3123820Y+2349060D02*
X-3123820Y+2440500D01*
X-3044445Y+2440500D01*
X-3028570Y+2425260D01*
X-3028570Y+2410020D01*
X-3044445Y+2394780D01*
X-3123820Y+2394780D01*
X-3044445Y+2394780D02*
X-3028570Y+2379540D01*
X-3028570Y+2349060D01*
X-2980945Y+2425260D02*
X-2965070Y+2440500D01*
X-2917445Y+2440500D01*
X-2901570Y+2425260D01*
X-2901570Y+2410020D01*
X-2917445Y+2394780D01*
X-2965070Y+2394780D01*
X-2980945Y+2379540D01*
X-2980945Y+2349060D01*
X-2901570Y+2349060D01*
X-2853945Y+2425260D02*
X-2838070Y+2440500D01*
X-2790445Y+2440500D01*
X-2774570Y+2425260D01*
X-2774570Y+2410020D01*
X-2790445Y+2394780D01*
X-2774570Y+2379540D01*
X-2774570Y+2364300D01*
X-2790445Y+2349060D01*
X-2838070Y+2349060D01*
X-2853945Y+2364300D01*
X-2822195Y+2394780D02*
X-2790445Y+2394780D01*
X-2969700Y+2808420D02*
X-2901120Y+2808420D01*
X-2969700Y+2686500D02*
X-2898580Y+2686500D01*
X-3019365Y+2864745D02*
X-3019365Y+2956185D01*
X-2939990Y+2956185D01*
X-2924115Y+2940945D01*
X-2924115Y+2925705D01*
X-2939990Y+2910465D01*
X-3019365Y+2910465D01*
X-2939990Y+2910465D02*
X-2924115Y+2895225D01*
X-2924115Y+2864745D01*
X-2876490Y+2956185D02*
X-2797115Y+2956185D01*
X-2797115Y+2940945D01*
X-2876490Y+2864745D01*
X-10146340Y+6741780D02*
X-10077760Y+6741780D01*
X-10146340Y+6619860D02*
X-10075220Y+6619860D01*
X-10198570Y+6807660D02*
X-10214445Y+6792420D01*
X-10262070Y+6792420D01*
X-10293820Y+6822900D01*
X-10293820Y+6853380D01*
X-10262070Y+6883860D01*
X-10214445Y+6883860D01*
X-10198570Y+6868620D01*
X-10135070Y+6853380D02*
X-10103320Y+6883860D01*
X-10103320Y+6792420D01*
X-10023945Y+6868620D02*
X-10008070Y+6883860D01*
X-9960445Y+6883860D01*
X-9944570Y+6868620D01*
X-9944570Y+6853380D01*
X-9960445Y+6838140D01*
X-10008070Y+6838140D01*
X-10023945Y+6822900D01*
X-10023945Y+6792420D01*
X-9944570Y+6792420D01*
X-10417500Y+4345860D02*
X-10341300Y+4345860D01*
X-10341300Y+4980860D01*
X-10417500Y+4980860D01*
X-10341300Y+4625260D02*
X-10290500Y+4625260D01*
X-10290500Y+4701460D01*
X-10341300Y+4701460D01*
X-10341300Y+4396660D02*
X-10265100Y+4396660D01*
X-10265100Y+4460160D01*
X-10341300Y+4460160D01*
X-10341300Y+4930060D02*
X-10265100Y+4930060D01*
X-10265100Y+4866560D01*
X-10341300Y+4866560D02*
X-10265100Y+4866560D01*
X-10236080Y+4546360D02*
X-10159880Y+4546360D01*
X-10144640Y+4562235D01*
X-10144640Y+4625735D01*
X-10159880Y+4641610D01*
X-10236080Y+4641610D01*
X-10220840Y+4689235D02*
X-10236080Y+4705110D01*
X-10236080Y+4752735D01*
X-10220840Y+4768610D01*
X-10205600Y+4768610D01*
X-10190360Y+4752735D01*
X-10175120Y+4768610D01*
X-10159880Y+4768610D01*
X-10144640Y+4752735D01*
X-10144640Y+4705110D01*
X-10159880Y+4689235D01*
X-10190360Y+4720985D02*
X-10190360Y+4752735D01*
X-3427000Y+1419500D02*
X-1903000Y+1419500D01*
X-1903000Y+1800500D01*
X-3427000Y+1800500D01*
X-3427000Y+1419500D01*
X-2792000Y+1871620D02*
X-2792000Y+1856380D01*
X-2776125Y+1841140D01*
X-2712625Y+1841140D01*
X-2696750Y+1856380D01*
X-2696750Y+1932580D01*
X-2649125Y+1917340D02*
X-2633250Y+1932580D01*
X-2585625Y+1932580D01*
X-2569750Y+1917340D01*
X-2569750Y+1902100D01*
X-2585625Y+1886860D01*
X-2569750Y+1871620D01*
X-2569750Y+1856380D01*
X-2585625Y+1841140D01*
X-2633250Y+1841140D01*
X-2649125Y+1856380D01*
X-2617375Y+1886860D02*
X-2585625Y+1886860D01*
X-5717000Y+1419500D02*
X-3685000Y+1419500D01*
X-3685000Y+1800500D01*
X-5717000Y+1800500D01*
X-5717000Y+1419500D01*
X-4828000Y+1871620D02*
X-4828000Y+1856380D01*
X-4812125Y+1841140D01*
X-4748625Y+1841140D01*
X-4732750Y+1856380D01*
X-4732750Y+1932580D01*
X-4605750Y+1871620D02*
X-4701000Y+1871620D01*
X-4637500Y+1932580D01*
X-4637500Y+1841140D01*
X-3937000Y+6249500D02*
X-1905000Y+6249500D01*
X-1905000Y+6630500D01*
X-3937000Y+6630500D01*
X-3937000Y+6249500D01*
X-3048000Y+6701620D02*
X-3048000Y+6686380D01*
X-3032125Y+6671140D01*
X-2968625Y+6671140D01*
X-2952750Y+6686380D01*
X-2952750Y+6762580D01*
X-2889250Y+6732100D02*
X-2857500Y+6762580D01*
X-2857500Y+6671140D01*
X-6627000Y+6249500D02*
X-4087000Y+6249500D01*
X-4087000Y+6630500D01*
X-6627000Y+6630500D01*
X-6627000Y+6249500D01*
X-5484000Y+6701620D02*
X-5484000Y+6686380D01*
X-5468125Y+6671140D01*
X-5404625Y+6671140D01*
X-5388750Y+6686380D01*
X-5388750Y+6762580D01*
X-5341125Y+6747340D02*
X-5325250Y+6762580D01*
X-5277625Y+6762580D01*
X-5261750Y+6747340D01*
X-5261750Y+6732100D01*
X-5277625Y+6716860D01*
X-5325250Y+6716860D01*
X-5341125Y+6701620D01*
X-5341125Y+6671140D01*
X-5261750Y+6671140D01*
X-10417500Y+5795860D02*
X-10341300Y+5795860D01*
X-10341300Y+6430860D01*
X-10417500Y+6430860D01*
X-10341300Y+6075260D02*
X-10290500Y+6075260D01*
X-10290500Y+6151460D01*
X-10341300Y+6151460D01*
X-10341300Y+5846660D02*
X-10265100Y+5846660D01*
X-10265100Y+5910160D01*
X-10341300Y+5910160D01*
X-10341300Y+6380060D02*
X-10265100Y+6380060D01*
X-10265100Y+6316560D01*
X-10341300Y+6316560D02*
X-10265100Y+6316560D01*
X-10246080Y+5996360D02*
X-10169880Y+5996360D01*
X-10154640Y+6012235D01*
X-10154640Y+6075735D01*
X-10169880Y+6091610D01*
X-10246080Y+6091610D01*
X-10185120Y+6218610D02*
X-10185120Y+6123360D01*
X-10246080Y+6186860D01*
X-10154640Y+6186860D01*
X-10146340Y+5301780D02*
X-10077760Y+5301780D01*
X-10146340Y+5179860D02*
X-10075220Y+5179860D01*
X-10648570Y+5227660D02*
X-10664445Y+5212420D01*
X-10712070Y+5212420D01*
X-10743820Y+5242900D01*
X-10743820Y+5273380D01*
X-10712070Y+5303860D01*
X-10664445Y+5303860D01*
X-10648570Y+5288620D01*
X-10585070Y+5273380D02*
X-10553320Y+5303860D01*
X-10553320Y+5212420D01*
X-10489820Y+5227660D02*
X-10489820Y+5288620D01*
X-10473945Y+5303860D01*
X-10410445Y+5303860D01*
X-10394570Y+5288620D01*
X-10394570Y+5227660D01*
X-10410445Y+5212420D01*
X-10473945Y+5212420D01*
X-10489820Y+5227660D01*
X-10489820Y+5212420D02*
X-10394570Y+5303860D01*
X-9741580Y+4923060D02*
X-9741580Y+4854480D01*
X-9863500Y+4923060D02*
X-9863500Y+4851940D01*
X-9609500Y+4763040D02*
X-9700940Y+4763040D01*
X-9700940Y+4842415D01*
X-9685700Y+4858290D01*
X-9670460Y+4858290D01*
X-9655220Y+4842415D01*
X-9655220Y+4763040D01*
X-9655220Y+4842415D02*
X-9639980Y+4858290D01*
X-9609500Y+4858290D01*
X-9700940Y+4985290D02*
X-9700940Y+4905915D01*
X-9670460Y+4905915D01*
X-9670460Y+4969415D01*
X-9655220Y+4985290D01*
X-9624740Y+4985290D01*
X-9609500Y+4969415D01*
X-9609500Y+4921790D01*
X-9624740Y+4905915D01*
X-10149700Y+5601780D02*
X-10081120Y+5601780D01*
X-10149700Y+5479860D02*
X-10078580Y+5479860D01*
X-10641930Y+5537660D02*
X-10657805Y+5522420D01*
X-10705430Y+5522420D01*
X-10737180Y+5552900D01*
X-10737180Y+5583380D01*
X-10705430Y+5613860D01*
X-10657805Y+5613860D01*
X-10641930Y+5598620D01*
X-10578430Y+5583380D02*
X-10546680Y+5613860D01*
X-10546680Y+5522420D01*
X-10451430Y+5583380D02*
X-10419680Y+5613860D01*
X-10419680Y+5522420D01*
X-9741580Y+5913060D02*
X-9741580Y+5844480D01*
X-9863500Y+5913060D02*
X-9863500Y+5841940D01*
X-9599500Y+5763040D02*
X-9690940Y+5763040D01*
X-9690940Y+5826540D01*
X-9660460Y+5858290D01*
X-9629980Y+5858290D01*
X-9599500Y+5826540D01*
X-9599500Y+5763040D01*
X-9629980Y+5985290D02*
X-9629980Y+5890040D01*
X-9690940Y+5953540D01*
X-9599500Y+5953540D01*
X-9741580Y+4469700D02*
X-9741580Y+4401120D01*
X-9863500Y+4469700D02*
X-9863500Y+4398580D01*
X-9599500Y+4319680D02*
X-9690940Y+4319680D01*
X-9690940Y+4383180D01*
X-9660460Y+4414930D01*
X-9629980Y+4414930D01*
X-9599500Y+4383180D01*
X-9599500Y+4319680D01*
X-9675700Y+4462555D02*
X-9690940Y+4478430D01*
X-9690940Y+4526055D01*
X-9675700Y+4541930D01*
X-9660460Y+4541930D01*
X-9645220Y+4526055D01*
X-9629980Y+4541930D01*
X-9614740Y+4541930D01*
X-9599500Y+4526055D01*
X-9599500Y+4478430D01*
X-9614740Y+4462555D01*
X-9645220Y+4494305D02*
X-9645220Y+4526055D01*
X-10139700Y+4171780D02*
X-10071120Y+4171780D01*
X-10139700Y+4049860D02*
X-10068580Y+4049860D01*
X-10138430Y+4227660D02*
X-10154305Y+4212420D01*
X-10201930Y+4212420D01*
X-10233680Y+4242900D01*
X-10233680Y+4273380D01*
X-10201930Y+4303860D01*
X-10154305Y+4303860D01*
X-10138430Y+4288620D01*
X-10011430Y+4273380D02*
X-10027305Y+4258140D01*
X-10074930Y+4258140D01*
X-10090805Y+4273380D01*
X-10090805Y+4288620D01*
X-10074930Y+4303860D01*
X-10027305Y+4303860D01*
X-10011430Y+4288620D01*
X-10011430Y+4227660D01*
X-10027305Y+4212420D01*
X-10074930Y+4212420D01*
X-9858420Y+6303660D02*
X-9858420Y+6372240D01*
X-9736500Y+6303660D02*
X-9736500Y+6374780D01*
X-9599060Y+6209680D02*
X-9690500Y+6209680D01*
X-9690500Y+6289055D01*
X-9675260Y+6304930D01*
X-9660020Y+6304930D01*
X-9644780Y+6289055D01*
X-9644780Y+6209680D01*
X-9644780Y+6289055D02*
X-9629540Y+6304930D01*
X-9599060Y+6304930D01*
X-9675260Y+6431930D02*
X-9690500Y+6416055D01*
X-9690500Y+6368430D01*
X-9675260Y+6352555D01*
X-9614300Y+6352555D01*
X-9599060Y+6368430D01*
X-9599060Y+6416055D01*
X-9614300Y+6431930D01*
X-9629540Y+6431930D01*
X-9644780Y+6416055D01*
X-9644780Y+6352555D01*
X-4342000Y+4789000D02*
X-4215000Y+4789000D01*
X-4723000Y+4789000D02*
X-4596000Y+4789000D01*
X-4469000Y+4662000D02*
X-4443124Y+4664436D01*
X-4419152Y+4671485D01*
X-4397562Y+4682762D01*
X-4378830Y+4697878D01*
X-4363431Y+4716446D01*
X-4351842Y+4738081D01*
X-4344540Y+4762394D01*
X-4342000Y+4789000D01*
X-4469000Y+4662000D02*
X-4495606Y+4664436D01*
X-4519919Y+4671485D01*
X-4541554Y+4682762D01*
X-4560122Y+4697878D01*
X-4575238Y+4716446D01*
X-4586515Y+4738081D01*
X-4593564Y+4762394D01*
X-4596000Y+4789000D01*
X-4723000Y+4789000D02*
X-4723000Y+3011000D01*
X-4215000Y+3011000D01*
X-4215000Y+4789000D01*
X-4596000Y+4921080D02*
X-4596000Y+4844880D01*
X-4580125Y+4829640D01*
X-4516625Y+4829640D01*
X-4500750Y+4844880D01*
X-4500750Y+4921080D01*
X-4373750Y+4921080D02*
X-4453125Y+4921080D01*
X-4453125Y+4890600D01*
X-4389625Y+4890600D01*
X-4373750Y+4875360D01*
X-4373750Y+4844880D01*
X-4389625Y+4829640D01*
X-4437250Y+4829640D01*
X-4453125Y+4844880D01*
X-10569000Y+2205620D02*
X-11331000Y+2205620D01*
X-11331000Y+3221620D02*
X-10569000Y+3221620D01*
X-10569000Y+2205620D02*
X-10569000Y+3221620D01*
X-11331000Y+2205620D02*
X-11331000Y+3221620D01*
X-10462120Y+2366620D02*
X-10446880Y+2366620D01*
X-10431640Y+2382495D01*
X-10431640Y+2445995D01*
X-10446880Y+2461870D01*
X-10523080Y+2461870D01*
X-10477360Y+2525370D02*
X-10492600Y+2509495D01*
X-10507840Y+2509495D01*
X-10523080Y+2525370D01*
X-10523080Y+2572995D01*
X-10507840Y+2588870D01*
X-10492600Y+2588870D01*
X-10477360Y+2572995D01*
X-10477360Y+2525370D01*
X-10462120Y+2509495D01*
X-10446880Y+2509495D01*
X-10431640Y+2525370D01*
X-10431640Y+2572995D01*
X-10446880Y+2588870D01*
X-10462120Y+2588870D01*
X-10477360Y+2572995D01*
X-8623660Y+4041580D02*
X-8692240Y+4041580D01*
X-8623660Y+4163500D02*
X-8694780Y+4163500D01*
X-8688430Y+3924740D02*
X-8704305Y+3909500D01*
X-8751930Y+3909500D01*
X-8783680Y+3939980D01*
X-8783680Y+3970460D01*
X-8751930Y+4000940D01*
X-8704305Y+4000940D01*
X-8688430Y+3985700D01*
X-8561430Y+3985700D02*
X-8577305Y+4000940D01*
X-8624930Y+4000940D01*
X-8640805Y+3985700D01*
X-8640805Y+3924740D01*
X-8624930Y+3909500D01*
X-8577305Y+3909500D01*
X-8561430Y+3924740D01*
X-8561430Y+3939980D01*
X-8577305Y+3955220D01*
X-8640805Y+3955220D01*
X-7685180Y+3998400D02*
X-7685180Y+3820600D01*
X-8167780Y+3820600D01*
X-8218580Y+3871400D01*
X-8218580Y+3998400D01*
X-8218580Y+4201600D02*
X-8218580Y+4328600D01*
X-8167780Y+4379400D01*
X-7685180Y+4379400D01*
X-7685180Y+4201600D01*
X-8243980Y+4252400D02*
X-8294780Y+4252400D01*
X-8269380Y+4227000D02*
X-8269380Y+4277800D01*
X-7490660Y+4068250D02*
X-7475420Y+4052375D01*
X-7475420Y+4004750D01*
X-7505900Y+3973000D01*
X-7536380Y+3973000D01*
X-7566860Y+4004750D01*
X-7566860Y+4052375D01*
X-7551620Y+4068250D01*
X-7566860Y+4195250D02*
X-7566860Y+4115875D01*
X-7536380Y+4115875D01*
X-7536380Y+4179375D01*
X-7521140Y+4195250D01*
X-7490660Y+4195250D01*
X-7475420Y+4179375D01*
X-7475420Y+4131750D01*
X-7490660Y+4115875D01*
X-2271000Y+3004000D02*
X-1509000Y+3004000D01*
X-1509000Y+1988000D02*
X-2271000Y+1988000D01*
X-2271000Y+3004000D02*
X-2271000Y+1988000D01*
X-1509000Y+3004000D02*
X-1509000Y+1988000D01*
X-2367400Y+2349000D02*
X-2352160Y+2349000D01*
X-2336920Y+2364875D01*
X-2336920Y+2428375D01*
X-2352160Y+2444250D01*
X-2428360Y+2444250D01*
X-2413120Y+2571250D02*
X-2428360Y+2555375D01*
X-2428360Y+2507750D01*
X-2413120Y+2491875D01*
X-2352160Y+2491875D01*
X-2336920Y+2507750D01*
X-2336920Y+2555375D01*
X-2352160Y+2571250D01*
X-2367400Y+2571250D01*
X-2382640Y+2555375D01*
X-2382640Y+2491875D01*
X-2271000Y+5024000D02*
X-1509000Y+5024000D01*
X-1509000Y+4008000D02*
X-2271000Y+4008000D01*
X-2271000Y+5024000D02*
X-2271000Y+4008000D01*
X-1509000Y+5024000D02*
X-1509000Y+4008000D01*
X-2357400Y+4389000D02*
X-2342160Y+4389000D01*
X-2326920Y+4404875D01*
X-2326920Y+4468375D01*
X-2342160Y+4484250D01*
X-2418360Y+4484250D01*
X-2418360Y+4611250D02*
X-2418360Y+4531875D01*
X-2387880Y+4531875D01*
X-2387880Y+4595375D01*
X-2372640Y+4611250D01*
X-2342160Y+4611250D01*
X-2326920Y+4595375D01*
X-2326920Y+4547750D01*
X-2342160Y+4531875D01*
X-1509000Y+2996000D02*
X-2271000Y+2996000D01*
X-2271000Y+4012000D02*
X-1509000Y+4012000D01*
X-1509000Y+2996000D02*
X-1509000Y+4012000D01*
X-2271000Y+2996000D02*
X-2271000Y+4012000D01*
X-2342120Y+3377000D02*
X-2326880Y+3377000D01*
X-2311640Y+3392875D01*
X-2311640Y+3456375D01*
X-2326880Y+3472250D01*
X-2403080Y+3472250D01*
X-2403080Y+3519875D02*
X-2403080Y+3599250D01*
X-2387840Y+3599250D01*
X-2311640Y+3519875D01*
X-5081000Y+2173000D02*
X-4319000Y+2173000D01*
X-4319000Y+2427000D01*
X-5081000Y+2427000D01*
X-5081000Y+2173000D01*
X-4890500Y+2071400D02*
X-4890500Y+2056160D01*
X-4874625Y+2040920D01*
X-4811125Y+2040920D01*
X-4795250Y+2056160D01*
X-4795250Y+2132360D01*
X-4763500Y+2040920D02*
X-4763500Y+2132360D01*
X-4684125Y+2132360D01*
X-4668250Y+2117120D01*
X-4668250Y+2101880D01*
X-4684125Y+2086640D01*
X-4763500Y+2086640D01*
X-4604750Y+2101880D02*
X-4573000Y+2132360D01*
X-4573000Y+2040920D01*
X-5097300Y+2551900D02*
X-5084600Y+2564600D01*
X-5046500Y+2564600D01*
X-5033800Y+2551900D01*
X-5033800Y+2539200D01*
X-5046500Y+2526500D01*
X-5033800Y+2513800D01*
X-5033800Y+2501100D01*
X-5046500Y+2488400D01*
X-5084600Y+2488400D01*
X-5097300Y+2501100D01*
X-5071900Y+2526500D02*
X-5046500Y+2526500D01*
X-5008400Y+2564600D02*
X-5008400Y+2526500D01*
X-4970300Y+2488400D01*
X-4932200Y+2526500D01*
X-4932200Y+2564600D01*
X-4894100Y+2551900D02*
X-4881400Y+2564600D01*
X-4843300Y+2564600D01*
X-4830600Y+2551900D01*
X-4830600Y+2539200D01*
X-4843300Y+2526500D01*
X-4830600Y+2513800D01*
X-4830600Y+2501100D01*
X-4843300Y+2488400D01*
X-4881400Y+2488400D01*
X-4894100Y+2501100D01*
X-4868700Y+2526500D02*
X-4843300Y+2526500D01*
X-4443800Y+2564600D02*
X-4507300Y+2564600D01*
X-4507300Y+2539200D01*
X-4456500Y+2539200D01*
X-4443800Y+2526500D01*
X-4443800Y+2501100D01*
X-4456500Y+2488400D01*
X-4494600Y+2488400D01*
X-4507300Y+2501100D01*
X-4418400Y+2564600D02*
X-4418400Y+2526500D01*
X-4380300Y+2488400D01*
X-4342200Y+2526500D01*
X-4342200Y+2564600D01*
M02*
