G04 PROTEUS GERBER X2 FILE*
%TF.GenerationSoftware,Labcenter,Proteus,8.6-SP2-Build23525*%
%TF.CreationDate,2019-07-10T19:11:28+00:00*%
%TF.FileFunction,Copper,L1,Top*%
%TF.FilePolarity,Positive*%
%TF.Part,Single*%
%FSLAX45Y45*%
%MOMM*%
G01*
%TA.AperFunction,Conductor*%
%ADD10C,0.635000*%
%ADD11C,0.762000*%
%ADD12C,2.032000*%
%ADD13C,1.270000*%
%ADD14C,2.540000*%
%ADD15C,0.254000*%
%TA.AperFunction,ComponentPad*%
%ADD16R,1.524000X1.524000*%
%ADD17C,1.524000*%
%ADD18C,1.270000*%
%TA.AperFunction,ComponentPad*%
%ADD19R,1.270000X1.270000*%
%TA.AperFunction,SMDPad,CuDef*%
%ADD70R,1.270000X1.016000*%
%ADD71R,3.048000X1.651000*%
%ADD20R,1.016000X1.270000*%
%TA.AperFunction,ComponentPad*%
%ADD21R,2.032000X2.032000*%
%TA.AperFunction,ComponentPad*%
%ADD22C,2.032000*%
%ADD23C,3.048000*%
%TA.AperFunction,OtherPad,Unknown*%
%ADD24C,2.032000*%
%ADD25C,1.524000*%
%TA.AperFunction,SMDPad,CuDef*%
%ADD26R,6.985000X6.985000*%
%ADD27R,2.540000X1.524000*%
%AMDIL020*
4,1,8,
-0.762000,0.965200,-0.457200,1.270000,0.457200,1.270000,0.762000,0.965200,0.762000,-0.965200,
0.457200,-1.270000,-0.457200,-1.270000,-0.762000,-0.965200,-0.762000,0.965200,
0*%
%TA.AperFunction,ComponentPad*%
%ADD28DIL020*%
%TA.AperFunction,Profile*%
%ADD29C,0.203200*%
%TD.AperFunction*%
G36*
X-1835959Y+6787751D02*
X-1835959Y+5394750D01*
X-1800249Y+5359041D01*
X-1581959Y+5140751D01*
X-1581959Y+1889249D01*
X-1835959Y+1635250D01*
X-1835959Y+1180959D01*
X-8553517Y+1180959D01*
X-8462275Y+1272201D01*
X-6376353Y+1272201D01*
X-6272201Y+1376353D01*
X-6272201Y+1412275D01*
X-6147601Y+1536875D01*
X-6147601Y+1697601D01*
X-5893601Y+1697601D01*
X-5893601Y+2002399D01*
X-6480811Y+2002399D01*
X-6480811Y+2285701D01*
X-6461761Y+2285701D01*
X-6461761Y+2514299D01*
X-6480811Y+2514299D01*
X-6480811Y+2793585D01*
X-6437001Y+2837395D01*
X-6437001Y+2900259D01*
X-6436999Y+2900261D01*
X-6436999Y+2837395D01*
X-6392549Y+2792945D01*
X-6392549Y+2514299D01*
X-6451599Y+2514299D01*
X-6451599Y+2285701D01*
X-6248401Y+2285701D01*
X-6248401Y+2317451D01*
X-6153199Y+2317451D01*
X-6153199Y+2266651D01*
X-5746801Y+2266651D01*
X-5746801Y+2533349D01*
X-6153199Y+2533349D01*
X-6153199Y+2482549D01*
X-6227451Y+2482549D01*
X-6227451Y+2792945D01*
X-6183001Y+2837395D01*
X-6183001Y+2942605D01*
X-6207847Y+2967451D01*
X-6158153Y+2967451D01*
X-6182999Y+2942605D01*
X-6182999Y+2837395D01*
X-6108605Y+2763001D01*
X-6003395Y+2763001D01*
X-5929001Y+2837395D01*
X-5929001Y+2942605D01*
X-5953847Y+2967451D01*
X-5934191Y+2967451D01*
X-5582549Y+2615809D01*
X-5582549Y+2533349D01*
X-5708699Y+2533349D01*
X-5708699Y+2266651D01*
X-5302301Y+2266651D01*
X-5302301Y+2533349D01*
X-5417451Y+2533349D01*
X-5417451Y+2684193D01*
X-5465807Y+2732549D01*
X-5465809Y+2732549D01*
X-5865809Y+3132549D01*
X-6438191Y+3132549D01*
X-6553741Y+3016999D01*
X-6616605Y+3016999D01*
X-6690999Y+2942605D01*
X-6690999Y+2837395D01*
X-6645909Y+2792305D01*
X-6645909Y+2514299D01*
X-6664959Y+2514299D01*
X-6664959Y+2285701D01*
X-6645909Y+2285701D01*
X-6645909Y+2002399D01*
X-6706399Y+2002399D01*
X-6706399Y+1697601D01*
X-6452399Y+1697601D01*
X-6452399Y+1663125D01*
X-6487725Y+1627799D01*
X-8312275Y+1627799D01*
X-8347601Y+1663125D01*
X-8347601Y+1697601D01*
X-8093601Y+1697601D01*
X-8093601Y+2002399D01*
X-8671451Y+2002399D01*
X-8671451Y+2285701D01*
X-8485041Y+2285701D01*
X-8485041Y+2317451D01*
X-8353199Y+2317451D01*
X-8353199Y+2266651D01*
X-7946801Y+2266651D01*
X-7946801Y+2533349D01*
X-8353199Y+2533349D01*
X-8353199Y+2482549D01*
X-8467451Y+2482549D01*
X-8467451Y+2802945D01*
X-8423001Y+2847395D01*
X-8423001Y+2952605D01*
X-8441847Y+2971451D01*
X-8404153Y+2971451D01*
X-8422999Y+2952605D01*
X-8422999Y+2847395D01*
X-8348605Y+2773001D01*
X-8243395Y+2773001D01*
X-8169001Y+2847395D01*
X-8169001Y+2952605D01*
X-8187847Y+2971451D01*
X-8134191Y+2971451D01*
X-7788049Y+2625309D01*
X-7788049Y+2533349D01*
X-7908699Y+2533349D01*
X-7908699Y+2266651D01*
X-7502301Y+2266651D01*
X-7502301Y+2533349D01*
X-7622951Y+2533349D01*
X-7622951Y+2693693D01*
X-7671307Y+2742049D01*
X-7671309Y+2742049D01*
X-7692261Y+2763001D01*
X-7569741Y+2763001D01*
X-7264299Y+2457559D01*
X-7264299Y+2411761D01*
X-7035701Y+2411761D01*
X-7035701Y+2614959D01*
X-7188219Y+2614959D01*
X-7336261Y+2763001D01*
X-7273395Y+2763001D01*
X-7199001Y+2837395D01*
X-7199001Y+2942605D01*
X-7273395Y+3016999D01*
X-7378605Y+3016999D01*
X-7452999Y+2942605D01*
X-7452999Y+2879739D01*
X-7453001Y+2879741D01*
X-7453001Y+3016999D01*
X-7706999Y+3016999D01*
X-7706999Y+2777739D01*
X-8065809Y+3136549D01*
X-8684191Y+3136549D01*
X-8793741Y+3026999D01*
X-8856605Y+3026999D01*
X-8930999Y+2952605D01*
X-8930999Y+2847395D01*
X-8882549Y+2798945D01*
X-8882549Y+2514299D01*
X-8901599Y+2514299D01*
X-8901599Y+2285701D01*
X-8836549Y+2285701D01*
X-8836549Y+2002399D01*
X-8906399Y+2002399D01*
X-8906399Y+1813125D01*
X-9017125Y+1702399D01*
X-9193601Y+1702399D01*
X-9193601Y+2002399D01*
X-9263451Y+2002399D01*
X-9263451Y+2195041D01*
X-9235701Y+2195041D01*
X-9235701Y+2398239D01*
X-9464299Y+2398239D01*
X-9464299Y+2195041D01*
X-9428549Y+2195041D01*
X-9428549Y+2002399D01*
X-10006399Y+2002399D01*
X-10006399Y+1761923D01*
X-10346874Y+2102399D01*
X-10412078Y+2102399D01*
X-10245202Y+2269275D01*
X-10245202Y+3023126D01*
X-10317601Y+3095525D01*
X-10317601Y+3679019D01*
X-9997559Y+3999061D01*
X-9898401Y+3999061D01*
X-9898401Y+4227659D01*
X-9917451Y+4227659D01*
X-9917451Y+4377879D01*
X-9922201Y+4387470D01*
X-9922201Y+4561759D01*
X-10277799Y+4561759D01*
X-10277799Y+4307761D01*
X-10082549Y+4307761D01*
X-10082549Y+4227659D01*
X-10101599Y+4227659D01*
X-10101599Y+4128501D01*
X-10111761Y+4118339D01*
X-10111761Y+4227659D01*
X-10314959Y+4227659D01*
X-10314959Y+3999061D01*
X-10231039Y+3999061D01*
X-10482699Y+3747401D01*
X-10482699Y+3090427D01*
X-10550000Y+3023126D01*
X-10550000Y+2395525D01*
X-10812399Y+2133126D01*
X-10812399Y+2100146D01*
X-10865832Y+2153579D01*
X-11034168Y+2153579D01*
X-11153199Y+2034548D01*
X-11153199Y+1866212D01*
X-11034168Y+1747181D01*
X-10865832Y+1747181D01*
X-10812399Y+1800614D01*
X-10812399Y+1689274D01*
X-10304084Y+1180959D01*
X-11270000Y+1180959D01*
X-11270000Y+6879041D01*
X-1927249Y+6879041D01*
X-1835959Y+6787751D01*
G37*
%LPC*%
G36*
X-3429001Y+6262201D02*
X-3473451Y+6262201D01*
X-3473451Y+6091094D01*
X-3441701Y+6059344D01*
X-3441701Y+5964656D01*
X-3508656Y+5897701D01*
X-3597451Y+5897701D01*
X-3597451Y+5495809D01*
X-3716261Y+5376999D01*
X-3683001Y+5376999D01*
X-3683001Y+5123001D01*
X-3936999Y+5123001D01*
X-3936999Y+5376999D01*
X-3892549Y+5376999D01*
X-3892549Y+5434191D01*
X-3762549Y+5564191D01*
X-3762549Y+5897808D01*
X-3762656Y+5897701D01*
X-3823559Y+5897701D01*
X-4005451Y+5715809D01*
X-4005451Y+4759055D01*
X-3990945Y+4744549D01*
X-3990844Y+4744549D01*
X-3990773Y+4744377D01*
X-3961001Y+4714605D01*
X-3961001Y+4672505D01*
X-3948627Y+4642633D01*
X-3961001Y+4630259D01*
X-3961001Y+4609395D01*
X-4035395Y+4535001D01*
X-4056259Y+4535001D01*
X-4068961Y+4522299D01*
X-4040656Y+4522299D01*
X-3973701Y+4455344D01*
X-3973701Y+4360656D01*
X-4040656Y+4293701D01*
X-4135344Y+4293701D01*
X-4202299Y+4360656D01*
X-4202299Y+4388961D01*
X-4325451Y+4265809D01*
X-4325451Y+2849291D01*
X-4296193Y+2878549D01*
X-4296191Y+2878549D01*
X-4242191Y+2932549D01*
X-3876191Y+2932549D01*
X-3476191Y+3332549D01*
X-2984191Y+3332549D01*
X-2576999Y+3739741D01*
X-2576999Y+3802605D01*
X-2502605Y+3876999D01*
X-2397395Y+3876999D01*
X-2323001Y+3802605D01*
X-2323001Y+3697395D01*
X-2397395Y+3623001D01*
X-2460259Y+3623001D01*
X-2915809Y+3167451D01*
X-3407809Y+3167451D01*
X-3807809Y+2767451D01*
X-4173809Y+2767451D01*
X-4179451Y+2761809D01*
X-4179451Y+2761807D01*
X-4486212Y+2452399D01*
X-4293601Y+2452399D01*
X-4293601Y+2147601D01*
X-4363451Y+2147601D01*
X-4363451Y+1809809D01*
X-4385461Y+1787799D01*
X-4193001Y+1787799D01*
X-4193001Y+1432201D01*
X-4446999Y+1432201D01*
X-4446999Y+1726261D01*
X-4447001Y+1726259D01*
X-4447001Y+1432201D01*
X-4700999Y+1432201D01*
X-4700999Y+1787799D01*
X-4618941Y+1787799D01*
X-4528549Y+1878191D01*
X-4528549Y+2147601D01*
X-4871451Y+2147601D01*
X-4871451Y+1888191D01*
X-4771059Y+1787799D01*
X-4701001Y+1787799D01*
X-4701001Y+1432201D01*
X-4954999Y+1432201D01*
X-4954999Y+1738259D01*
X-4955001Y+1738261D01*
X-4955001Y+1432201D01*
X-5208999Y+1432201D01*
X-5208999Y+1787799D01*
X-5004539Y+1787799D01*
X-5036549Y+1819809D01*
X-5036549Y+2147601D01*
X-5106399Y+2147601D01*
X-5106399Y+2452399D01*
X-4718742Y+2452399D01*
X-4490549Y+2682788D01*
X-4490549Y+4334191D01*
X-4214999Y+4609741D01*
X-4214999Y+4714605D01*
X-4170549Y+4759055D01*
X-4170549Y+5784191D01*
X-3927682Y+6027058D01*
X-3924299Y+6029793D01*
X-3924299Y+6059344D01*
X-3857344Y+6126299D01*
X-3793039Y+6126299D01*
X-3892549Y+6225809D01*
X-3892549Y+6262201D01*
X-3936999Y+6262201D01*
X-3936999Y+6617799D01*
X-3683001Y+6617799D01*
X-3683001Y+6262201D01*
X-3695461Y+6262201D01*
X-3638549Y+6205289D01*
X-3638549Y+6262201D01*
X-3682999Y+6262201D01*
X-3682999Y+6617799D01*
X-3429001Y+6617799D01*
X-3429001Y+6262201D01*
G37*
G36*
X-3682999Y+5197395D02*
X-3682999Y+5302605D01*
X-3608605Y+5376999D01*
X-3503395Y+5376999D01*
X-3429001Y+5302605D01*
X-3429001Y+5197395D01*
X-3503395Y+5123001D01*
X-3608605Y+5123001D01*
X-3682999Y+5197395D01*
G37*
G36*
X-3428999Y+5197395D02*
X-3428999Y+5302605D01*
X-3354605Y+5376999D01*
X-3249395Y+5376999D01*
X-3175001Y+5302605D01*
X-3175001Y+5197395D01*
X-3249395Y+5123001D01*
X-3354605Y+5123001D01*
X-3428999Y+5197395D01*
G37*
G36*
X-3174999Y+5197395D02*
X-3174999Y+5302605D01*
X-3100605Y+5376999D01*
X-2995395Y+5376999D01*
X-2921001Y+5302605D01*
X-2921001Y+5197395D01*
X-2995395Y+5123001D01*
X-3100605Y+5123001D01*
X-3174999Y+5197395D01*
G37*
G36*
X-2667001Y+5302605D02*
X-2667001Y+5197395D01*
X-2707451Y+5156945D01*
X-2707451Y+4984299D01*
X-2688401Y+4984299D01*
X-2688401Y+4755701D01*
X-2891599Y+4755701D01*
X-2891599Y+4984299D01*
X-2872549Y+4984299D01*
X-2872549Y+5148945D01*
X-2920999Y+5197395D01*
X-2920999Y+5302605D01*
X-2846605Y+5376999D01*
X-2741395Y+5376999D01*
X-2667001Y+5302605D01*
G37*
G36*
X-2666999Y+5197395D02*
X-2666999Y+5302605D01*
X-2592605Y+5376999D01*
X-2487395Y+5376999D01*
X-2413001Y+5302605D01*
X-2413001Y+5197395D01*
X-2487395Y+5123001D01*
X-2592605Y+5123001D01*
X-2666999Y+5197395D01*
G37*
G36*
X-2412999Y+5197395D02*
X-2412999Y+5302605D01*
X-2338605Y+5376999D01*
X-2233395Y+5376999D01*
X-2159001Y+5302605D01*
X-2159001Y+5197395D01*
X-2233395Y+5123001D01*
X-2338605Y+5123001D01*
X-2412999Y+5197395D01*
G37*
G36*
X-2158999Y+5197395D02*
X-2158999Y+5302605D01*
X-2084605Y+5376999D01*
X-1979395Y+5376999D01*
X-1905001Y+5302605D01*
X-1905001Y+5197395D01*
X-1979395Y+5123001D01*
X-2084605Y+5123001D01*
X-2158999Y+5197395D01*
G37*
G36*
X-1905001Y+6262201D02*
X-1949451Y+6262201D01*
X-1949451Y+6109055D01*
X-1905001Y+6064605D01*
X-1905001Y+5959395D01*
X-1979395Y+5885001D01*
X-2084605Y+5885001D01*
X-2158999Y+5959395D01*
X-2158999Y+6064605D01*
X-2114549Y+6109055D01*
X-2114549Y+6262201D01*
X-2158999Y+6262201D01*
X-2158999Y+6617799D01*
X-1905001Y+6617799D01*
X-1905001Y+6262201D01*
G37*
G36*
X-2159001Y+6262201D02*
X-2203451Y+6262201D01*
X-2203451Y+6109055D01*
X-2159001Y+6064605D01*
X-2159001Y+5959395D01*
X-2233395Y+5885001D01*
X-2338605Y+5885001D01*
X-2412999Y+5959395D01*
X-2412999Y+6064605D01*
X-2368549Y+6109055D01*
X-2368549Y+6262201D01*
X-2412999Y+6262201D01*
X-2412999Y+6617799D01*
X-2159001Y+6617799D01*
X-2159001Y+6262201D01*
G37*
G36*
X-2413001Y+6262201D02*
X-2457451Y+6262201D01*
X-2457451Y+6109055D01*
X-2413001Y+6064605D01*
X-2413001Y+5959395D01*
X-2487395Y+5885001D01*
X-2592605Y+5885001D01*
X-2666999Y+5959395D01*
X-2666999Y+6064605D01*
X-2622549Y+6109055D01*
X-2622549Y+6262201D01*
X-2666999Y+6262201D01*
X-2666999Y+6617799D01*
X-2413001Y+6617799D01*
X-2413001Y+6262201D01*
G37*
G36*
X-2667001Y+6262201D02*
X-2711451Y+6262201D01*
X-2711451Y+6109055D01*
X-2667001Y+6064605D01*
X-2667001Y+5959395D01*
X-2741395Y+5885001D01*
X-2846605Y+5885001D01*
X-2920999Y+5959395D01*
X-2920999Y+6064605D01*
X-2876549Y+6109055D01*
X-2876549Y+6262201D01*
X-2920999Y+6262201D01*
X-2920999Y+6617799D01*
X-2667001Y+6617799D01*
X-2667001Y+6262201D01*
G37*
G36*
X-2921001Y+6262201D02*
X-2965451Y+6262201D01*
X-2965451Y+6109055D01*
X-2921001Y+6064605D01*
X-2921001Y+5959395D01*
X-2995395Y+5885001D01*
X-3100605Y+5885001D01*
X-3174999Y+5959395D01*
X-3174999Y+6064605D01*
X-3130549Y+6109055D01*
X-3130549Y+6262201D01*
X-3174999Y+6262201D01*
X-3174999Y+6617799D01*
X-2921001Y+6617799D01*
X-2921001Y+6262201D01*
G37*
G36*
X-3175001Y+6262201D02*
X-3219451Y+6262201D01*
X-3219451Y+6109055D01*
X-3175001Y+6064605D01*
X-3175001Y+5959395D01*
X-3249395Y+5885001D01*
X-3354605Y+5885001D01*
X-3428999Y+5959395D01*
X-3428999Y+6064605D01*
X-3384549Y+6109055D01*
X-3384549Y+6262201D01*
X-3428999Y+6262201D01*
X-3428999Y+6617799D01*
X-3175001Y+6617799D01*
X-3175001Y+6262201D01*
G37*
G36*
X-8855979Y+4682619D02*
X-8627381Y+4682619D01*
X-8627381Y+4454021D01*
X-8855979Y+4454021D01*
X-8855979Y+4682619D01*
G37*
G36*
X-8614679Y+4515715D02*
X-8614679Y+4620925D01*
X-8540285Y+4695319D01*
X-8435075Y+4695319D01*
X-8360681Y+4620925D01*
X-8360681Y+4515715D01*
X-8435075Y+4441321D01*
X-8540285Y+4441321D01*
X-8614679Y+4515715D01*
G37*
G36*
X-8360679Y+4515715D02*
X-8360679Y+4620925D01*
X-8286285Y+4695319D01*
X-8181075Y+4695319D01*
X-8106681Y+4620925D01*
X-8106681Y+4515715D01*
X-8181075Y+4441321D01*
X-8286285Y+4441321D01*
X-8360679Y+4515715D01*
G37*
G36*
X-8106681Y+5382925D02*
X-8106681Y+5277715D01*
X-8151131Y+5233265D01*
X-8151131Y+5107871D01*
X-7738579Y+4695319D01*
X-7715421Y+4695319D01*
X-7434191Y+4976549D01*
X-6764299Y+4976549D01*
X-6764299Y+4991599D01*
X-6535701Y+4991599D01*
X-6535701Y+4832549D01*
X-6384191Y+4832549D01*
X-6314299Y+4902441D01*
X-6314299Y+4988239D01*
X-6228501Y+4988239D01*
X-6219367Y+4997373D01*
X-6197317Y+4988239D01*
X-6085701Y+4988239D01*
X-6085701Y+4785041D01*
X-6198219Y+4785041D01*
X-6315809Y+4667451D01*
X-7137207Y+4667451D01*
X-7090681Y+4620925D01*
X-7090681Y+4515715D01*
X-7165075Y+4441321D01*
X-7270285Y+4441321D01*
X-7344679Y+4515715D01*
X-7344679Y+4588581D01*
X-7344681Y+4588579D01*
X-7344681Y+4515715D01*
X-7419075Y+4441321D01*
X-7481941Y+4441321D01*
X-7223169Y+4182549D01*
X-6977809Y+4182549D01*
X-6574259Y+3778999D01*
X-6511395Y+3778999D01*
X-6437001Y+3704605D01*
X-6437001Y+3599395D01*
X-6511395Y+3525001D01*
X-6574259Y+3525001D01*
X-6931809Y+3167451D01*
X-8934191Y+3167451D01*
X-9301741Y+3535001D01*
X-9364605Y+3535001D01*
X-9438999Y+3609395D01*
X-9438999Y+3714605D01*
X-9364605Y+3788999D01*
X-9305739Y+3788999D01*
X-9382549Y+3865809D01*
X-9382549Y+4225041D01*
X-9414299Y+4225041D01*
X-9414299Y+4428239D01*
X-9185701Y+4428239D01*
X-9185701Y+4225041D01*
X-9217451Y+4225041D01*
X-9217451Y+3934191D01*
X-9072259Y+3788999D01*
X-9005395Y+3788999D01*
X-8931001Y+3714605D01*
X-8931001Y+3651741D01*
X-8930999Y+3651739D01*
X-8930999Y+3714605D01*
X-8856605Y+3788999D01*
X-8751395Y+3788999D01*
X-8677001Y+3714605D01*
X-8677001Y+3609395D01*
X-8751395Y+3535001D01*
X-8814261Y+3535001D01*
X-8811809Y+3532549D01*
X-7640153Y+3532549D01*
X-7706999Y+3599395D01*
X-7706999Y+3704605D01*
X-7632605Y+3778999D01*
X-7527395Y+3778999D01*
X-7453001Y+3704605D01*
X-7453001Y+3599395D01*
X-7519847Y+3532549D01*
X-7386153Y+3532549D01*
X-7452999Y+3599395D01*
X-7452999Y+3704605D01*
X-7378605Y+3778999D01*
X-7273395Y+3778999D01*
X-7199001Y+3704605D01*
X-7199001Y+3599395D01*
X-7265847Y+3532549D01*
X-7132153Y+3532549D01*
X-7198999Y+3599395D01*
X-7198999Y+3704605D01*
X-7124605Y+3778999D01*
X-7019395Y+3778999D01*
X-6945001Y+3704605D01*
X-6945001Y+3641739D01*
X-6944999Y+3641741D01*
X-6944999Y+3704605D01*
X-6870605Y+3778999D01*
X-6807739Y+3778999D01*
X-7046191Y+4017451D01*
X-7291551Y+4017451D01*
X-7502301Y+4228201D01*
X-7502301Y+3966651D01*
X-7908699Y+3966651D01*
X-7908699Y+4233349D01*
X-7507449Y+4233349D01*
X-7715421Y+4441321D01*
X-7778285Y+4441321D01*
X-7852679Y+4515715D01*
X-7852679Y+4575939D01*
X-7852681Y+4575941D01*
X-7852681Y+4515715D01*
X-7927075Y+4441321D01*
X-8032285Y+4441321D01*
X-8106679Y+4515715D01*
X-8106679Y+4620925D01*
X-8032285Y+4695319D01*
X-7972059Y+4695319D01*
X-8316229Y+5039489D01*
X-8316229Y+5233265D01*
X-8360679Y+5277715D01*
X-8360679Y+5382925D01*
X-8286285Y+5457319D01*
X-8181075Y+5457319D01*
X-8106681Y+5382925D01*
G37*
G36*
X-7344679Y+5277715D02*
X-7344679Y+5382925D01*
X-7270285Y+5457319D01*
X-7165075Y+5457319D01*
X-7090681Y+5382925D01*
X-7090681Y+5277715D01*
X-7165075Y+5203321D01*
X-7270285Y+5203321D01*
X-7344679Y+5277715D01*
G37*
G36*
X-7598679Y+5277715D02*
X-7598679Y+5382925D01*
X-7524285Y+5457319D01*
X-7419075Y+5457319D01*
X-7344681Y+5382925D01*
X-7344681Y+5277715D01*
X-7419075Y+5203321D01*
X-7524285Y+5203321D01*
X-7598679Y+5277715D01*
G37*
G36*
X-7852679Y+5277715D02*
X-7852679Y+5382925D01*
X-7778285Y+5457319D01*
X-7673075Y+5457319D01*
X-7598681Y+5382925D01*
X-7598681Y+5277715D01*
X-7673075Y+5203321D01*
X-7778285Y+5203321D01*
X-7852679Y+5277715D01*
G37*
G36*
X-8106679Y+5277715D02*
X-8106679Y+5382925D01*
X-8032285Y+5457319D01*
X-7927075Y+5457319D01*
X-7852681Y+5382925D01*
X-7852681Y+5277715D01*
X-7927075Y+5203321D01*
X-8032285Y+5203321D01*
X-8106679Y+5277715D01*
G37*
G36*
X-8614679Y+5277715D02*
X-8614679Y+5382925D01*
X-8540285Y+5457319D01*
X-8435075Y+5457319D01*
X-8360681Y+5382925D01*
X-8360681Y+5277715D01*
X-8435075Y+5203321D01*
X-8540285Y+5203321D01*
X-8614679Y+5277715D01*
G37*
G36*
X-9905041Y+6722720D02*
X-9899075Y+6718157D01*
X-9725877Y+6544959D01*
X-9685701Y+6544959D01*
X-9685701Y+6512441D01*
X-8659131Y+5485871D01*
X-8659131Y+5427375D01*
X-8614681Y+5382925D01*
X-8614681Y+5277715D01*
X-8689075Y+5203321D01*
X-8794285Y+5203321D01*
X-8837112Y+5246148D01*
X-8917451Y+5165809D01*
X-8917451Y+4484191D01*
X-8805809Y+4372549D01*
X-8705809Y+4372549D01*
X-8547559Y+4214299D01*
X-8448401Y+4214299D01*
X-8448401Y+4182549D01*
X-8353199Y+4182549D01*
X-8353199Y+4233349D01*
X-7946801Y+4233349D01*
X-7946801Y+3966651D01*
X-8353199Y+3966651D01*
X-8353199Y+4017451D01*
X-8448401Y+4017451D01*
X-8448401Y+3985701D01*
X-8467451Y+3985701D01*
X-8467451Y+3759055D01*
X-8423001Y+3714605D01*
X-8423001Y+3609395D01*
X-8497395Y+3535001D01*
X-8602605Y+3535001D01*
X-8676999Y+3609395D01*
X-8676999Y+3714605D01*
X-8632549Y+3759055D01*
X-8632549Y+3985701D01*
X-8651599Y+3985701D01*
X-8651599Y+4084859D01*
X-8661761Y+4095021D01*
X-8661761Y+3985701D01*
X-8864959Y+3985701D01*
X-8864959Y+4207451D01*
X-8874191Y+4207451D01*
X-9082549Y+4415809D01*
X-9082549Y+5234191D01*
X-8903871Y+5412869D01*
X-8838735Y+5412869D01*
X-8829172Y+5422432D01*
X-9685701Y+6278961D01*
X-9685701Y+6128401D01*
X-9711101Y+6128401D01*
X-9711101Y+6088319D01*
X-9685701Y+6088319D01*
X-9685701Y+5885121D01*
X-9914299Y+5885121D01*
X-9914299Y+6088319D01*
X-9888899Y+6088319D01*
X-9888899Y+6128401D01*
X-9914299Y+6128401D01*
X-9914299Y+6331599D01*
X-9738339Y+6331599D01*
X-9748501Y+6341761D01*
X-9914299Y+6341761D01*
X-9914299Y+6481937D01*
X-9921101Y+6488739D01*
X-9921101Y+6343177D01*
X-9922201Y+6342077D01*
X-9922201Y+6214961D01*
X-10277799Y+6214961D01*
X-10277799Y+6468959D01*
X-10098899Y+6468959D01*
X-10098899Y+6569061D01*
X-10108239Y+6569061D01*
X-10108239Y+6797659D01*
X-9905041Y+6797659D01*
X-9905041Y+6722720D01*
G37*
G36*
X-9922201Y+5757761D02*
X-9927451Y+5757761D01*
X-9927451Y+5657659D01*
X-9908401Y+5657659D01*
X-9908401Y+5429061D01*
X-9924091Y+5429061D01*
X-9924091Y+5357659D01*
X-9905041Y+5357659D01*
X-9905041Y+5287483D01*
X-9727741Y+5110183D01*
X-9727741Y+5098319D01*
X-9685701Y+5098319D01*
X-9685701Y+4999161D01*
X-9470731Y+4784191D01*
X-9470731Y+4042529D01*
X-9745809Y+3767451D01*
X-9745847Y+3767451D01*
X-9693001Y+3714605D01*
X-9693001Y+3609395D01*
X-9767395Y+3535001D01*
X-9826969Y+3535001D01*
X-9318967Y+3026999D01*
X-9259395Y+3026999D01*
X-9185001Y+2952605D01*
X-9185001Y+2847395D01*
X-9259395Y+2773001D01*
X-9364605Y+2773001D01*
X-9438999Y+2847395D01*
X-9438999Y+2913551D01*
X-9439001Y+2913553D01*
X-9439001Y+2847395D01*
X-9513395Y+2773001D01*
X-9576261Y+2773001D01*
X-9414859Y+2611599D01*
X-9235701Y+2611599D01*
X-9235701Y+2408401D01*
X-9464299Y+2408401D01*
X-9464299Y+2427559D01*
X-9809741Y+2773001D01*
X-9946999Y+2773001D01*
X-9946999Y+3026999D01*
X-9693001Y+3026999D01*
X-9693001Y+2889741D01*
X-9692999Y+2889739D01*
X-9692999Y+2952605D01*
X-9618605Y+3026999D01*
X-9552447Y+3026999D01*
X-9912899Y+3387451D01*
X-9914191Y+3387451D01*
X-10062549Y+3535809D01*
X-10062549Y+3764191D01*
X-9894191Y+3932549D01*
X-9814191Y+3932549D01*
X-9635829Y+4110911D01*
X-9635829Y+4715809D01*
X-9685701Y+4765681D01*
X-9685701Y+4681761D01*
X-9711101Y+4681761D01*
X-9711101Y+4644959D01*
X-9685701Y+4644959D01*
X-9685701Y+4441761D01*
X-9914299Y+4441761D01*
X-9914299Y+4644959D01*
X-9888899Y+4644959D01*
X-9888899Y+4681761D01*
X-9914299Y+4681761D01*
X-9914299Y+4803061D01*
X-9922201Y+4803061D01*
X-9922201Y+4764961D01*
X-10277799Y+4764961D01*
X-10277799Y+5018959D01*
X-9922201Y+5018959D01*
X-9922201Y+5016881D01*
X-9921653Y+5017429D01*
X-9914299Y+5023340D01*
X-9914299Y+5045297D01*
X-9998063Y+5129061D01*
X-10108239Y+5129061D01*
X-10108239Y+5357659D01*
X-10089189Y+5357659D01*
X-10089189Y+5429061D01*
X-10111599Y+5429061D01*
X-10111599Y+5657659D01*
X-10092549Y+5657659D01*
X-10092549Y+5757761D01*
X-10277799Y+5757761D01*
X-10277799Y+6011759D01*
X-9922201Y+6011759D01*
X-9922201Y+5757761D01*
G37*
G36*
X-9184999Y+2847395D02*
X-9184999Y+2952605D01*
X-9110605Y+3026999D01*
X-9005395Y+3026999D01*
X-8931001Y+2952605D01*
X-8931001Y+2847395D01*
X-9005395Y+2773001D01*
X-9110605Y+2773001D01*
X-9184999Y+2847395D01*
G37*
G36*
X-8422999Y+3609395D02*
X-8422999Y+3714605D01*
X-8348605Y+3788999D01*
X-8243395Y+3788999D01*
X-8169001Y+3714605D01*
X-8169001Y+3609395D01*
X-8243395Y+3535001D01*
X-8348605Y+3535001D01*
X-8422999Y+3609395D01*
G37*
G36*
X-9692999Y+3609395D02*
X-9692999Y+3714605D01*
X-9618605Y+3788999D01*
X-9513395Y+3788999D01*
X-9439001Y+3714605D01*
X-9439001Y+3609395D01*
X-9513395Y+3535001D01*
X-9618605Y+3535001D01*
X-9692999Y+3609395D01*
G37*
G36*
X-6626999Y+6293739D02*
X-6626999Y+6617799D01*
X-6373001Y+6617799D01*
X-6373001Y+6262201D01*
X-6595461Y+6262201D01*
X-6465809Y+6132549D01*
X-5924191Y+6132549D01*
X-5820549Y+6236191D01*
X-5820549Y+6262201D01*
X-5864999Y+6262201D01*
X-5864999Y+6617799D01*
X-5611001Y+6617799D01*
X-5611001Y+6262201D01*
X-5655451Y+6262201D01*
X-5655451Y+6167809D01*
X-5850711Y+5972549D01*
X-5344299Y+5972549D01*
X-5344299Y+5988239D01*
X-5115701Y+5988239D01*
X-5115701Y+5851039D01*
X-5084299Y+5882441D01*
X-5084299Y+5988239D01*
X-4855701Y+5988239D01*
X-4855701Y+5785041D01*
X-4948219Y+5785041D01*
X-5065809Y+5667451D01*
X-6684191Y+5667451D01*
X-7334191Y+6317451D01*
X-8114191Y+6317451D01*
X-8219741Y+6423001D01*
X-8356999Y+6423001D01*
X-8356999Y+6560261D01*
X-8357001Y+6560259D01*
X-8357001Y+6497395D01*
X-8431395Y+6423001D01*
X-8536605Y+6423001D01*
X-8610999Y+6497395D01*
X-8610999Y+6602605D01*
X-8536605Y+6676999D01*
X-8473741Y+6676999D01*
X-8338191Y+6812549D01*
X-7145809Y+6812549D01*
X-6626999Y+6293739D01*
G37*
G36*
X-8864999Y+6497395D02*
X-8864999Y+6602605D01*
X-8790605Y+6676999D01*
X-8685395Y+6676999D01*
X-8611001Y+6602605D01*
X-8611001Y+6497395D01*
X-8685395Y+6423001D01*
X-8790605Y+6423001D01*
X-8864999Y+6497395D01*
G37*
G36*
X-8864999Y+5735395D02*
X-8864999Y+5840605D01*
X-8790605Y+5914999D01*
X-8685395Y+5914999D01*
X-8611001Y+5840605D01*
X-8611001Y+5735395D01*
X-8685395Y+5661001D01*
X-8790605Y+5661001D01*
X-8864999Y+5735395D01*
G37*
G36*
X-8610999Y+5735395D02*
X-8610999Y+5840605D01*
X-8536605Y+5914999D01*
X-8431395Y+5914999D01*
X-8357001Y+5840605D01*
X-8357001Y+5735395D01*
X-8431395Y+5661001D01*
X-8536605Y+5661001D01*
X-8610999Y+5735395D01*
G37*
G36*
X-8356999Y+5735395D02*
X-8356999Y+5840605D01*
X-8282605Y+5914999D01*
X-8177395Y+5914999D01*
X-8103001Y+5840605D01*
X-8103001Y+5735395D01*
X-8177395Y+5661001D01*
X-8282605Y+5661001D01*
X-8356999Y+5735395D01*
G37*
G36*
X-7884999Y+5755395D02*
X-7884999Y+5860605D01*
X-7810605Y+5934999D01*
X-7705395Y+5934999D01*
X-7631001Y+5860605D01*
X-7631001Y+5755395D01*
X-7705395Y+5681001D01*
X-7810605Y+5681001D01*
X-7884999Y+5755395D01*
G37*
G36*
X-7630999Y+5755395D02*
X-7630999Y+5860605D01*
X-7556605Y+5934999D01*
X-7451395Y+5934999D01*
X-7377001Y+5860605D01*
X-7377001Y+5755395D01*
X-7451395Y+5681001D01*
X-7556605Y+5681001D01*
X-7630999Y+5755395D01*
G37*
G36*
X-7376999Y+5755395D02*
X-7376999Y+5860605D01*
X-7302605Y+5934999D01*
X-7197395Y+5934999D01*
X-7123001Y+5860605D01*
X-7123001Y+5755395D01*
X-7197395Y+5681001D01*
X-7302605Y+5681001D01*
X-7376999Y+5755395D01*
G37*
G36*
X-4849001Y+6262201D02*
X-4887451Y+6262201D01*
X-4887451Y+6201599D01*
X-4855701Y+6201599D01*
X-4855701Y+5998401D01*
X-5084299Y+5998401D01*
X-5084299Y+6201599D01*
X-5052549Y+6201599D01*
X-5052549Y+6262201D01*
X-5102999Y+6262201D01*
X-5102999Y+6617799D01*
X-4849001Y+6617799D01*
X-4849001Y+6262201D01*
G37*
G36*
X-5103001Y+6262201D02*
X-5147451Y+6262201D01*
X-5147451Y+6201599D01*
X-5115701Y+6201599D01*
X-5115701Y+5998401D01*
X-5344299Y+5998401D01*
X-5344299Y+6201599D01*
X-5312549Y+6201599D01*
X-5312549Y+6262201D01*
X-5356999Y+6262201D01*
X-5356999Y+6617799D01*
X-5103001Y+6617799D01*
X-5103001Y+6262201D01*
G37*
G36*
X-7198999Y+2837395D02*
X-7198999Y+2942605D01*
X-7124605Y+3016999D01*
X-7019395Y+3016999D01*
X-6945001Y+2942605D01*
X-6945001Y+2837395D01*
X-7019395Y+2763001D01*
X-7124605Y+2763001D01*
X-7198999Y+2837395D01*
G37*
G36*
X-6944999Y+2837395D02*
X-6944999Y+2942605D01*
X-6870605Y+3016999D01*
X-6765395Y+3016999D01*
X-6691001Y+2942605D01*
X-6691001Y+2837395D01*
X-6765395Y+2763001D01*
X-6870605Y+2763001D01*
X-6944999Y+2837395D01*
G37*
G36*
X-6182999Y+3599395D02*
X-6182999Y+3704605D01*
X-6108605Y+3778999D01*
X-6003395Y+3778999D01*
X-5929001Y+3704605D01*
X-5929001Y+3599395D01*
X-6003395Y+3525001D01*
X-6108605Y+3525001D01*
X-6182999Y+3599395D01*
G37*
G36*
X-5746801Y+3976651D02*
X-6153199Y+3976651D01*
X-6153199Y+4027451D01*
X-6198401Y+4027451D01*
X-6198401Y+3985701D01*
X-6227451Y+3985701D01*
X-6227451Y+3749055D01*
X-6183001Y+3704605D01*
X-6183001Y+3599395D01*
X-6257395Y+3525001D01*
X-6362605Y+3525001D01*
X-6436999Y+3599395D01*
X-6436999Y+3704605D01*
X-6392549Y+3749055D01*
X-6392549Y+3985701D01*
X-6401599Y+3985701D01*
X-6401599Y+4214299D01*
X-6198401Y+4214299D01*
X-6198401Y+4192549D01*
X-6153199Y+4192549D01*
X-6153199Y+4243349D01*
X-5746801Y+4243349D01*
X-5746801Y+3976651D01*
G37*
G36*
X-5708699Y+3976651D02*
X-5708699Y+4243349D01*
X-5302301Y+4243349D01*
X-5302301Y+3976651D01*
X-5708699Y+3976651D01*
G37*
G36*
X-6411761Y+3985701D02*
X-6614959Y+3985701D01*
X-6614959Y+4214299D01*
X-6411761Y+4214299D01*
X-6411761Y+3985701D01*
G37*
G36*
X-6535701Y+5188401D02*
X-6535701Y+5001761D01*
X-6764299Y+5001761D01*
X-6764299Y+5391599D01*
X-6535701Y+5391599D01*
X-6535701Y+5188401D01*
G37*
G36*
X-6085701Y+5185041D02*
X-6085701Y+4998401D01*
X-6314299Y+4998401D01*
X-6314299Y+5388239D01*
X-6085701Y+5388239D01*
X-6085701Y+5185041D01*
G37*
G36*
X-7035701Y+2198401D02*
X-7067451Y+2198401D01*
X-7067451Y+2002399D01*
X-6993601Y+2002399D01*
X-6993601Y+1697601D01*
X-7806399Y+1697601D01*
X-7806399Y+2002399D01*
X-7232549Y+2002399D01*
X-7232549Y+2198401D01*
X-7264299Y+2198401D01*
X-7264299Y+2401599D01*
X-7035701Y+2401599D01*
X-7035701Y+2198401D01*
G37*
G36*
X-3222533Y+3603202D02*
X-3348785Y+3603202D01*
X-3438058Y+3692475D01*
X-3438058Y+3818727D01*
X-3348785Y+3908000D01*
X-3222533Y+3908000D01*
X-3133260Y+3818727D01*
X-3133260Y+3692475D01*
X-3222533Y+3603202D01*
G37*
G36*
X-3222533Y+4111202D02*
X-3348785Y+4111202D01*
X-3438058Y+4200475D01*
X-3438058Y+4326727D01*
X-3348785Y+4416000D01*
X-3222533Y+4416000D01*
X-3133260Y+4326727D01*
X-3133260Y+4200475D01*
X-3222533Y+4111202D01*
G37*
G36*
X-2901761Y+4755701D02*
X-3104959Y+4755701D01*
X-3104959Y+4787451D01*
X-3238401Y+4787451D01*
X-3238401Y+4755701D01*
X-3438961Y+4755701D01*
X-3315809Y+4632549D01*
X-2715809Y+4632549D01*
X-2117451Y+4034191D01*
X-2117451Y+3465809D01*
X-2323381Y+3259879D01*
X-2323381Y+3197015D01*
X-2397775Y+3122621D01*
X-2460639Y+3122621D01*
X-2665809Y+2917451D01*
X-3319169Y+2917451D01*
X-3372321Y+2864299D01*
X-3238401Y+2864299D01*
X-3238401Y+2832549D01*
X-3144959Y+2832549D01*
X-3144959Y+2864299D01*
X-2941761Y+2864299D01*
X-2941761Y+2804981D01*
X-2931599Y+2815143D01*
X-2931599Y+2864299D01*
X-2728401Y+2864299D01*
X-2728401Y+2832858D01*
X-2546675Y+2832858D01*
X-2502605Y+2876928D01*
X-2397395Y+2876928D01*
X-2323001Y+2802534D01*
X-2323001Y+2788983D01*
X-2317831Y+2783813D01*
X-2317831Y+2735260D01*
X-2167071Y+2584500D01*
X-2167071Y+2011809D01*
X-2365429Y+1813451D01*
X-2919809Y+1813451D01*
X-2945461Y+1787799D01*
X-2919001Y+1787799D01*
X-2919001Y+1432201D01*
X-3172999Y+1432201D01*
X-3172999Y+1780261D01*
X-3173001Y+1780259D01*
X-3173001Y+1432201D01*
X-3426999Y+1432201D01*
X-3426999Y+1787799D01*
X-3382549Y+1787799D01*
X-3382549Y+1804191D01*
X-3074191Y+2112549D01*
X-2604191Y+2112549D01*
X-2549289Y+2167451D01*
X-2725041Y+2167451D01*
X-2725041Y+2135701D01*
X-2928239Y+2135701D01*
X-2928239Y+2364299D01*
X-2725041Y+2364299D01*
X-2725041Y+2332549D01*
X-2547055Y+2332549D01*
X-2502605Y+2376999D01*
X-2397395Y+2376999D01*
X-2332169Y+2311773D01*
X-2332169Y+2516118D01*
X-2438981Y+2622930D01*
X-2502605Y+2622930D01*
X-2547126Y+2667451D01*
X-2728401Y+2667451D01*
X-2728401Y+2635701D01*
X-2931599Y+2635701D01*
X-2931599Y+2684857D01*
X-2941761Y+2695019D01*
X-2941761Y+2635701D01*
X-3144959Y+2635701D01*
X-3144959Y+2667451D01*
X-3238401Y+2667451D01*
X-3238401Y+2635701D01*
X-3441599Y+2635701D01*
X-3441599Y+2795021D01*
X-3451761Y+2784859D01*
X-3451761Y+2635701D01*
X-3470811Y+2635701D01*
X-3470811Y+2364299D01*
X-3451761Y+2364299D01*
X-3451761Y+2135701D01*
X-3470811Y+2135701D01*
X-3470811Y+2118449D01*
X-3801461Y+1787799D01*
X-3685001Y+1787799D01*
X-3685001Y+1432201D01*
X-3938999Y+1432201D01*
X-3938999Y+1760261D01*
X-3939001Y+1760259D01*
X-3939001Y+1432201D01*
X-4192999Y+1432201D01*
X-4192999Y+1787799D01*
X-4144941Y+1787799D01*
X-3984191Y+1948549D01*
X-3874191Y+1948549D01*
X-3654959Y+2167781D01*
X-3654959Y+2364299D01*
X-3635909Y+2364299D01*
X-3635909Y+2635701D01*
X-3654959Y+2635701D01*
X-3654959Y+2864299D01*
X-3605801Y+2864299D01*
X-3387551Y+3082549D01*
X-2734191Y+3082549D01*
X-2577379Y+3239361D01*
X-2577379Y+3302225D01*
X-2502985Y+3376619D01*
X-2440121Y+3376619D01*
X-2282549Y+3534191D01*
X-2282549Y+3965809D01*
X-2784191Y+4467451D01*
X-3384191Y+4467451D01*
X-3635909Y+4719169D01*
X-3635909Y+4755701D01*
X-3654959Y+4755701D01*
X-3654959Y+4984299D01*
X-3451761Y+4984299D01*
X-3451761Y+4768501D01*
X-3441599Y+4758339D01*
X-3441599Y+4984299D01*
X-3238401Y+4984299D01*
X-3238401Y+4952549D01*
X-3104959Y+4952549D01*
X-3104959Y+4984299D01*
X-2901761Y+4984299D01*
X-2901761Y+4755701D01*
G37*
G36*
X-6764299Y+5401761D02*
X-6764299Y+5604959D01*
X-6535701Y+5604959D01*
X-6535701Y+5401761D01*
X-6764299Y+5401761D01*
G37*
G36*
X-6314299Y+5398401D02*
X-6314299Y+5601599D01*
X-6085701Y+5601599D01*
X-6085701Y+5398401D01*
X-6314299Y+5398401D01*
G37*
G36*
X-9185701Y+4668401D02*
X-9217451Y+4668401D01*
X-9217451Y+4641599D01*
X-9185701Y+4641599D01*
X-9185701Y+4438401D01*
X-9414299Y+4438401D01*
X-9414299Y+4641599D01*
X-9382549Y+4641599D01*
X-9382549Y+4668401D01*
X-9414299Y+4668401D01*
X-9414299Y+4871599D01*
X-9185701Y+4871599D01*
X-9185701Y+4668401D01*
G37*
G36*
X-11034168Y+1653199D02*
X-10865832Y+1653199D01*
X-10746801Y+1534168D01*
X-10746801Y+1365832D01*
X-10865832Y+1246801D01*
X-11034168Y+1246801D01*
X-11153199Y+1365832D01*
X-11153199Y+1534168D01*
X-11034168Y+1653199D01*
G37*
G36*
X-9414299Y+4881761D02*
X-9414299Y+5084959D01*
X-9185701Y+5084959D01*
X-9185701Y+4881761D01*
X-9414299Y+4881761D01*
G37*
G36*
X-2938401Y+2135701D02*
X-3141599Y+2135701D01*
X-3141599Y+2167451D01*
X-3238401Y+2167451D01*
X-3238401Y+2135701D01*
X-3441599Y+2135701D01*
X-3441599Y+2364299D01*
X-3238401Y+2364299D01*
X-3238401Y+2332549D01*
X-3141599Y+2332549D01*
X-3141599Y+2364299D01*
X-2938401Y+2364299D01*
X-2938401Y+2135701D01*
G37*
G36*
X-10321599Y+6797659D02*
X-10118401Y+6797659D01*
X-10118401Y+6569061D01*
X-10321599Y+6569061D01*
X-10321599Y+6797659D01*
G37*
G36*
X-11190929Y+4263311D02*
X-11190929Y+5063409D01*
X-10390831Y+5063409D01*
X-10390831Y+4263311D01*
X-11190929Y+4263311D01*
G37*
G36*
X-2918999Y+1787799D02*
X-2665001Y+1787799D01*
X-2665001Y+1432201D01*
X-2918999Y+1432201D01*
X-2918999Y+1787799D01*
G37*
G36*
X-2664999Y+1787799D02*
X-2411001Y+1787799D01*
X-2411001Y+1432201D01*
X-2664999Y+1432201D01*
X-2664999Y+1787799D01*
G37*
G36*
X-2410999Y+1787799D02*
X-2157001Y+1787799D01*
X-2157001Y+1432201D01*
X-2410999Y+1432201D01*
X-2410999Y+1787799D01*
G37*
G36*
X-2156999Y+1787799D02*
X-1903001Y+1787799D01*
X-1903001Y+1432201D01*
X-2156999Y+1432201D01*
X-2156999Y+1787799D01*
G37*
G36*
X-5716999Y+1787799D02*
X-5463001Y+1787799D01*
X-5463001Y+1432201D01*
X-5716999Y+1432201D01*
X-5716999Y+1787799D01*
G37*
G36*
X-5462999Y+1787799D02*
X-5209001Y+1787799D01*
X-5209001Y+1432201D01*
X-5462999Y+1432201D01*
X-5462999Y+1787799D01*
G37*
G36*
X-6372999Y+6617799D02*
X-6119001Y+6617799D01*
X-6119001Y+6262201D01*
X-6372999Y+6262201D01*
X-6372999Y+6617799D01*
G37*
G36*
X-6118999Y+6617799D02*
X-5865001Y+6617799D01*
X-5865001Y+6262201D01*
X-6118999Y+6262201D01*
X-6118999Y+6617799D01*
G37*
G36*
X-5610999Y+6617799D02*
X-5357001Y+6617799D01*
X-5357001Y+6262201D01*
X-5610999Y+6262201D01*
X-5610999Y+6617799D01*
G37*
G36*
X-4595001Y+6262201D02*
X-4639451Y+6262201D01*
X-4639451Y+6189055D01*
X-4593001Y+6142605D01*
X-4593001Y+6037395D01*
X-4667395Y+5963001D01*
X-4772605Y+5963001D01*
X-4846999Y+6037395D01*
X-4846999Y+6142605D01*
X-4804549Y+6185055D01*
X-4804549Y+6262201D01*
X-4848999Y+6262201D01*
X-4848999Y+6617799D01*
X-4595001Y+6617799D01*
X-4595001Y+6262201D01*
G37*
G36*
X-4341001Y+6262201D02*
X-4385451Y+6262201D01*
X-4385451Y+6185055D01*
X-4333001Y+6132605D01*
X-4333001Y+6027395D01*
X-4407395Y+5953001D01*
X-4512605Y+5953001D01*
X-4586999Y+6027395D01*
X-4586999Y+6132605D01*
X-4550549Y+6169055D01*
X-4550549Y+6262201D01*
X-4594999Y+6262201D01*
X-4594999Y+6617799D01*
X-4341001Y+6617799D01*
X-4341001Y+6262201D01*
G37*
G36*
X-4087001Y+6262201D02*
X-4131451Y+6262201D01*
X-4131451Y+6191055D01*
X-4073001Y+6132605D01*
X-4073001Y+6027395D01*
X-4147395Y+5953001D01*
X-4252605Y+5953001D01*
X-4326999Y+6027395D01*
X-4326999Y+6132605D01*
X-4296549Y+6163055D01*
X-4296549Y+6262201D01*
X-4340999Y+6262201D01*
X-4340999Y+6617799D01*
X-4087001Y+6617799D01*
X-4087001Y+6262201D01*
G37*
G36*
X-11190929Y+5713311D02*
X-11190929Y+6513409D01*
X-10390831Y+6513409D01*
X-10390831Y+5713311D01*
X-11190929Y+5713311D01*
G37*
G36*
X-10321599Y+5357659D02*
X-10118401Y+5357659D01*
X-10118401Y+5129061D01*
X-10321599Y+5129061D01*
X-10321599Y+5357659D01*
G37*
G36*
X-10324959Y+5657659D02*
X-10121761Y+5657659D01*
X-10121761Y+5429061D01*
X-10324959Y+5429061D01*
X-10324959Y+5657659D01*
G37*
G36*
X-9685701Y+5874959D02*
X-9685701Y+5671761D01*
X-9914299Y+5671761D01*
X-9914299Y+5874959D01*
X-9685701Y+5874959D01*
G37*
G36*
X-9685701Y+4431599D02*
X-9685701Y+4228401D01*
X-9914299Y+4228401D01*
X-9914299Y+4431599D01*
X-9685701Y+4431599D01*
G37*
G36*
X-4735701Y+4776299D02*
X-4735701Y+4547701D01*
X-4964299Y+4547701D01*
X-4964299Y+4776299D01*
X-4735701Y+4776299D01*
G37*
G36*
X-4897344Y+4522299D02*
X-4802656Y+4522299D01*
X-4735701Y+4455344D01*
X-4735701Y+4360656D01*
X-4802656Y+4293701D01*
X-4897344Y+4293701D01*
X-4964299Y+4360656D01*
X-4964299Y+4455344D01*
X-4897344Y+4522299D01*
G37*
G36*
X-4897344Y+4268299D02*
X-4802656Y+4268299D01*
X-4735701Y+4201344D01*
X-4735701Y+4106656D01*
X-4802656Y+4039701D01*
X-4897344Y+4039701D01*
X-4964299Y+4106656D01*
X-4964299Y+4201344D01*
X-4897344Y+4268299D01*
G37*
G36*
X-4897344Y+4014299D02*
X-4802656Y+4014299D01*
X-4735701Y+3947344D01*
X-4735701Y+3852656D01*
X-4802656Y+3785701D01*
X-4897344Y+3785701D01*
X-4964299Y+3852656D01*
X-4964299Y+3947344D01*
X-4897344Y+4014299D01*
G37*
G36*
X-4897344Y+3760299D02*
X-4802656Y+3760299D01*
X-4735701Y+3693344D01*
X-4735701Y+3598656D01*
X-4802656Y+3531701D01*
X-4897344Y+3531701D01*
X-4964299Y+3598656D01*
X-4964299Y+3693344D01*
X-4897344Y+3760299D01*
G37*
G36*
X-4897344Y+3506299D02*
X-4802656Y+3506299D01*
X-4735701Y+3439344D01*
X-4735701Y+3344656D01*
X-4802656Y+3277701D01*
X-4897344Y+3277701D01*
X-4964299Y+3344656D01*
X-4964299Y+3439344D01*
X-4897344Y+3506299D01*
G37*
G36*
X-4976999Y+3085395D02*
X-4976999Y+3190605D01*
X-4902605Y+3264999D01*
X-4797395Y+3264999D01*
X-4723001Y+3190605D01*
X-4723001Y+3085395D01*
X-4797395Y+3011001D01*
X-4902605Y+3011001D01*
X-4976999Y+3085395D01*
G37*
G36*
X-4135344Y+3252299D02*
X-4040656Y+3252299D01*
X-3973701Y+3185344D01*
X-3973701Y+3090656D01*
X-4040656Y+3023701D01*
X-4135344Y+3023701D01*
X-4202299Y+3090656D01*
X-4202299Y+3185344D01*
X-4135344Y+3252299D01*
G37*
G36*
X-4135344Y+3506299D02*
X-4040656Y+3506299D01*
X-3973701Y+3439344D01*
X-3973701Y+3344656D01*
X-4040656Y+3277701D01*
X-4135344Y+3277701D01*
X-4202299Y+3344656D01*
X-4202299Y+3439344D01*
X-4135344Y+3506299D01*
G37*
G36*
X-4214999Y+3593395D02*
X-4214999Y+3698605D01*
X-4140605Y+3772999D01*
X-4035395Y+3772999D01*
X-3961001Y+3698605D01*
X-3961001Y+3593395D01*
X-4035395Y+3519001D01*
X-4140605Y+3519001D01*
X-4214999Y+3593395D01*
G37*
G36*
X-4214999Y+3847395D02*
X-4214999Y+3952605D01*
X-4140605Y+4026999D01*
X-4035395Y+4026999D01*
X-3961001Y+3952605D01*
X-3961001Y+3847395D01*
X-4035395Y+3773001D01*
X-4140605Y+3773001D01*
X-4214999Y+3847395D01*
G37*
G36*
X-4135344Y+4268299D02*
X-4040656Y+4268299D01*
X-3973701Y+4201344D01*
X-3973701Y+4106656D01*
X-4040656Y+4039701D01*
X-4135344Y+4039701D01*
X-4202299Y+4106656D01*
X-4202299Y+4201344D01*
X-4135344Y+4268299D01*
G37*
G36*
X-10865832Y+2256421D02*
X-11034168Y+2256421D01*
X-11153199Y+2375452D01*
X-11153199Y+2543788D01*
X-11034168Y+2662819D01*
X-10865832Y+2662819D01*
X-10746801Y+2543788D01*
X-10746801Y+2375452D01*
X-10865832Y+2256421D01*
G37*
G36*
X-10865832Y+2756801D02*
X-11034168Y+2756801D01*
X-11153199Y+2875832D01*
X-11153199Y+3044168D01*
X-11034168Y+3163199D01*
X-10865832Y+3163199D01*
X-10746801Y+3044168D01*
X-10746801Y+2875832D01*
X-10865832Y+2756801D01*
G37*
G36*
X-1974168Y+2953199D02*
X-1805832Y+2953199D01*
X-1686801Y+2834168D01*
X-1686801Y+2665832D01*
X-1805832Y+2546801D01*
X-1974168Y+2546801D01*
X-2093199Y+2665832D01*
X-2093199Y+2834168D01*
X-1974168Y+2953199D01*
G37*
G36*
X-1974168Y+2452819D02*
X-1805832Y+2452819D01*
X-1686801Y+2333788D01*
X-1686801Y+2165452D01*
X-1805832Y+2046421D01*
X-1974168Y+2046421D01*
X-2093199Y+2165452D01*
X-2093199Y+2333788D01*
X-1974168Y+2452819D01*
G37*
G36*
X-1974168Y+4973199D02*
X-1805832Y+4973199D01*
X-1686801Y+4854168D01*
X-1686801Y+4685832D01*
X-1805832Y+4566801D01*
X-1974168Y+4566801D01*
X-2093199Y+4685832D01*
X-2093199Y+4854168D01*
X-1974168Y+4973199D01*
G37*
G36*
X-1974168Y+4472819D02*
X-1805832Y+4472819D01*
X-1686801Y+4353788D01*
X-1686801Y+4185452D01*
X-1805832Y+4066421D01*
X-1974168Y+4066421D01*
X-2093199Y+4185452D01*
X-2093199Y+4353788D01*
X-1974168Y+4472819D01*
G37*
G36*
X-1805832Y+3046801D02*
X-1974168Y+3046801D01*
X-2093199Y+3165832D01*
X-2093199Y+3334168D01*
X-1974168Y+3453199D01*
X-1805832Y+3453199D01*
X-1686801Y+3334168D01*
X-1686801Y+3165832D01*
X-1805832Y+3046801D01*
G37*
G36*
X-1805832Y+3547181D02*
X-1974168Y+3547181D01*
X-2093199Y+3666212D01*
X-2093199Y+3834548D01*
X-1974168Y+3953579D01*
X-1805832Y+3953579D01*
X-1686801Y+3834548D01*
X-1686801Y+3666212D01*
X-1805832Y+3547181D01*
G37*
%LPD*%
D10*
X-3553360Y+2750000D02*
X-3553360Y+2250000D01*
X-3340000Y+2250000D02*
X-3040000Y+2250000D01*
X-3340000Y+2750000D02*
X-3043360Y+2750000D01*
X-2450000Y+2749929D02*
X-2400380Y+2749620D01*
X-2461390Y+2750000D02*
X-2450000Y+2749929D01*
X-2461390Y+2750000D02*
X-2461340Y+2750000D01*
X-2450000Y+2749929D01*
X-2450000Y+2250000D02*
X-2400000Y+2250000D01*
X-3340000Y+4870000D02*
X-3003360Y+4870000D01*
X-6200000Y+5100000D02*
X-6200000Y+5286640D01*
X-6650000Y+5103360D02*
X-6650000Y+5239200D01*
X-6650000Y+5290000D01*
X-4970000Y+6100000D02*
X-4970000Y+6313000D01*
X-4976000Y+6440000D01*
X-5230000Y+6100000D02*
X-5230000Y+6440000D01*
X-4722000Y+6440000D02*
X-4722000Y+6166200D01*
X-4720000Y+6090000D01*
X-4468000Y+6440000D02*
X-4468000Y+6156200D01*
X-4460000Y+6080000D01*
X-4214000Y+6440000D02*
X-4214000Y+6156200D01*
X-4200000Y+6080000D01*
X-3810000Y+5250000D02*
X-3810000Y+5400000D01*
X-3680000Y+5530000D01*
X-3680000Y+6130000D01*
X-3810000Y+6260000D01*
X-3810000Y+6440000D01*
X-3556000Y+6012000D02*
X-3556000Y+6440000D01*
X-3302000Y+6440000D02*
X-3302000Y+6012000D01*
X-3048000Y+6012000D02*
X-3048000Y+6440000D01*
X-2794000Y+6440000D02*
X-2794000Y+6012000D01*
X-2540000Y+6440000D02*
X-2540000Y+6012000D01*
X-2286000Y+6440000D02*
X-2286000Y+6012000D01*
X-2032000Y+6440000D02*
X-2032000Y+6012000D01*
D11*
X-9800000Y+6230000D02*
X-9800000Y+6037520D01*
X-9800000Y+5986720D01*
X-9800000Y+4783360D02*
X-9800000Y+4543360D01*
D10*
X-5950000Y+4110000D02*
X-6290000Y+4110000D01*
X-6300000Y+4110000D01*
X-6300000Y+4100000D01*
X-6290000Y+4110000D01*
X-9058000Y+3662000D02*
X-8846000Y+3450000D01*
X-7020000Y+3450000D01*
X-6818000Y+3652000D01*
X-6564000Y+3652000D02*
X-6966000Y+3250000D01*
X-8900000Y+3250000D01*
X-9312000Y+3662000D01*
X-8800000Y+2400000D02*
X-8800000Y+2836500D01*
X-8804000Y+2900000D01*
X-8550000Y+2900000D02*
X-8550000Y+2463500D01*
X-8586640Y+2400000D01*
X-8550000Y+3662000D02*
X-8550000Y+4100000D01*
X-8302400Y+4100000D01*
X-8150000Y+4100000D01*
X-6563360Y+2400000D02*
X-6563360Y+2826500D01*
X-6564000Y+2890000D01*
X-6563360Y+2400000D02*
X-6563360Y+1951600D01*
X-6554000Y+1850000D01*
X-6350000Y+2400000D02*
X-5950000Y+2400000D01*
X-7150000Y+2300000D02*
X-7150000Y+1951600D01*
X-7146000Y+1850000D01*
X-7580000Y+2890000D02*
X-7213500Y+2523500D01*
X-7150000Y+2513360D01*
X-4088000Y+4662000D02*
X-4088000Y+5750000D01*
X-3873500Y+5964500D01*
X-3810000Y+6012000D01*
X-2790000Y+4870000D02*
X-2790000Y+5186500D01*
X-2797360Y+5250000D01*
X-2794000Y+5250000D01*
D11*
X-10006640Y+5243360D02*
X-10000000Y+5243360D01*
X-9996640Y+5243360D01*
X-9986640Y+5243360D01*
X-9816640Y+5073360D01*
X-9816640Y+4996720D01*
X-9800000Y+4996720D01*
X-10100000Y+6341960D02*
X-10048040Y+6341960D01*
X-10010000Y+6380000D01*
X-10010000Y+6680000D01*
X-10006640Y+6683360D01*
X-9955840Y+6649200D01*
X-9800800Y+6494160D01*
X-9800000Y+6443360D01*
D10*
X-6513360Y+4100000D02*
X-6513360Y+4250000D01*
X-6513360Y+4100000D02*
X-6650000Y+4100000D01*
X-6513360Y+4100000D02*
X-6513360Y+3950000D01*
X-8763360Y+4100000D02*
X-8900000Y+4100000D01*
X-8763360Y+4100000D02*
X-8763360Y+3950000D01*
X-9300000Y+4983360D02*
X-9300000Y+5083360D01*
X-6650000Y+5503360D02*
X-6750000Y+5503360D01*
X-6650000Y+5503360D02*
X-6650000Y+5600000D01*
X-6650000Y+5503360D02*
X-6550000Y+5503360D01*
X-6200000Y+5500000D02*
X-6300000Y+5500000D01*
X-6200000Y+5500000D02*
X-6200000Y+5600000D01*
X-6200000Y+5500000D02*
X-6100000Y+5500000D01*
X-9800000Y+5773360D02*
X-9700000Y+5773360D01*
X-9800000Y+4330000D02*
X-9800000Y+4213360D01*
X-9800000Y+4330000D02*
X-9700000Y+4330000D01*
X-10223360Y+5543360D02*
X-10223360Y+5663360D01*
X-10223360Y+5543360D02*
X-10223360Y+5413360D01*
X-10223360Y+5543360D02*
X-10323360Y+5543360D01*
X-5505500Y+4110000D02*
X-5505500Y+4250000D01*
X-5505500Y+4110000D02*
X-5505500Y+3950000D01*
X-5505500Y+4110000D02*
X-5700000Y+4110000D01*
X-7705500Y+4100000D02*
X-7705500Y+4250000D01*
X-7705500Y+4100000D02*
X-7705500Y+3950000D01*
X-7705500Y+4100000D02*
X-7500000Y+4100000D01*
X-7705500Y+4100000D02*
X-7900000Y+4100000D01*
X-2450380Y+3249620D02*
X-2200000Y+3500000D01*
X-2200000Y+4000000D01*
X-2750000Y+4550000D01*
X-3350000Y+4550000D01*
X-3553360Y+4753360D01*
X-3553360Y+4870000D01*
X-9566000Y+2900000D02*
X-9650000Y+2984000D01*
X-9566000Y+2900000D02*
X-9466000Y+2800000D01*
X-7333000Y+2897000D02*
X-7326000Y+2890000D01*
X-7236000Y+2800000D01*
X-7333000Y+2897000D02*
X-7426000Y+2990000D01*
X-7326000Y+2890000D02*
X-7236000Y+2980000D01*
X-6310000Y+3652000D02*
X-6310000Y+4036500D01*
X-6300000Y+4100000D01*
X-5505500Y+4110000D02*
X-5300000Y+4110000D01*
X-8754000Y+1800000D02*
X-8754000Y+1850000D01*
D12*
X-9575000Y+1575000D02*
X-9600000Y+1550000D01*
X-9550000Y+1550000D01*
X-9575000Y+1575000D01*
X-10410000Y+1950000D02*
X-10260000Y+1800000D01*
D10*
X-6350000Y+2400000D02*
X-6310000Y+2440000D01*
X-6310000Y+2890000D01*
D12*
X-6300000Y+1850000D02*
X-6300000Y+1600000D01*
X-6450000Y+1450000D01*
D10*
X-6564000Y+3652000D02*
X-7012000Y+4100000D01*
X-7257360Y+4100000D01*
X-7725680Y+4568320D01*
X-3046000Y+1610000D02*
X-3046000Y+1804000D01*
X-2954000Y+1896000D01*
X-2399620Y+1896000D01*
X-2249620Y+2046000D01*
X-2249620Y+2550309D01*
X-2389040Y+2689729D01*
X-2450000Y+2749929D01*
X-3300000Y+1610000D02*
X-3300000Y+1770000D01*
X-3040000Y+2030000D01*
X-2570000Y+2030000D01*
X-2450000Y+2150000D01*
X-2450000Y+2250000D01*
X-7217680Y+4568320D02*
X-7080000Y+4568320D01*
X-7217680Y+4568320D02*
X-7217680Y+4460000D01*
X-7326000Y+3652000D02*
X-7326000Y+3760000D01*
X-9566000Y+3662000D02*
X-9566000Y+3780000D01*
X-9566000Y+3662000D02*
X-9566000Y+3540000D01*
X-7654000Y+1850000D02*
X-7654000Y+2050000D01*
X-7654000Y+1850000D02*
X-7850000Y+1850000D01*
X-7654000Y+1850000D02*
X-7654000Y+1690000D01*
X-10220000Y+6683360D02*
X-10220000Y+6813360D01*
X-10220000Y+6683360D02*
X-10220000Y+6563360D01*
X-10220000Y+6683360D02*
X-10350000Y+6683360D01*
X-4066000Y+1610000D02*
X-4066000Y+1750000D01*
X-3950000Y+1866000D01*
X-3840000Y+1866000D01*
X-3553360Y+2152640D01*
X-3553360Y+2250000D01*
X-3553360Y+2750000D02*
X-3553360Y+2800000D01*
X-3353360Y+3000000D01*
X-2700000Y+3000000D01*
X-2450380Y+3249620D01*
X-2830000Y+2750000D02*
X-2830000Y+2750309D01*
X-2510960Y+2750309D01*
X-2461390Y+2750000D01*
X-2880000Y+2750000D02*
X-2830000Y+2750000D01*
X-2461390Y+2750000D01*
X-2826640Y+2250000D02*
X-2450000Y+2250000D01*
X-7725680Y+4568320D02*
X-7400000Y+4894000D01*
X-6713500Y+4894000D01*
X-6650000Y+4890000D01*
X-7471680Y+4568320D02*
X-7471680Y+4578320D01*
X-7300000Y+4750000D01*
X-6350000Y+4750000D01*
X-6200000Y+4900000D01*
X-6200000Y+4886640D01*
X-8230000Y+6550000D02*
X-8080000Y+6400000D01*
X-7300000Y+6400000D01*
X-6650000Y+5750000D01*
X-5100000Y+5750000D01*
X-4964160Y+5885840D01*
X-4970000Y+5886640D01*
X-8738000Y+5788000D02*
X-8738000Y+5900000D01*
X-8738000Y+5788000D02*
X-8850000Y+5788000D01*
X-8738000Y+5788000D02*
X-8738000Y+5670000D01*
X-7758000Y+5808000D02*
X-7758000Y+5930000D01*
X-7770000Y+5808000D02*
X-7758000Y+5808000D01*
X-7770000Y+5808000D02*
X-7900000Y+5808000D01*
X-7758000Y+5808000D02*
X-7758000Y+5680000D01*
D11*
X-10100000Y+4891960D02*
X-9921400Y+4891960D01*
X-9863500Y+4949860D01*
X-9800000Y+4996720D01*
D10*
X-10220000Y+5243360D02*
X-10220000Y+5373360D01*
X-10220000Y+5243360D02*
X-10220000Y+5093360D01*
X-10006640Y+5243360D02*
X-10006640Y+5479860D01*
X-10010000Y+5543360D01*
X-10010000Y+5808560D01*
X-10100000Y+5884760D01*
X-9800000Y+5773360D02*
X-9800000Y+5613360D01*
X-10000000Y+4113360D02*
X-10000000Y+4358560D01*
X-10100000Y+4434760D01*
D13*
X-10790880Y+6113360D02*
X-10380000Y+6113360D01*
X-10790880Y+5993360D02*
X-10380000Y+5993360D01*
X-10790880Y+6233360D02*
X-10380000Y+6233360D01*
X-10800000Y+6513360D02*
X-10800000Y+6233360D01*
X-10800000Y+6113360D01*
X-10800000Y+5993360D01*
X-10800000Y+5713360D01*
X-11200000Y+6113360D02*
X-10800000Y+6113360D01*
X-10790880Y+6113360D01*
X-11200000Y+5993360D02*
X-10800000Y+5993360D01*
X-10790880Y+5993360D01*
X-11200000Y+6233360D02*
X-10800000Y+6233360D01*
X-10790880Y+6233360D01*
X-10680000Y+6513360D02*
X-10680000Y+6233360D01*
X-10920000Y+6513360D02*
X-10920000Y+6233360D01*
X-10680000Y+5993360D02*
X-10680000Y+5713360D01*
X-10920000Y+5993360D02*
X-10920000Y+5713360D01*
X-10790880Y+4663360D02*
X-10380000Y+4663360D01*
X-10790880Y+4543360D02*
X-10380000Y+4543360D01*
X-10790880Y+4783360D02*
X-10380000Y+4783360D01*
X-10800000Y+5063360D02*
X-10800000Y+4783360D01*
X-10800000Y+4663360D01*
X-10800000Y+4543360D01*
X-10800000Y+4263360D01*
X-11200000Y+4663360D02*
X-10800000Y+4663360D01*
X-10790880Y+4663360D01*
X-11200000Y+4543360D02*
X-10800000Y+4543360D01*
X-10790880Y+4543360D01*
X-11200000Y+4783360D02*
X-10800000Y+4783360D01*
X-10790880Y+4783360D01*
X-10680000Y+5063360D02*
X-10680000Y+4783360D01*
X-10920000Y+5063360D02*
X-10920000Y+4783360D01*
X-10680000Y+4543360D02*
X-10680000Y+4263360D01*
X-10920000Y+4543360D02*
X-10920000Y+4263360D01*
D10*
X-9566000Y+3662000D02*
X-9478000Y+3750000D01*
X-9566000Y+3662000D02*
X-9660000Y+3568000D01*
X-9566000Y+3662000D02*
X-9654000Y+3750000D01*
X-9566000Y+3662000D02*
X-9474000Y+3570000D01*
X-7326000Y+3652000D02*
X-7238000Y+3740000D01*
X-7326000Y+3652000D02*
X-7414000Y+3740000D01*
X-7326000Y+2890000D02*
X-7326000Y+3010000D01*
X-7217680Y+4568320D02*
X-7129360Y+4480000D01*
X-7217680Y+4568320D02*
X-7310000Y+4476000D01*
X-7250000Y+6570000D02*
X-7218250Y+6548250D01*
X-6560000Y+5890000D01*
X-5230000Y+5890000D01*
X-5230000Y+5886640D01*
X-8233680Y+5330320D02*
X-8233680Y+5073680D01*
X-7728320Y+4568320D01*
X-7725680Y+4568320D01*
X-8586640Y+2400000D02*
X-8535840Y+2400000D01*
X-8150000Y+2400000D01*
X-8550000Y+4100000D02*
X-8740000Y+4290000D01*
X-8840000Y+4290000D01*
X-9000000Y+4450000D01*
X-9000000Y+5200000D01*
X-8869680Y+5330320D01*
X-8741680Y+5330320D01*
X-8754000Y+1850000D02*
X-8754000Y+2336500D01*
X-8750000Y+2400000D01*
X-8800000Y+2400000D01*
D12*
X-9550000Y+1550000D02*
X-8954000Y+1550000D01*
X-8754000Y+1750000D01*
X-8754000Y+1800000D01*
X-8500000Y+1850000D02*
X-8500000Y+1600000D01*
X-8350000Y+1450000D01*
D14*
X-6450000Y+1450000D02*
X-8350000Y+1450000D01*
D12*
X-9575000Y+1575000D02*
X-9475000Y+1575000D01*
X-9600000Y+1700000D01*
X-9600000Y+1850000D01*
D10*
X-9854000Y+1850000D02*
X-9854000Y+2000000D01*
X-9854000Y+1850000D02*
X-10020000Y+1850000D01*
X-9346000Y+1850000D02*
X-9346000Y+2245840D01*
X-9350000Y+2296640D01*
X-9820000Y+2900000D02*
X-9430000Y+2510000D01*
X-9350000Y+2510000D01*
D12*
X-10260000Y+1800000D02*
X-10010000Y+1550000D01*
X-9600000Y+1550000D01*
X-10397601Y+2720000D02*
X-10397601Y+2960000D01*
X-8350000Y+1450000D02*
X-8400000Y+1450000D01*
D14*
X-8500000Y+1450000D01*
D12*
X-8650000Y+1300000D01*
X-10207601Y+1300000D01*
X-10660000Y+1752399D01*
X-10660000Y+2070001D01*
X-10397601Y+2332400D01*
X-10397601Y+2720000D01*
D10*
X-9800000Y+4996720D02*
X-9553280Y+4750000D01*
X-9553280Y+4076720D01*
X-9780000Y+3850000D01*
X-9860000Y+3850000D01*
X-9980000Y+3730000D01*
X-9980000Y+3570000D01*
X-9880000Y+3470000D01*
X-9878708Y+3470000D01*
X-9372208Y+2963500D01*
X-9312000Y+2900000D01*
X-9800000Y+6443360D02*
X-9733360Y+6443360D01*
X-8741680Y+5451680D01*
X-8741680Y+5330320D01*
X-7344000Y+6730000D02*
X-8304000Y+6730000D01*
X-8484000Y+6550000D01*
X-7344000Y+6730000D02*
X-7504000Y+6570000D01*
X-5738000Y+6440000D02*
X-5738000Y+6202000D01*
X-5890000Y+6050000D01*
X-6500000Y+6050000D01*
X-7180000Y+6730000D01*
X-7344000Y+6730000D01*
X-10000000Y+4113360D02*
X-10400150Y+3713210D01*
X-10400150Y+2960000D01*
X-10397601Y+2960000D01*
X-9300000Y+4326640D02*
X-9300000Y+3900000D01*
X-9062000Y+3662000D01*
X-9058000Y+3662000D01*
X-9300000Y+4983360D02*
X-9420000Y+4983360D01*
X-9300000Y+4983360D02*
X-9180000Y+4983360D01*
X-9300000Y+4540000D02*
X-9300000Y+4770000D01*
X-4088000Y+4662000D02*
X-4046000Y+4662000D01*
X-4408000Y+4300000D01*
X-4408000Y+2650000D01*
X-4828000Y+1610000D02*
X-4830000Y+1610000D01*
X-4830000Y+1730000D01*
X-4954000Y+1854000D01*
X-4954000Y+2300000D01*
X-4574000Y+1610000D02*
X-4570000Y+1610000D01*
X-4570000Y+1720000D01*
X-4446000Y+1844000D01*
X-4446000Y+2300000D01*
X-4262000Y+2796000D02*
X-4701246Y+2352754D01*
X-4700000Y+2300000D01*
X-4408000Y+2650000D02*
X-4262000Y+2796000D01*
X-4208000Y+2850000D01*
X-3842000Y+2850000D01*
X-3442000Y+3250000D01*
X-2950000Y+3250000D01*
X-2450000Y+3750000D01*
X-8804000Y+2900000D02*
X-8650000Y+3054000D01*
X-8100000Y+3054000D01*
X-7705500Y+2659500D01*
X-7705500Y+2400000D01*
X-6564000Y+2890000D02*
X-6404000Y+3050000D01*
X-5900000Y+3050000D01*
X-5500000Y+2650000D01*
X-5500000Y+2482550D01*
X-5505500Y+2400000D01*
X-10220000Y+5243360D02*
X-10330000Y+5243360D01*
D15*
X-1835959Y+6787751D02*
X-1835959Y+5394750D01*
X-1800249Y+5359041D01*
X-1581959Y+5140751D01*
X-1581959Y+1889249D01*
X-1835959Y+1635250D01*
X-1835959Y+1180959D01*
X-8553517Y+1180959D01*
X-8462275Y+1272201D01*
X-6376353Y+1272201D01*
X-6272201Y+1376353D01*
X-6272201Y+1412275D01*
X-6147601Y+1536875D01*
X-6147601Y+1697601D01*
X-5893601Y+1697601D01*
X-5893601Y+2002399D01*
X-6480811Y+2002399D01*
X-6480811Y+2285701D01*
X-6461761Y+2285701D01*
X-6461761Y+2514299D01*
X-6480811Y+2514299D01*
X-6480811Y+2793585D01*
X-6437001Y+2837395D01*
X-6437001Y+2900259D01*
X-6436999Y+2900261D01*
X-6436999Y+2837395D01*
X-6392549Y+2792945D01*
X-6392549Y+2514299D01*
X-6451599Y+2514299D01*
X-6451599Y+2285701D01*
X-6248401Y+2285701D01*
X-6248401Y+2317451D01*
X-6153199Y+2317451D01*
X-6153199Y+2266651D01*
X-5746801Y+2266651D01*
X-5746801Y+2533349D01*
X-6153199Y+2533349D01*
X-6153199Y+2482549D01*
X-6227451Y+2482549D01*
X-6227451Y+2792945D01*
X-6183001Y+2837395D01*
X-6183001Y+2942605D01*
X-6207847Y+2967451D01*
X-6158153Y+2967451D01*
X-6182999Y+2942605D01*
X-6182999Y+2837395D01*
X-6108605Y+2763001D01*
X-6003395Y+2763001D01*
X-5929001Y+2837395D01*
X-5929001Y+2942605D01*
X-5953847Y+2967451D01*
X-5934191Y+2967451D01*
X-5582549Y+2615809D01*
X-5582549Y+2533349D01*
X-5708699Y+2533349D01*
X-5708699Y+2266651D01*
X-5302301Y+2266651D01*
X-5302301Y+2533349D01*
X-5417451Y+2533349D01*
X-5417451Y+2684193D01*
X-5465807Y+2732549D01*
X-5465809Y+2732549D01*
X-5865809Y+3132549D01*
X-6438191Y+3132549D01*
X-6553741Y+3016999D01*
X-6616605Y+3016999D01*
X-6690999Y+2942605D01*
X-6690999Y+2837395D01*
X-6645909Y+2792305D01*
X-6645909Y+2514299D01*
X-6664959Y+2514299D01*
X-6664959Y+2285701D01*
X-6645909Y+2285701D01*
X-6645909Y+2002399D01*
X-6706399Y+2002399D01*
X-6706399Y+1697601D01*
X-6452399Y+1697601D01*
X-6452399Y+1663125D01*
X-6487725Y+1627799D01*
X-8312275Y+1627799D01*
X-8347601Y+1663125D01*
X-8347601Y+1697601D01*
X-8093601Y+1697601D01*
X-8093601Y+2002399D01*
X-8671451Y+2002399D01*
X-8671451Y+2285701D01*
X-8485041Y+2285701D01*
X-8485041Y+2317451D01*
X-8353199Y+2317451D01*
X-8353199Y+2266651D01*
X-7946801Y+2266651D01*
X-7946801Y+2533349D01*
X-8353199Y+2533349D01*
X-8353199Y+2482549D01*
X-8467451Y+2482549D01*
X-8467451Y+2802945D01*
X-8423001Y+2847395D01*
X-8423001Y+2952605D01*
X-8441847Y+2971451D01*
X-8404153Y+2971451D01*
X-8422999Y+2952605D01*
X-8422999Y+2847395D01*
X-8348605Y+2773001D01*
X-8243395Y+2773001D01*
X-8169001Y+2847395D01*
X-8169001Y+2952605D01*
X-8187847Y+2971451D01*
X-8134191Y+2971451D01*
X-7788049Y+2625309D01*
X-7788049Y+2533349D01*
X-7908699Y+2533349D01*
X-7908699Y+2266651D01*
X-7502301Y+2266651D01*
X-7502301Y+2533349D01*
X-7622951Y+2533349D01*
X-7622951Y+2693693D01*
X-7671307Y+2742049D01*
X-7671309Y+2742049D01*
X-7692261Y+2763001D01*
X-7569741Y+2763001D01*
X-7264299Y+2457559D01*
X-7264299Y+2411761D01*
X-7035701Y+2411761D01*
X-7035701Y+2614959D01*
X-7188219Y+2614959D01*
X-7336261Y+2763001D01*
X-7273395Y+2763001D01*
X-7199001Y+2837395D01*
X-7199001Y+2942605D01*
X-7273395Y+3016999D01*
X-7378605Y+3016999D01*
X-7452999Y+2942605D01*
X-7452999Y+2879739D01*
X-7453001Y+2879741D01*
X-7453001Y+3016999D01*
X-7706999Y+3016999D01*
X-7706999Y+2777739D01*
X-8065809Y+3136549D01*
X-8684191Y+3136549D01*
X-8793741Y+3026999D01*
X-8856605Y+3026999D01*
X-8930999Y+2952605D01*
X-8930999Y+2847395D01*
X-8882549Y+2798945D01*
X-8882549Y+2514299D01*
X-8901599Y+2514299D01*
X-8901599Y+2285701D01*
X-8836549Y+2285701D01*
X-8836549Y+2002399D01*
X-8906399Y+2002399D01*
X-8906399Y+1813125D01*
X-9017125Y+1702399D01*
X-9193601Y+1702399D01*
X-9193601Y+2002399D01*
X-9263451Y+2002399D01*
X-9263451Y+2195041D01*
X-9235701Y+2195041D01*
X-9235701Y+2398239D01*
X-9464299Y+2398239D01*
X-9464299Y+2195041D01*
X-9428549Y+2195041D01*
X-9428549Y+2002399D01*
X-10006399Y+2002399D01*
X-10006399Y+1761923D01*
X-10346874Y+2102399D01*
X-10412078Y+2102399D01*
X-10245202Y+2269275D01*
X-10245202Y+3023126D01*
X-10317601Y+3095525D01*
X-10317601Y+3679019D01*
X-9997559Y+3999061D01*
X-9898401Y+3999061D01*
X-9898401Y+4227659D01*
X-9917451Y+4227659D01*
X-9917451Y+4377879D01*
X-9922201Y+4387470D01*
X-9922201Y+4561759D01*
X-10277799Y+4561759D01*
X-10277799Y+4307761D01*
X-10082549Y+4307761D01*
X-10082549Y+4227659D01*
X-10101599Y+4227659D01*
X-10101599Y+4128501D01*
X-10111761Y+4118339D01*
X-10111761Y+4227659D01*
X-10314959Y+4227659D01*
X-10314959Y+3999061D01*
X-10231039Y+3999061D01*
X-10482699Y+3747401D01*
X-10482699Y+3090427D01*
X-10550000Y+3023126D01*
X-10550000Y+2395525D01*
X-10812399Y+2133126D01*
X-10812399Y+2100146D01*
X-10865832Y+2153579D01*
X-11034168Y+2153579D01*
X-11153199Y+2034548D01*
X-11153199Y+1866212D01*
X-11034168Y+1747181D01*
X-10865832Y+1747181D01*
X-10812399Y+1800614D01*
X-10812399Y+1689274D01*
X-10304084Y+1180959D01*
X-11270000Y+1180959D01*
X-11270000Y+6879041D01*
X-1927249Y+6879041D01*
X-1835959Y+6787751D01*
X-3429001Y+6262201D02*
X-3473451Y+6262201D01*
X-3473451Y+6091094D01*
X-3441701Y+6059344D01*
X-3441701Y+5964656D01*
X-3508656Y+5897701D01*
X-3597451Y+5897701D01*
X-3597451Y+5495809D01*
X-3716261Y+5376999D01*
X-3683001Y+5376999D01*
X-3683001Y+5123001D01*
X-3936999Y+5123001D01*
X-3936999Y+5376999D01*
X-3892549Y+5376999D01*
X-3892549Y+5434191D01*
X-3762549Y+5564191D01*
X-3762549Y+5897808D01*
X-3762656Y+5897701D01*
X-3823559Y+5897701D01*
X-4005451Y+5715809D01*
X-4005451Y+4759055D01*
X-3990945Y+4744549D01*
X-3990844Y+4744549D01*
X-3990773Y+4744377D01*
X-3961001Y+4714605D01*
X-3961001Y+4672505D01*
X-3948627Y+4642633D01*
X-3961001Y+4630259D01*
X-3961001Y+4609395D01*
X-4035395Y+4535001D01*
X-4056259Y+4535001D01*
X-4068961Y+4522299D01*
X-4040656Y+4522299D01*
X-3973701Y+4455344D01*
X-3973701Y+4360656D01*
X-4040656Y+4293701D01*
X-4135344Y+4293701D01*
X-4202299Y+4360656D01*
X-4202299Y+4388961D01*
X-4325451Y+4265809D01*
X-4325451Y+2849291D01*
X-4296193Y+2878549D01*
X-4296191Y+2878549D01*
X-4242191Y+2932549D01*
X-3876191Y+2932549D01*
X-3476191Y+3332549D01*
X-2984191Y+3332549D01*
X-2576999Y+3739741D01*
X-2576999Y+3802605D01*
X-2502605Y+3876999D01*
X-2397395Y+3876999D01*
X-2323001Y+3802605D01*
X-2323001Y+3697395D01*
X-2397395Y+3623001D01*
X-2460259Y+3623001D01*
X-2915809Y+3167451D01*
X-3407809Y+3167451D01*
X-3807809Y+2767451D01*
X-4173809Y+2767451D01*
X-4179451Y+2761809D01*
X-4179451Y+2761807D01*
X-4486212Y+2452399D01*
X-4293601Y+2452399D01*
X-4293601Y+2147601D01*
X-4363451Y+2147601D01*
X-4363451Y+1809809D01*
X-4385461Y+1787799D01*
X-4193001Y+1787799D01*
X-4193001Y+1432201D01*
X-4446999Y+1432201D01*
X-4446999Y+1726261D01*
X-4447001Y+1726259D01*
X-4447001Y+1432201D01*
X-4700999Y+1432201D01*
X-4700999Y+1787799D01*
X-4618941Y+1787799D01*
X-4528549Y+1878191D01*
X-4528549Y+2147601D01*
X-4871451Y+2147601D01*
X-4871451Y+1888191D01*
X-4771059Y+1787799D01*
X-4701001Y+1787799D01*
X-4701001Y+1432201D01*
X-4954999Y+1432201D01*
X-4954999Y+1738259D01*
X-4955001Y+1738261D01*
X-4955001Y+1432201D01*
X-5208999Y+1432201D01*
X-5208999Y+1787799D01*
X-5004539Y+1787799D01*
X-5036549Y+1819809D01*
X-5036549Y+2147601D01*
X-5106399Y+2147601D01*
X-5106399Y+2452399D01*
X-4718742Y+2452399D01*
X-4490549Y+2682788D01*
X-4490549Y+4334191D01*
X-4214999Y+4609741D01*
X-4214999Y+4714605D01*
X-4170549Y+4759055D01*
X-4170549Y+5784191D01*
X-3927682Y+6027058D01*
X-3924299Y+6029793D01*
X-3924299Y+6059344D01*
X-3857344Y+6126299D01*
X-3793039Y+6126299D01*
X-3892549Y+6225809D01*
X-3892549Y+6262201D01*
X-3936999Y+6262201D01*
X-3936999Y+6617799D01*
X-3683001Y+6617799D01*
X-3683001Y+6262201D01*
X-3695461Y+6262201D01*
X-3638549Y+6205289D01*
X-3638549Y+6262201D01*
X-3682999Y+6262201D01*
X-3682999Y+6617799D01*
X-3429001Y+6617799D01*
X-3429001Y+6262201D01*
X-3682999Y+5197395D02*
X-3682999Y+5302605D01*
X-3608605Y+5376999D01*
X-3503395Y+5376999D01*
X-3429001Y+5302605D01*
X-3429001Y+5197395D01*
X-3503395Y+5123001D01*
X-3608605Y+5123001D01*
X-3682999Y+5197395D01*
X-3428999Y+5197395D02*
X-3428999Y+5302605D01*
X-3354605Y+5376999D01*
X-3249395Y+5376999D01*
X-3175001Y+5302605D01*
X-3175001Y+5197395D01*
X-3249395Y+5123001D01*
X-3354605Y+5123001D01*
X-3428999Y+5197395D01*
X-3174999Y+5197395D02*
X-3174999Y+5302605D01*
X-3100605Y+5376999D01*
X-2995395Y+5376999D01*
X-2921001Y+5302605D01*
X-2921001Y+5197395D01*
X-2995395Y+5123001D01*
X-3100605Y+5123001D01*
X-3174999Y+5197395D01*
X-2667001Y+5302605D02*
X-2667001Y+5197395D01*
X-2707451Y+5156945D01*
X-2707451Y+4984299D01*
X-2688401Y+4984299D01*
X-2688401Y+4755701D01*
X-2891599Y+4755701D01*
X-2891599Y+4984299D01*
X-2872549Y+4984299D01*
X-2872549Y+5148945D01*
X-2920999Y+5197395D01*
X-2920999Y+5302605D01*
X-2846605Y+5376999D01*
X-2741395Y+5376999D01*
X-2667001Y+5302605D01*
X-2666999Y+5197395D02*
X-2666999Y+5302605D01*
X-2592605Y+5376999D01*
X-2487395Y+5376999D01*
X-2413001Y+5302605D01*
X-2413001Y+5197395D01*
X-2487395Y+5123001D01*
X-2592605Y+5123001D01*
X-2666999Y+5197395D01*
X-2412999Y+5197395D02*
X-2412999Y+5302605D01*
X-2338605Y+5376999D01*
X-2233395Y+5376999D01*
X-2159001Y+5302605D01*
X-2159001Y+5197395D01*
X-2233395Y+5123001D01*
X-2338605Y+5123001D01*
X-2412999Y+5197395D01*
X-2158999Y+5197395D02*
X-2158999Y+5302605D01*
X-2084605Y+5376999D01*
X-1979395Y+5376999D01*
X-1905001Y+5302605D01*
X-1905001Y+5197395D01*
X-1979395Y+5123001D01*
X-2084605Y+5123001D01*
X-2158999Y+5197395D01*
X-1905001Y+6262201D02*
X-1949451Y+6262201D01*
X-1949451Y+6109055D01*
X-1905001Y+6064605D01*
X-1905001Y+5959395D01*
X-1979395Y+5885001D01*
X-2084605Y+5885001D01*
X-2158999Y+5959395D01*
X-2158999Y+6064605D01*
X-2114549Y+6109055D01*
X-2114549Y+6262201D01*
X-2158999Y+6262201D01*
X-2158999Y+6617799D01*
X-1905001Y+6617799D01*
X-1905001Y+6262201D01*
X-2159001Y+6262201D02*
X-2203451Y+6262201D01*
X-2203451Y+6109055D01*
X-2159001Y+6064605D01*
X-2159001Y+5959395D01*
X-2233395Y+5885001D01*
X-2338605Y+5885001D01*
X-2412999Y+5959395D01*
X-2412999Y+6064605D01*
X-2368549Y+6109055D01*
X-2368549Y+6262201D01*
X-2412999Y+6262201D01*
X-2412999Y+6617799D01*
X-2159001Y+6617799D01*
X-2159001Y+6262201D01*
X-2413001Y+6262201D02*
X-2457451Y+6262201D01*
X-2457451Y+6109055D01*
X-2413001Y+6064605D01*
X-2413001Y+5959395D01*
X-2487395Y+5885001D01*
X-2592605Y+5885001D01*
X-2666999Y+5959395D01*
X-2666999Y+6064605D01*
X-2622549Y+6109055D01*
X-2622549Y+6262201D01*
X-2666999Y+6262201D01*
X-2666999Y+6617799D01*
X-2413001Y+6617799D01*
X-2413001Y+6262201D01*
X-2667001Y+6262201D02*
X-2711451Y+6262201D01*
X-2711451Y+6109055D01*
X-2667001Y+6064605D01*
X-2667001Y+5959395D01*
X-2741395Y+5885001D01*
X-2846605Y+5885001D01*
X-2920999Y+5959395D01*
X-2920999Y+6064605D01*
X-2876549Y+6109055D01*
X-2876549Y+6262201D01*
X-2920999Y+6262201D01*
X-2920999Y+6617799D01*
X-2667001Y+6617799D01*
X-2667001Y+6262201D01*
X-2921001Y+6262201D02*
X-2965451Y+6262201D01*
X-2965451Y+6109055D01*
X-2921001Y+6064605D01*
X-2921001Y+5959395D01*
X-2995395Y+5885001D01*
X-3100605Y+5885001D01*
X-3174999Y+5959395D01*
X-3174999Y+6064605D01*
X-3130549Y+6109055D01*
X-3130549Y+6262201D01*
X-3174999Y+6262201D01*
X-3174999Y+6617799D01*
X-2921001Y+6617799D01*
X-2921001Y+6262201D01*
X-3175001Y+6262201D02*
X-3219451Y+6262201D01*
X-3219451Y+6109055D01*
X-3175001Y+6064605D01*
X-3175001Y+5959395D01*
X-3249395Y+5885001D01*
X-3354605Y+5885001D01*
X-3428999Y+5959395D01*
X-3428999Y+6064605D01*
X-3384549Y+6109055D01*
X-3384549Y+6262201D01*
X-3428999Y+6262201D01*
X-3428999Y+6617799D01*
X-3175001Y+6617799D01*
X-3175001Y+6262201D01*
X-8855979Y+4682619D02*
X-8627381Y+4682619D01*
X-8627381Y+4454021D01*
X-8855979Y+4454021D01*
X-8855979Y+4682619D01*
X-8614679Y+4515715D02*
X-8614679Y+4620925D01*
X-8540285Y+4695319D01*
X-8435075Y+4695319D01*
X-8360681Y+4620925D01*
X-8360681Y+4515715D01*
X-8435075Y+4441321D01*
X-8540285Y+4441321D01*
X-8614679Y+4515715D01*
X-8360679Y+4515715D02*
X-8360679Y+4620925D01*
X-8286285Y+4695319D01*
X-8181075Y+4695319D01*
X-8106681Y+4620925D01*
X-8106681Y+4515715D01*
X-8181075Y+4441321D01*
X-8286285Y+4441321D01*
X-8360679Y+4515715D01*
X-8106681Y+5382925D02*
X-8106681Y+5277715D01*
X-8151131Y+5233265D01*
X-8151131Y+5107871D01*
X-7738579Y+4695319D01*
X-7715421Y+4695319D01*
X-7434191Y+4976549D01*
X-6764299Y+4976549D01*
X-6764299Y+4991599D01*
X-6535701Y+4991599D01*
X-6535701Y+4832549D01*
X-6384191Y+4832549D01*
X-6314299Y+4902441D01*
X-6314299Y+4988239D01*
X-6228501Y+4988239D01*
X-6219367Y+4997373D01*
X-6197317Y+4988239D01*
X-6085701Y+4988239D01*
X-6085701Y+4785041D01*
X-6198219Y+4785041D01*
X-6315809Y+4667451D01*
X-7137207Y+4667451D01*
X-7090681Y+4620925D01*
X-7090681Y+4515715D01*
X-7165075Y+4441321D01*
X-7270285Y+4441321D01*
X-7344679Y+4515715D01*
X-7344679Y+4588581D01*
X-7344681Y+4588579D01*
X-7344681Y+4515715D01*
X-7419075Y+4441321D01*
X-7481941Y+4441321D01*
X-7223169Y+4182549D01*
X-6977809Y+4182549D01*
X-6574259Y+3778999D01*
X-6511395Y+3778999D01*
X-6437001Y+3704605D01*
X-6437001Y+3599395D01*
X-6511395Y+3525001D01*
X-6574259Y+3525001D01*
X-6931809Y+3167451D01*
X-8934191Y+3167451D01*
X-9301741Y+3535001D01*
X-9364605Y+3535001D01*
X-9438999Y+3609395D01*
X-9438999Y+3714605D01*
X-9364605Y+3788999D01*
X-9305739Y+3788999D01*
X-9382549Y+3865809D01*
X-9382549Y+4225041D01*
X-9414299Y+4225041D01*
X-9414299Y+4428239D01*
X-9185701Y+4428239D01*
X-9185701Y+4225041D01*
X-9217451Y+4225041D01*
X-9217451Y+3934191D01*
X-9072259Y+3788999D01*
X-9005395Y+3788999D01*
X-8931001Y+3714605D01*
X-8931001Y+3651741D01*
X-8930999Y+3651739D01*
X-8930999Y+3714605D01*
X-8856605Y+3788999D01*
X-8751395Y+3788999D01*
X-8677001Y+3714605D01*
X-8677001Y+3609395D01*
X-8751395Y+3535001D01*
X-8814261Y+3535001D01*
X-8811809Y+3532549D01*
X-7640153Y+3532549D01*
X-7706999Y+3599395D01*
X-7706999Y+3704605D01*
X-7632605Y+3778999D01*
X-7527395Y+3778999D01*
X-7453001Y+3704605D01*
X-7453001Y+3599395D01*
X-7519847Y+3532549D01*
X-7386153Y+3532549D01*
X-7452999Y+3599395D01*
X-7452999Y+3704605D01*
X-7378605Y+3778999D01*
X-7273395Y+3778999D01*
X-7199001Y+3704605D01*
X-7199001Y+3599395D01*
X-7265847Y+3532549D01*
X-7132153Y+3532549D01*
X-7198999Y+3599395D01*
X-7198999Y+3704605D01*
X-7124605Y+3778999D01*
X-7019395Y+3778999D01*
X-6945001Y+3704605D01*
X-6945001Y+3641739D01*
X-6944999Y+3641741D01*
X-6944999Y+3704605D01*
X-6870605Y+3778999D01*
X-6807739Y+3778999D01*
X-7046191Y+4017451D01*
X-7291551Y+4017451D01*
X-7502301Y+4228201D01*
X-7502301Y+3966651D01*
X-7908699Y+3966651D01*
X-7908699Y+4233349D01*
X-7507449Y+4233349D01*
X-7715421Y+4441321D01*
X-7778285Y+4441321D01*
X-7852679Y+4515715D01*
X-7852679Y+4575939D01*
X-7852681Y+4575941D01*
X-7852681Y+4515715D01*
X-7927075Y+4441321D01*
X-8032285Y+4441321D01*
X-8106679Y+4515715D01*
X-8106679Y+4620925D01*
X-8032285Y+4695319D01*
X-7972059Y+4695319D01*
X-8316229Y+5039489D01*
X-8316229Y+5233265D01*
X-8360679Y+5277715D01*
X-8360679Y+5382925D01*
X-8286285Y+5457319D01*
X-8181075Y+5457319D01*
X-8106681Y+5382925D01*
X-7344679Y+5277715D02*
X-7344679Y+5382925D01*
X-7270285Y+5457319D01*
X-7165075Y+5457319D01*
X-7090681Y+5382925D01*
X-7090681Y+5277715D01*
X-7165075Y+5203321D01*
X-7270285Y+5203321D01*
X-7344679Y+5277715D01*
X-7598679Y+5277715D02*
X-7598679Y+5382925D01*
X-7524285Y+5457319D01*
X-7419075Y+5457319D01*
X-7344681Y+5382925D01*
X-7344681Y+5277715D01*
X-7419075Y+5203321D01*
X-7524285Y+5203321D01*
X-7598679Y+5277715D01*
X-7852679Y+5277715D02*
X-7852679Y+5382925D01*
X-7778285Y+5457319D01*
X-7673075Y+5457319D01*
X-7598681Y+5382925D01*
X-7598681Y+5277715D01*
X-7673075Y+5203321D01*
X-7778285Y+5203321D01*
X-7852679Y+5277715D01*
X-8106679Y+5277715D02*
X-8106679Y+5382925D01*
X-8032285Y+5457319D01*
X-7927075Y+5457319D01*
X-7852681Y+5382925D01*
X-7852681Y+5277715D01*
X-7927075Y+5203321D01*
X-8032285Y+5203321D01*
X-8106679Y+5277715D01*
X-8614679Y+5277715D02*
X-8614679Y+5382925D01*
X-8540285Y+5457319D01*
X-8435075Y+5457319D01*
X-8360681Y+5382925D01*
X-8360681Y+5277715D01*
X-8435075Y+5203321D01*
X-8540285Y+5203321D01*
X-8614679Y+5277715D01*
X-9905041Y+6722720D02*
X-9899075Y+6718157D01*
X-9725877Y+6544959D01*
X-9685701Y+6544959D01*
X-9685701Y+6512441D01*
X-8659131Y+5485871D01*
X-8659131Y+5427375D01*
X-8614681Y+5382925D01*
X-8614681Y+5277715D01*
X-8689075Y+5203321D01*
X-8794285Y+5203321D01*
X-8837112Y+5246148D01*
X-8917451Y+5165809D01*
X-8917451Y+4484191D01*
X-8805809Y+4372549D01*
X-8705809Y+4372549D01*
X-8547559Y+4214299D01*
X-8448401Y+4214299D01*
X-8448401Y+4182549D01*
X-8353199Y+4182549D01*
X-8353199Y+4233349D01*
X-7946801Y+4233349D01*
X-7946801Y+3966651D01*
X-8353199Y+3966651D01*
X-8353199Y+4017451D01*
X-8448401Y+4017451D01*
X-8448401Y+3985701D01*
X-8467451Y+3985701D01*
X-8467451Y+3759055D01*
X-8423001Y+3714605D01*
X-8423001Y+3609395D01*
X-8497395Y+3535001D01*
X-8602605Y+3535001D01*
X-8676999Y+3609395D01*
X-8676999Y+3714605D01*
X-8632549Y+3759055D01*
X-8632549Y+3985701D01*
X-8651599Y+3985701D01*
X-8651599Y+4084859D01*
X-8661761Y+4095021D01*
X-8661761Y+3985701D01*
X-8864959Y+3985701D01*
X-8864959Y+4207451D01*
X-8874191Y+4207451D01*
X-9082549Y+4415809D01*
X-9082549Y+5234191D01*
X-8903871Y+5412869D01*
X-8838735Y+5412869D01*
X-8829172Y+5422432D01*
X-9685701Y+6278961D01*
X-9685701Y+6128401D01*
X-9711101Y+6128401D01*
X-9711101Y+6088319D01*
X-9685701Y+6088319D01*
X-9685701Y+5885121D01*
X-9914299Y+5885121D01*
X-9914299Y+6088319D01*
X-9888899Y+6088319D01*
X-9888899Y+6128401D01*
X-9914299Y+6128401D01*
X-9914299Y+6331599D01*
X-9738339Y+6331599D01*
X-9748501Y+6341761D01*
X-9914299Y+6341761D01*
X-9914299Y+6481937D01*
X-9921101Y+6488739D01*
X-9921101Y+6343177D01*
X-9922201Y+6342077D01*
X-9922201Y+6214961D01*
X-10277799Y+6214961D01*
X-10277799Y+6468959D01*
X-10098899Y+6468959D01*
X-10098899Y+6569061D01*
X-10108239Y+6569061D01*
X-10108239Y+6797659D01*
X-9905041Y+6797659D01*
X-9905041Y+6722720D01*
X-9922201Y+5757761D02*
X-9927451Y+5757761D01*
X-9927451Y+5657659D01*
X-9908401Y+5657659D01*
X-9908401Y+5429061D01*
X-9924091Y+5429061D01*
X-9924091Y+5357659D01*
X-9905041Y+5357659D01*
X-9905041Y+5287483D01*
X-9727741Y+5110183D01*
X-9727741Y+5098319D01*
X-9685701Y+5098319D01*
X-9685701Y+4999161D01*
X-9470731Y+4784191D01*
X-9470731Y+4042529D01*
X-9745809Y+3767451D01*
X-9745847Y+3767451D01*
X-9693001Y+3714605D01*
X-9693001Y+3609395D01*
X-9767395Y+3535001D01*
X-9826969Y+3535001D01*
X-9318967Y+3026999D01*
X-9259395Y+3026999D01*
X-9185001Y+2952605D01*
X-9185001Y+2847395D01*
X-9259395Y+2773001D01*
X-9364605Y+2773001D01*
X-9438999Y+2847395D01*
X-9438999Y+2913551D01*
X-9439001Y+2913553D01*
X-9439001Y+2847395D01*
X-9513395Y+2773001D01*
X-9576261Y+2773001D01*
X-9414859Y+2611599D01*
X-9235701Y+2611599D01*
X-9235701Y+2408401D01*
X-9464299Y+2408401D01*
X-9464299Y+2427559D01*
X-9809741Y+2773001D01*
X-9946999Y+2773001D01*
X-9946999Y+3026999D01*
X-9693001Y+3026999D01*
X-9693001Y+2889741D01*
X-9692999Y+2889739D01*
X-9692999Y+2952605D01*
X-9618605Y+3026999D01*
X-9552447Y+3026999D01*
X-9912899Y+3387451D01*
X-9914191Y+3387451D01*
X-10062549Y+3535809D01*
X-10062549Y+3764191D01*
X-9894191Y+3932549D01*
X-9814191Y+3932549D01*
X-9635829Y+4110911D01*
X-9635829Y+4715809D01*
X-9685701Y+4765681D01*
X-9685701Y+4681761D01*
X-9711101Y+4681761D01*
X-9711101Y+4644959D01*
X-9685701Y+4644959D01*
X-9685701Y+4441761D01*
X-9914299Y+4441761D01*
X-9914299Y+4644959D01*
X-9888899Y+4644959D01*
X-9888899Y+4681761D01*
X-9914299Y+4681761D01*
X-9914299Y+4803061D01*
X-9922201Y+4803061D01*
X-9922201Y+4764961D01*
X-10277799Y+4764961D01*
X-10277799Y+5018959D01*
X-9922201Y+5018959D01*
X-9922201Y+5016881D01*
X-9921653Y+5017429D01*
X-9914299Y+5023340D01*
X-9914299Y+5045297D01*
X-9998063Y+5129061D01*
X-10108239Y+5129061D01*
X-10108239Y+5357659D01*
X-10089189Y+5357659D01*
X-10089189Y+5429061D01*
X-10111599Y+5429061D01*
X-10111599Y+5657659D01*
X-10092549Y+5657659D01*
X-10092549Y+5757761D01*
X-10277799Y+5757761D01*
X-10277799Y+6011759D01*
X-9922201Y+6011759D01*
X-9922201Y+5757761D01*
X-9184999Y+2847395D02*
X-9184999Y+2952605D01*
X-9110605Y+3026999D01*
X-9005395Y+3026999D01*
X-8931001Y+2952605D01*
X-8931001Y+2847395D01*
X-9005395Y+2773001D01*
X-9110605Y+2773001D01*
X-9184999Y+2847395D01*
X-8422999Y+3609395D02*
X-8422999Y+3714605D01*
X-8348605Y+3788999D01*
X-8243395Y+3788999D01*
X-8169001Y+3714605D01*
X-8169001Y+3609395D01*
X-8243395Y+3535001D01*
X-8348605Y+3535001D01*
X-8422999Y+3609395D01*
X-9692999Y+3609395D02*
X-9692999Y+3714605D01*
X-9618605Y+3788999D01*
X-9513395Y+3788999D01*
X-9439001Y+3714605D01*
X-9439001Y+3609395D01*
X-9513395Y+3535001D01*
X-9618605Y+3535001D01*
X-9692999Y+3609395D01*
X-6626999Y+6293739D02*
X-6626999Y+6617799D01*
X-6373001Y+6617799D01*
X-6373001Y+6262201D01*
X-6595461Y+6262201D01*
X-6465809Y+6132549D01*
X-5924191Y+6132549D01*
X-5820549Y+6236191D01*
X-5820549Y+6262201D01*
X-5864999Y+6262201D01*
X-5864999Y+6617799D01*
X-5611001Y+6617799D01*
X-5611001Y+6262201D01*
X-5655451Y+6262201D01*
X-5655451Y+6167809D01*
X-5850711Y+5972549D01*
X-5344299Y+5972549D01*
X-5344299Y+5988239D01*
X-5115701Y+5988239D01*
X-5115701Y+5851039D01*
X-5084299Y+5882441D01*
X-5084299Y+5988239D01*
X-4855701Y+5988239D01*
X-4855701Y+5785041D01*
X-4948219Y+5785041D01*
X-5065809Y+5667451D01*
X-6684191Y+5667451D01*
X-7334191Y+6317451D01*
X-8114191Y+6317451D01*
X-8219741Y+6423001D01*
X-8356999Y+6423001D01*
X-8356999Y+6560261D01*
X-8357001Y+6560259D01*
X-8357001Y+6497395D01*
X-8431395Y+6423001D01*
X-8536605Y+6423001D01*
X-8610999Y+6497395D01*
X-8610999Y+6602605D01*
X-8536605Y+6676999D01*
X-8473741Y+6676999D01*
X-8338191Y+6812549D01*
X-7145809Y+6812549D01*
X-6626999Y+6293739D01*
X-8864999Y+6497395D02*
X-8864999Y+6602605D01*
X-8790605Y+6676999D01*
X-8685395Y+6676999D01*
X-8611001Y+6602605D01*
X-8611001Y+6497395D01*
X-8685395Y+6423001D01*
X-8790605Y+6423001D01*
X-8864999Y+6497395D01*
X-8864999Y+5735395D02*
X-8864999Y+5840605D01*
X-8790605Y+5914999D01*
X-8685395Y+5914999D01*
X-8611001Y+5840605D01*
X-8611001Y+5735395D01*
X-8685395Y+5661001D01*
X-8790605Y+5661001D01*
X-8864999Y+5735395D01*
X-8610999Y+5735395D02*
X-8610999Y+5840605D01*
X-8536605Y+5914999D01*
X-8431395Y+5914999D01*
X-8357001Y+5840605D01*
X-8357001Y+5735395D01*
X-8431395Y+5661001D01*
X-8536605Y+5661001D01*
X-8610999Y+5735395D01*
X-8356999Y+5735395D02*
X-8356999Y+5840605D01*
X-8282605Y+5914999D01*
X-8177395Y+5914999D01*
X-8103001Y+5840605D01*
X-8103001Y+5735395D01*
X-8177395Y+5661001D01*
X-8282605Y+5661001D01*
X-8356999Y+5735395D01*
X-7884999Y+5755395D02*
X-7884999Y+5860605D01*
X-7810605Y+5934999D01*
X-7705395Y+5934999D01*
X-7631001Y+5860605D01*
X-7631001Y+5755395D01*
X-7705395Y+5681001D01*
X-7810605Y+5681001D01*
X-7884999Y+5755395D01*
X-7630999Y+5755395D02*
X-7630999Y+5860605D01*
X-7556605Y+5934999D01*
X-7451395Y+5934999D01*
X-7377001Y+5860605D01*
X-7377001Y+5755395D01*
X-7451395Y+5681001D01*
X-7556605Y+5681001D01*
X-7630999Y+5755395D01*
X-7376999Y+5755395D02*
X-7376999Y+5860605D01*
X-7302605Y+5934999D01*
X-7197395Y+5934999D01*
X-7123001Y+5860605D01*
X-7123001Y+5755395D01*
X-7197395Y+5681001D01*
X-7302605Y+5681001D01*
X-7376999Y+5755395D01*
X-4849001Y+6262201D02*
X-4887451Y+6262201D01*
X-4887451Y+6201599D01*
X-4855701Y+6201599D01*
X-4855701Y+5998401D01*
X-5084299Y+5998401D01*
X-5084299Y+6201599D01*
X-5052549Y+6201599D01*
X-5052549Y+6262201D01*
X-5102999Y+6262201D01*
X-5102999Y+6617799D01*
X-4849001Y+6617799D01*
X-4849001Y+6262201D01*
X-5103001Y+6262201D02*
X-5147451Y+6262201D01*
X-5147451Y+6201599D01*
X-5115701Y+6201599D01*
X-5115701Y+5998401D01*
X-5344299Y+5998401D01*
X-5344299Y+6201599D01*
X-5312549Y+6201599D01*
X-5312549Y+6262201D01*
X-5356999Y+6262201D01*
X-5356999Y+6617799D01*
X-5103001Y+6617799D01*
X-5103001Y+6262201D01*
X-7198999Y+2837395D02*
X-7198999Y+2942605D01*
X-7124605Y+3016999D01*
X-7019395Y+3016999D01*
X-6945001Y+2942605D01*
X-6945001Y+2837395D01*
X-7019395Y+2763001D01*
X-7124605Y+2763001D01*
X-7198999Y+2837395D01*
X-6944999Y+2837395D02*
X-6944999Y+2942605D01*
X-6870605Y+3016999D01*
X-6765395Y+3016999D01*
X-6691001Y+2942605D01*
X-6691001Y+2837395D01*
X-6765395Y+2763001D01*
X-6870605Y+2763001D01*
X-6944999Y+2837395D01*
X-6182999Y+3599395D02*
X-6182999Y+3704605D01*
X-6108605Y+3778999D01*
X-6003395Y+3778999D01*
X-5929001Y+3704605D01*
X-5929001Y+3599395D01*
X-6003395Y+3525001D01*
X-6108605Y+3525001D01*
X-6182999Y+3599395D01*
X-5746801Y+3976651D02*
X-6153199Y+3976651D01*
X-6153199Y+4027451D01*
X-6198401Y+4027451D01*
X-6198401Y+3985701D01*
X-6227451Y+3985701D01*
X-6227451Y+3749055D01*
X-6183001Y+3704605D01*
X-6183001Y+3599395D01*
X-6257395Y+3525001D01*
X-6362605Y+3525001D01*
X-6436999Y+3599395D01*
X-6436999Y+3704605D01*
X-6392549Y+3749055D01*
X-6392549Y+3985701D01*
X-6401599Y+3985701D01*
X-6401599Y+4214299D01*
X-6198401Y+4214299D01*
X-6198401Y+4192549D01*
X-6153199Y+4192549D01*
X-6153199Y+4243349D01*
X-5746801Y+4243349D01*
X-5746801Y+3976651D01*
X-5708699Y+3976651D02*
X-5708699Y+4243349D01*
X-5302301Y+4243349D01*
X-5302301Y+3976651D01*
X-5708699Y+3976651D01*
X-6411761Y+3985701D02*
X-6614959Y+3985701D01*
X-6614959Y+4214299D01*
X-6411761Y+4214299D01*
X-6411761Y+3985701D01*
X-6535701Y+5188401D02*
X-6535701Y+5001761D01*
X-6764299Y+5001761D01*
X-6764299Y+5391599D01*
X-6535701Y+5391599D01*
X-6535701Y+5188401D01*
X-6085701Y+5185041D02*
X-6085701Y+4998401D01*
X-6314299Y+4998401D01*
X-6314299Y+5388239D01*
X-6085701Y+5388239D01*
X-6085701Y+5185041D01*
X-7035701Y+2198401D02*
X-7067451Y+2198401D01*
X-7067451Y+2002399D01*
X-6993601Y+2002399D01*
X-6993601Y+1697601D01*
X-7806399Y+1697601D01*
X-7806399Y+2002399D01*
X-7232549Y+2002399D01*
X-7232549Y+2198401D01*
X-7264299Y+2198401D01*
X-7264299Y+2401599D01*
X-7035701Y+2401599D01*
X-7035701Y+2198401D01*
X-3222533Y+3603202D02*
X-3348785Y+3603202D01*
X-3438058Y+3692475D01*
X-3438058Y+3818727D01*
X-3348785Y+3908000D01*
X-3222533Y+3908000D01*
X-3133260Y+3818727D01*
X-3133260Y+3692475D01*
X-3222533Y+3603202D01*
X-3222533Y+4111202D02*
X-3348785Y+4111202D01*
X-3438058Y+4200475D01*
X-3438058Y+4326727D01*
X-3348785Y+4416000D01*
X-3222533Y+4416000D01*
X-3133260Y+4326727D01*
X-3133260Y+4200475D01*
X-3222533Y+4111202D01*
X-2901761Y+4755701D02*
X-3104959Y+4755701D01*
X-3104959Y+4787451D01*
X-3238401Y+4787451D01*
X-3238401Y+4755701D01*
X-3438961Y+4755701D01*
X-3315809Y+4632549D01*
X-2715809Y+4632549D01*
X-2117451Y+4034191D01*
X-2117451Y+3465809D01*
X-2323381Y+3259879D01*
X-2323381Y+3197015D01*
X-2397775Y+3122621D01*
X-2460639Y+3122621D01*
X-2665809Y+2917451D01*
X-3319169Y+2917451D01*
X-3372321Y+2864299D01*
X-3238401Y+2864299D01*
X-3238401Y+2832549D01*
X-3144959Y+2832549D01*
X-3144959Y+2864299D01*
X-2941761Y+2864299D01*
X-2941761Y+2804981D01*
X-2931599Y+2815143D01*
X-2931599Y+2864299D01*
X-2728401Y+2864299D01*
X-2728401Y+2832858D01*
X-2546675Y+2832858D01*
X-2502605Y+2876928D01*
X-2397395Y+2876928D01*
X-2323001Y+2802534D01*
X-2323001Y+2788983D01*
X-2317831Y+2783813D01*
X-2317831Y+2735260D01*
X-2167071Y+2584500D01*
X-2167071Y+2011809D01*
X-2365429Y+1813451D01*
X-2919809Y+1813451D01*
X-2945461Y+1787799D01*
X-2919001Y+1787799D01*
X-2919001Y+1432201D01*
X-3172999Y+1432201D01*
X-3172999Y+1780261D01*
X-3173001Y+1780259D01*
X-3173001Y+1432201D01*
X-3426999Y+1432201D01*
X-3426999Y+1787799D01*
X-3382549Y+1787799D01*
X-3382549Y+1804191D01*
X-3074191Y+2112549D01*
X-2604191Y+2112549D01*
X-2549289Y+2167451D01*
X-2725041Y+2167451D01*
X-2725041Y+2135701D01*
X-2928239Y+2135701D01*
X-2928239Y+2364299D01*
X-2725041Y+2364299D01*
X-2725041Y+2332549D01*
X-2547055Y+2332549D01*
X-2502605Y+2376999D01*
X-2397395Y+2376999D01*
X-2332169Y+2311773D01*
X-2332169Y+2516118D01*
X-2438981Y+2622930D01*
X-2502605Y+2622930D01*
X-2547126Y+2667451D01*
X-2728401Y+2667451D01*
X-2728401Y+2635701D01*
X-2931599Y+2635701D01*
X-2931599Y+2684857D01*
X-2941761Y+2695019D01*
X-2941761Y+2635701D01*
X-3144959Y+2635701D01*
X-3144959Y+2667451D01*
X-3238401Y+2667451D01*
X-3238401Y+2635701D01*
X-3441599Y+2635701D01*
X-3441599Y+2795021D01*
X-3451761Y+2784859D01*
X-3451761Y+2635701D01*
X-3470811Y+2635701D01*
X-3470811Y+2364299D01*
X-3451761Y+2364299D01*
X-3451761Y+2135701D01*
X-3470811Y+2135701D01*
X-3470811Y+2118449D01*
X-3801461Y+1787799D01*
X-3685001Y+1787799D01*
X-3685001Y+1432201D01*
X-3938999Y+1432201D01*
X-3938999Y+1760261D01*
X-3939001Y+1760259D01*
X-3939001Y+1432201D01*
X-4192999Y+1432201D01*
X-4192999Y+1787799D01*
X-4144941Y+1787799D01*
X-3984191Y+1948549D01*
X-3874191Y+1948549D01*
X-3654959Y+2167781D01*
X-3654959Y+2364299D01*
X-3635909Y+2364299D01*
X-3635909Y+2635701D01*
X-3654959Y+2635701D01*
X-3654959Y+2864299D01*
X-3605801Y+2864299D01*
X-3387551Y+3082549D01*
X-2734191Y+3082549D01*
X-2577379Y+3239361D01*
X-2577379Y+3302225D01*
X-2502985Y+3376619D01*
X-2440121Y+3376619D01*
X-2282549Y+3534191D01*
X-2282549Y+3965809D01*
X-2784191Y+4467451D01*
X-3384191Y+4467451D01*
X-3635909Y+4719169D01*
X-3635909Y+4755701D01*
X-3654959Y+4755701D01*
X-3654959Y+4984299D01*
X-3451761Y+4984299D01*
X-3451761Y+4768501D01*
X-3441599Y+4758339D01*
X-3441599Y+4984299D01*
X-3238401Y+4984299D01*
X-3238401Y+4952549D01*
X-3104959Y+4952549D01*
X-3104959Y+4984299D01*
X-2901761Y+4984299D01*
X-2901761Y+4755701D01*
X-6764299Y+5401761D02*
X-6764299Y+5604959D01*
X-6535701Y+5604959D01*
X-6535701Y+5401761D01*
X-6764299Y+5401761D01*
X-6314299Y+5398401D02*
X-6314299Y+5601599D01*
X-6085701Y+5601599D01*
X-6085701Y+5398401D01*
X-6314299Y+5398401D01*
X-9185701Y+4668401D02*
X-9217451Y+4668401D01*
X-9217451Y+4641599D01*
X-9185701Y+4641599D01*
X-9185701Y+4438401D01*
X-9414299Y+4438401D01*
X-9414299Y+4641599D01*
X-9382549Y+4641599D01*
X-9382549Y+4668401D01*
X-9414299Y+4668401D01*
X-9414299Y+4871599D01*
X-9185701Y+4871599D01*
X-9185701Y+4668401D01*
X-11034168Y+1653199D02*
X-10865832Y+1653199D01*
X-10746801Y+1534168D01*
X-10746801Y+1365832D01*
X-10865832Y+1246801D01*
X-11034168Y+1246801D01*
X-11153199Y+1365832D01*
X-11153199Y+1534168D01*
X-11034168Y+1653199D01*
X-9414299Y+4881761D02*
X-9414299Y+5084959D01*
X-9185701Y+5084959D01*
X-9185701Y+4881761D01*
X-9414299Y+4881761D01*
X-2938401Y+2135701D02*
X-3141599Y+2135701D01*
X-3141599Y+2167451D01*
X-3238401Y+2167451D01*
X-3238401Y+2135701D01*
X-3441599Y+2135701D01*
X-3441599Y+2364299D01*
X-3238401Y+2364299D01*
X-3238401Y+2332549D01*
X-3141599Y+2332549D01*
X-3141599Y+2364299D01*
X-2938401Y+2364299D01*
X-2938401Y+2135701D01*
X-10321599Y+6797659D02*
X-10118401Y+6797659D01*
X-10118401Y+6569061D01*
X-10321599Y+6569061D01*
X-10321599Y+6797659D01*
X-11190929Y+4263311D02*
X-11190929Y+5063409D01*
X-10390831Y+5063409D01*
X-10390831Y+4263311D01*
X-11190929Y+4263311D01*
X-2918999Y+1787799D02*
X-2665001Y+1787799D01*
X-2665001Y+1432201D01*
X-2918999Y+1432201D01*
X-2918999Y+1787799D01*
X-2664999Y+1787799D02*
X-2411001Y+1787799D01*
X-2411001Y+1432201D01*
X-2664999Y+1432201D01*
X-2664999Y+1787799D01*
X-2410999Y+1787799D02*
X-2157001Y+1787799D01*
X-2157001Y+1432201D01*
X-2410999Y+1432201D01*
X-2410999Y+1787799D01*
X-2156999Y+1787799D02*
X-1903001Y+1787799D01*
X-1903001Y+1432201D01*
X-2156999Y+1432201D01*
X-2156999Y+1787799D01*
X-5716999Y+1787799D02*
X-5463001Y+1787799D01*
X-5463001Y+1432201D01*
X-5716999Y+1432201D01*
X-5716999Y+1787799D01*
X-5462999Y+1787799D02*
X-5209001Y+1787799D01*
X-5209001Y+1432201D01*
X-5462999Y+1432201D01*
X-5462999Y+1787799D01*
X-6372999Y+6617799D02*
X-6119001Y+6617799D01*
X-6119001Y+6262201D01*
X-6372999Y+6262201D01*
X-6372999Y+6617799D01*
X-6118999Y+6617799D02*
X-5865001Y+6617799D01*
X-5865001Y+6262201D01*
X-6118999Y+6262201D01*
X-6118999Y+6617799D01*
X-5610999Y+6617799D02*
X-5357001Y+6617799D01*
X-5357001Y+6262201D01*
X-5610999Y+6262201D01*
X-5610999Y+6617799D01*
X-4595001Y+6262201D02*
X-4639451Y+6262201D01*
X-4639451Y+6189055D01*
X-4593001Y+6142605D01*
X-4593001Y+6037395D01*
X-4667395Y+5963001D01*
X-4772605Y+5963001D01*
X-4846999Y+6037395D01*
X-4846999Y+6142605D01*
X-4804549Y+6185055D01*
X-4804549Y+6262201D01*
X-4848999Y+6262201D01*
X-4848999Y+6617799D01*
X-4595001Y+6617799D01*
X-4595001Y+6262201D01*
X-4341001Y+6262201D02*
X-4385451Y+6262201D01*
X-4385451Y+6185055D01*
X-4333001Y+6132605D01*
X-4333001Y+6027395D01*
X-4407395Y+5953001D01*
X-4512605Y+5953001D01*
X-4586999Y+6027395D01*
X-4586999Y+6132605D01*
X-4550549Y+6169055D01*
X-4550549Y+6262201D01*
X-4594999Y+6262201D01*
X-4594999Y+6617799D01*
X-4341001Y+6617799D01*
X-4341001Y+6262201D01*
X-4087001Y+6262201D02*
X-4131451Y+6262201D01*
X-4131451Y+6191055D01*
X-4073001Y+6132605D01*
X-4073001Y+6027395D01*
X-4147395Y+5953001D01*
X-4252605Y+5953001D01*
X-4326999Y+6027395D01*
X-4326999Y+6132605D01*
X-4296549Y+6163055D01*
X-4296549Y+6262201D01*
X-4340999Y+6262201D01*
X-4340999Y+6617799D01*
X-4087001Y+6617799D01*
X-4087001Y+6262201D01*
X-11190929Y+5713311D02*
X-11190929Y+6513409D01*
X-10390831Y+6513409D01*
X-10390831Y+5713311D01*
X-11190929Y+5713311D01*
X-10321599Y+5357659D02*
X-10118401Y+5357659D01*
X-10118401Y+5129061D01*
X-10321599Y+5129061D01*
X-10321599Y+5357659D01*
X-10324959Y+5657659D02*
X-10121761Y+5657659D01*
X-10121761Y+5429061D01*
X-10324959Y+5429061D01*
X-10324959Y+5657659D01*
X-9685701Y+5874959D02*
X-9685701Y+5671761D01*
X-9914299Y+5671761D01*
X-9914299Y+5874959D01*
X-9685701Y+5874959D01*
X-9685701Y+4431599D02*
X-9685701Y+4228401D01*
X-9914299Y+4228401D01*
X-9914299Y+4431599D01*
X-9685701Y+4431599D01*
X-4735701Y+4776299D02*
X-4735701Y+4547701D01*
X-4964299Y+4547701D01*
X-4964299Y+4776299D01*
X-4735701Y+4776299D01*
X-4897344Y+4522299D02*
X-4802656Y+4522299D01*
X-4735701Y+4455344D01*
X-4735701Y+4360656D01*
X-4802656Y+4293701D01*
X-4897344Y+4293701D01*
X-4964299Y+4360656D01*
X-4964299Y+4455344D01*
X-4897344Y+4522299D01*
X-4897344Y+4268299D02*
X-4802656Y+4268299D01*
X-4735701Y+4201344D01*
X-4735701Y+4106656D01*
X-4802656Y+4039701D01*
X-4897344Y+4039701D01*
X-4964299Y+4106656D01*
X-4964299Y+4201344D01*
X-4897344Y+4268299D01*
X-4897344Y+4014299D02*
X-4802656Y+4014299D01*
X-4735701Y+3947344D01*
X-4735701Y+3852656D01*
X-4802656Y+3785701D01*
X-4897344Y+3785701D01*
X-4964299Y+3852656D01*
X-4964299Y+3947344D01*
X-4897344Y+4014299D01*
X-4897344Y+3760299D02*
X-4802656Y+3760299D01*
X-4735701Y+3693344D01*
X-4735701Y+3598656D01*
X-4802656Y+3531701D01*
X-4897344Y+3531701D01*
X-4964299Y+3598656D01*
X-4964299Y+3693344D01*
X-4897344Y+3760299D01*
X-4897344Y+3506299D02*
X-4802656Y+3506299D01*
X-4735701Y+3439344D01*
X-4735701Y+3344656D01*
X-4802656Y+3277701D01*
X-4897344Y+3277701D01*
X-4964299Y+3344656D01*
X-4964299Y+3439344D01*
X-4897344Y+3506299D01*
X-4976999Y+3085395D02*
X-4976999Y+3190605D01*
X-4902605Y+3264999D01*
X-4797395Y+3264999D01*
X-4723001Y+3190605D01*
X-4723001Y+3085395D01*
X-4797395Y+3011001D01*
X-4902605Y+3011001D01*
X-4976999Y+3085395D01*
X-4135344Y+3252299D02*
X-4040656Y+3252299D01*
X-3973701Y+3185344D01*
X-3973701Y+3090656D01*
X-4040656Y+3023701D01*
X-4135344Y+3023701D01*
X-4202299Y+3090656D01*
X-4202299Y+3185344D01*
X-4135344Y+3252299D01*
X-4135344Y+3506299D02*
X-4040656Y+3506299D01*
X-3973701Y+3439344D01*
X-3973701Y+3344656D01*
X-4040656Y+3277701D01*
X-4135344Y+3277701D01*
X-4202299Y+3344656D01*
X-4202299Y+3439344D01*
X-4135344Y+3506299D01*
X-4214999Y+3593395D02*
X-4214999Y+3698605D01*
X-4140605Y+3772999D01*
X-4035395Y+3772999D01*
X-3961001Y+3698605D01*
X-3961001Y+3593395D01*
X-4035395Y+3519001D01*
X-4140605Y+3519001D01*
X-4214999Y+3593395D01*
X-4214999Y+3847395D02*
X-4214999Y+3952605D01*
X-4140605Y+4026999D01*
X-4035395Y+4026999D01*
X-3961001Y+3952605D01*
X-3961001Y+3847395D01*
X-4035395Y+3773001D01*
X-4140605Y+3773001D01*
X-4214999Y+3847395D01*
X-4135344Y+4268299D02*
X-4040656Y+4268299D01*
X-3973701Y+4201344D01*
X-3973701Y+4106656D01*
X-4040656Y+4039701D01*
X-4135344Y+4039701D01*
X-4202299Y+4106656D01*
X-4202299Y+4201344D01*
X-4135344Y+4268299D01*
X-10865832Y+2256421D02*
X-11034168Y+2256421D01*
X-11153199Y+2375452D01*
X-11153199Y+2543788D01*
X-11034168Y+2662819D01*
X-10865832Y+2662819D01*
X-10746801Y+2543788D01*
X-10746801Y+2375452D01*
X-10865832Y+2256421D01*
X-10865832Y+2756801D02*
X-11034168Y+2756801D01*
X-11153199Y+2875832D01*
X-11153199Y+3044168D01*
X-11034168Y+3163199D01*
X-10865832Y+3163199D01*
X-10746801Y+3044168D01*
X-10746801Y+2875832D01*
X-10865832Y+2756801D01*
X-1974168Y+2953199D02*
X-1805832Y+2953199D01*
X-1686801Y+2834168D01*
X-1686801Y+2665832D01*
X-1805832Y+2546801D01*
X-1974168Y+2546801D01*
X-2093199Y+2665832D01*
X-2093199Y+2834168D01*
X-1974168Y+2953199D01*
X-1974168Y+2452819D02*
X-1805832Y+2452819D01*
X-1686801Y+2333788D01*
X-1686801Y+2165452D01*
X-1805832Y+2046421D01*
X-1974168Y+2046421D01*
X-2093199Y+2165452D01*
X-2093199Y+2333788D01*
X-1974168Y+2452819D01*
X-1974168Y+4973199D02*
X-1805832Y+4973199D01*
X-1686801Y+4854168D01*
X-1686801Y+4685832D01*
X-1805832Y+4566801D01*
X-1974168Y+4566801D01*
X-2093199Y+4685832D01*
X-2093199Y+4854168D01*
X-1974168Y+4973199D01*
X-1974168Y+4472819D02*
X-1805832Y+4472819D01*
X-1686801Y+4353788D01*
X-1686801Y+4185452D01*
X-1805832Y+4066421D01*
X-1974168Y+4066421D01*
X-2093199Y+4185452D01*
X-2093199Y+4353788D01*
X-1974168Y+4472819D01*
X-1805832Y+3046801D02*
X-1974168Y+3046801D01*
X-2093199Y+3165832D01*
X-2093199Y+3334168D01*
X-1974168Y+3453199D01*
X-1805832Y+3453199D01*
X-1686801Y+3334168D01*
X-1686801Y+3165832D01*
X-1805832Y+3046801D01*
X-1805832Y+3547181D02*
X-1974168Y+3547181D01*
X-2093199Y+3666212D01*
X-2093199Y+3834548D01*
X-1974168Y+3953579D01*
X-1805832Y+3953579D01*
X-1686801Y+3834548D01*
X-1686801Y+3666212D01*
X-1805832Y+3547181D01*
X-7344679Y+4568320D02*
X-7217680Y+4568320D01*
X-7090681Y+4568320D02*
X-7217680Y+4568320D01*
X-7217680Y+4441321D02*
X-7217680Y+4568320D01*
X-9692999Y+2900000D02*
X-9566000Y+2900000D01*
X-9439001Y+2900000D02*
X-9566000Y+2900000D01*
X-9566000Y+2773001D02*
X-9566000Y+2900000D01*
X-9566000Y+3026999D02*
X-9566000Y+2900000D01*
X-9692999Y+3662000D02*
X-9566000Y+3662000D01*
X-9439001Y+3662000D02*
X-9566000Y+3662000D01*
X-9566000Y+3535001D02*
X-9566000Y+3662000D01*
X-9566000Y+3788999D02*
X-9566000Y+3662000D01*
X-8864999Y+5788000D02*
X-8738000Y+5788000D01*
X-8611001Y+5788000D02*
X-8738000Y+5788000D01*
X-8738000Y+5661001D02*
X-8738000Y+5788000D01*
X-8738000Y+5914999D02*
X-8738000Y+5788000D01*
X-7884999Y+5808000D02*
X-7758000Y+5808000D01*
X-7631001Y+5808000D02*
X-7758000Y+5808000D01*
X-7758000Y+5681001D02*
X-7758000Y+5808000D01*
X-7758000Y+5934999D02*
X-7758000Y+5808000D01*
X-7452999Y+2890000D02*
X-7326000Y+2890000D01*
X-7199001Y+2890000D02*
X-7326000Y+2890000D01*
X-7326000Y+2763001D02*
X-7326000Y+2890000D01*
X-7326000Y+3016999D02*
X-7326000Y+2890000D01*
X-7452999Y+3652000D02*
X-7326000Y+3652000D01*
X-7199001Y+3652000D02*
X-7326000Y+3652000D01*
X-7326000Y+3778999D02*
X-7326000Y+3652000D01*
X-5505500Y+3976651D02*
X-5505500Y+4110000D01*
X-5505500Y+4243349D02*
X-5505500Y+4110000D01*
X-5302301Y+4110000D02*
X-5505500Y+4110000D01*
X-5708699Y+4110000D02*
X-5505500Y+4110000D01*
X-6411761Y+4100000D02*
X-6513360Y+4100000D01*
X-6614959Y+4100000D02*
X-6513360Y+4100000D01*
X-6513360Y+4214299D02*
X-6513360Y+4100000D01*
X-6513360Y+3985701D02*
X-6513360Y+4100000D01*
X-10006399Y+1850000D02*
X-9854000Y+1850000D01*
X-9854000Y+2002399D02*
X-9854000Y+1850000D01*
X-7806399Y+1850000D02*
X-7654000Y+1850000D01*
X-7654000Y+2002399D02*
X-7654000Y+1850000D01*
X-7654000Y+1697601D02*
X-7654000Y+1850000D01*
X-6650000Y+5401761D02*
X-6650000Y+5503360D01*
X-6650000Y+5604959D02*
X-6650000Y+5503360D01*
X-6535701Y+5503360D02*
X-6650000Y+5503360D01*
X-6764299Y+5503360D02*
X-6650000Y+5503360D01*
X-6200000Y+5398401D02*
X-6200000Y+5500000D01*
X-6200000Y+5601599D02*
X-6200000Y+5500000D01*
X-6085701Y+5500000D02*
X-6200000Y+5500000D01*
X-6314299Y+5500000D02*
X-6200000Y+5500000D01*
X-9300000Y+4881761D02*
X-9300000Y+4983360D01*
X-9300000Y+5084959D02*
X-9300000Y+4983360D01*
X-9185701Y+4983360D02*
X-9300000Y+4983360D01*
X-9414299Y+4983360D02*
X-9300000Y+4983360D01*
X-10321599Y+6683360D02*
X-10220000Y+6683360D01*
X-10118401Y+6683360D02*
X-10220000Y+6683360D01*
X-10220000Y+6569061D02*
X-10220000Y+6683360D01*
X-10220000Y+6797659D02*
X-10220000Y+6683360D01*
X-10790880Y+4263311D02*
X-10790880Y+4663360D01*
X-10790880Y+5063409D02*
X-10790880Y+4663360D01*
X-10390831Y+4663360D02*
X-10790880Y+4663360D01*
X-11190929Y+4663360D02*
X-10790880Y+4663360D01*
X-10790880Y+5713311D02*
X-10790880Y+6113360D01*
X-10790880Y+6513409D02*
X-10790880Y+6113360D01*
X-10390831Y+6113360D02*
X-10790880Y+6113360D01*
X-11190929Y+6113360D02*
X-10790880Y+6113360D01*
X-10321599Y+5243360D02*
X-10220000Y+5243360D01*
X-10118401Y+5243360D02*
X-10220000Y+5243360D01*
X-10220000Y+5129061D02*
X-10220000Y+5243360D01*
X-10220000Y+5357659D02*
X-10220000Y+5243360D01*
X-10324959Y+5543360D02*
X-10223360Y+5543360D01*
X-10121761Y+5543360D02*
X-10223360Y+5543360D01*
X-10223360Y+5429061D02*
X-10223360Y+5543360D01*
X-10223360Y+5657659D02*
X-10223360Y+5543360D01*
X-9800000Y+5874959D02*
X-9800000Y+5773360D01*
X-9800000Y+5671761D02*
X-9800000Y+5773360D01*
X-9914299Y+5773360D02*
X-9800000Y+5773360D01*
X-9685701Y+5773360D02*
X-9800000Y+5773360D01*
X-9800000Y+4431599D02*
X-9800000Y+4330000D01*
X-9800000Y+4228401D02*
X-9800000Y+4330000D01*
X-9914299Y+4330000D02*
X-9800000Y+4330000D01*
X-9685701Y+4330000D02*
X-9800000Y+4330000D01*
X-10314959Y+4113360D02*
X-10213360Y+4113360D01*
X-10213360Y+4227659D02*
X-10213360Y+4113360D01*
X-10950000Y+2256421D02*
X-10950000Y+2459620D01*
X-10950000Y+2662819D02*
X-10950000Y+2459620D01*
X-10746801Y+2459620D02*
X-10950000Y+2459620D01*
X-11153199Y+2459620D02*
X-10950000Y+2459620D01*
X-8864959Y+4100000D02*
X-8763360Y+4100000D01*
X-8763360Y+3985701D02*
X-8763360Y+4100000D01*
X-7705500Y+3966651D02*
X-7705500Y+4100000D01*
X-7705500Y+4233349D02*
X-7705500Y+4100000D01*
X-7502301Y+4100000D02*
X-7705500Y+4100000D01*
X-7908699Y+4100000D02*
X-7705500Y+4100000D01*
D16*
X-3810000Y+5250000D03*
D17*
X-3556000Y+5250000D03*
X-3302000Y+5250000D03*
X-3048000Y+5250000D03*
X-2794000Y+5250000D03*
X-2540000Y+5250000D03*
X-2286000Y+5250000D03*
X-2032000Y+5250000D03*
X-2032000Y+6012000D03*
X-2286000Y+6012000D03*
X-2540000Y+6012000D03*
X-2794000Y+6012000D03*
X-3048000Y+6012000D03*
X-3302000Y+6012000D03*
D18*
X-3556000Y+6012000D03*
X-3810000Y+6012000D03*
D19*
X-8741680Y+4568320D03*
D17*
X-8487680Y+4568320D03*
X-8233680Y+4568320D03*
X-7979680Y+4568320D03*
X-7725680Y+4568320D03*
X-7471680Y+4568320D03*
X-7217680Y+4568320D03*
X-7217680Y+5330320D03*
X-7471680Y+5330320D03*
X-7725680Y+5330320D03*
X-7979680Y+5330320D03*
X-8233680Y+5330320D03*
X-8487680Y+5330320D03*
X-8741680Y+5330320D03*
D16*
X-9820000Y+2900000D03*
D17*
X-9566000Y+2900000D03*
X-9312000Y+2900000D03*
X-9058000Y+2900000D03*
X-8804000Y+2900000D03*
X-8550000Y+2900000D03*
X-8296000Y+2900000D03*
X-8296000Y+3662000D03*
X-8550000Y+3662000D03*
X-8804000Y+3662000D03*
X-9058000Y+3662000D03*
X-9312000Y+3662000D03*
X-9566000Y+3662000D03*
X-9820000Y+3662000D03*
D16*
X-8230000Y+6550000D03*
D17*
X-8484000Y+6550000D03*
X-8738000Y+6550000D03*
X-8738000Y+5788000D03*
X-8484000Y+5788000D03*
X-8230000Y+5788000D03*
D19*
X-7250000Y+6570000D03*
D17*
X-7504000Y+6570000D03*
D18*
X-7758000Y+6570000D03*
D17*
X-7758000Y+5808000D03*
X-7504000Y+5808000D03*
X-7250000Y+5808000D03*
D70*
X-4970000Y+6100000D03*
X-4970000Y+5886640D03*
X-5230000Y+6100000D03*
X-5230000Y+5886640D03*
D16*
X-7580000Y+2890000D03*
D17*
X-7326000Y+2890000D03*
X-7072000Y+2890000D03*
X-6818000Y+2890000D03*
X-6564000Y+2890000D03*
X-6310000Y+2890000D03*
X-6056000Y+2890000D03*
X-6056000Y+3652000D03*
X-6310000Y+3652000D03*
X-6564000Y+3652000D03*
X-6818000Y+3652000D03*
X-7072000Y+3652000D03*
X-7326000Y+3652000D03*
X-7580000Y+3652000D03*
D71*
X-5950000Y+4110000D03*
X-5505500Y+4110000D03*
D20*
X-6300000Y+4100000D03*
X-6513360Y+4100000D03*
D70*
X-6650000Y+5103360D03*
X-6650000Y+4890000D03*
X-6200000Y+5100000D03*
X-6200000Y+4886640D03*
D21*
X-8246000Y+1850000D03*
X-8500000Y+1850000D03*
X-8754000Y+1850000D03*
X-9346000Y+1850000D03*
X-9600000Y+1850000D03*
X-9854000Y+1850000D03*
X-7146000Y+1850000D03*
X-7400000Y+1850000D03*
X-7654000Y+1850000D03*
X-6046000Y+1850000D03*
X-6300000Y+1850000D03*
X-6554000Y+1850000D03*
D22*
X-3285659Y+3755601D03*
X-3285659Y+4263601D03*
D70*
X-7150000Y+2513360D03*
X-7150000Y+2300000D03*
X-9350000Y+2510000D03*
X-9350000Y+2296640D03*
D20*
X-8586640Y+2400000D03*
X-8800000Y+2400000D03*
X-6350000Y+2400000D03*
X-6563360Y+2400000D03*
D71*
X-8150000Y+2400000D03*
X-7705500Y+2400000D03*
X-5950000Y+2400000D03*
X-5505500Y+2400000D03*
D20*
X-3340000Y+4870000D03*
X-3553360Y+4870000D03*
D70*
X-6650000Y+5290000D03*
X-6650000Y+5503360D03*
X-6200000Y+5286640D03*
X-6200000Y+5500000D03*
X-9300000Y+4540000D03*
X-9300000Y+4326640D03*
D20*
X-3003360Y+4870000D03*
X-2790000Y+4870000D03*
D23*
X-10950000Y+1950380D03*
X-10950000Y+1450000D03*
D70*
X-9300000Y+4770000D03*
X-9300000Y+4983360D03*
D24*
X-10260000Y+1800000D03*
X-10410000Y+1950000D03*
D25*
X-2450000Y+2749929D03*
X-2450000Y+2250000D03*
D20*
X-3340000Y+2750000D03*
X-3553360Y+2750000D03*
X-3340000Y+2250000D03*
X-3553360Y+2250000D03*
X-3040000Y+2250000D03*
X-2826640Y+2250000D03*
X-3043360Y+2750000D03*
X-2830000Y+2750000D03*
X-10220000Y+6683360D03*
X-10006640Y+6683360D03*
D26*
X-10790880Y+4663360D03*
D27*
X-10100000Y+4434760D03*
X-10100000Y+4891960D03*
D28*
X-3300000Y+1610000D03*
X-3046000Y+1610000D03*
X-2792000Y+1610000D03*
X-2538000Y+1610000D03*
X-2284000Y+1610000D03*
X-2030000Y+1610000D03*
X-5590000Y+1610000D03*
X-5336000Y+1610000D03*
X-5082000Y+1610000D03*
X-4828000Y+1610000D03*
X-4574000Y+1610000D03*
X-4320000Y+1610000D03*
X-4066000Y+1610000D03*
X-3812000Y+1610000D03*
X-3810000Y+6440000D03*
X-3556000Y+6440000D03*
X-3302000Y+6440000D03*
X-3048000Y+6440000D03*
X-2794000Y+6440000D03*
X-2540000Y+6440000D03*
X-2286000Y+6440000D03*
X-2032000Y+6440000D03*
X-6500000Y+6440000D03*
X-6246000Y+6440000D03*
X-5992000Y+6440000D03*
X-5738000Y+6440000D03*
X-5484000Y+6440000D03*
X-5230000Y+6440000D03*
X-4976000Y+6440000D03*
X-4722000Y+6440000D03*
X-4468000Y+6440000D03*
X-4214000Y+6440000D03*
D25*
X-2450380Y+3249620D03*
D26*
X-10790880Y+6113360D03*
D27*
X-10100000Y+5884760D03*
X-10100000Y+6341960D03*
D20*
X-10220000Y+5243360D03*
X-10006640Y+5243360D03*
D70*
X-9800000Y+4996720D03*
X-9800000Y+4783360D03*
D20*
X-10223360Y+5543360D03*
X-10010000Y+5543360D03*
D70*
X-9800000Y+5986720D03*
X-9800000Y+5773360D03*
X-9800000Y+4543360D03*
X-9800000Y+4330000D03*
D20*
X-10213360Y+4113360D03*
X-10000000Y+4113360D03*
D70*
X-9800000Y+6230000D03*
X-9800000Y+6443360D03*
D19*
X-4850000Y+4662000D03*
D18*
X-4850000Y+4408000D03*
X-4850000Y+4154000D03*
X-4850000Y+3900000D03*
X-4850000Y+3646000D03*
X-4850000Y+3392000D03*
D17*
X-4850000Y+3138000D03*
D18*
X-4088000Y+3138000D03*
X-4088000Y+3392000D03*
D17*
X-4088000Y+3646000D03*
X-4088000Y+3900000D03*
D18*
X-4088000Y+4154000D03*
X-4088000Y+4408000D03*
D17*
X-4088000Y+4662000D03*
D25*
X-4720000Y+6090000D03*
X-4460000Y+6080000D03*
X-4200000Y+6080000D03*
D23*
X-10950000Y+2459620D03*
X-10950000Y+2960000D03*
D24*
X-10397601Y+2960000D03*
X-10397601Y+2720000D03*
D20*
X-8550000Y+4100000D03*
X-8763360Y+4100000D03*
D71*
X-8150000Y+4100000D03*
X-7705500Y+4100000D03*
D23*
X-1890000Y+2750000D03*
X-1890000Y+2249620D03*
X-1890000Y+4770000D03*
X-1890000Y+4269620D03*
X-1890000Y+3250000D03*
X-1890000Y+3750380D03*
D25*
X-2450000Y+3750000D03*
D21*
X-4446000Y+2300000D03*
X-4700000Y+2300000D03*
X-4954000Y+2300000D03*
D29*
X-11303600Y+6940000D02*
X-1902000Y+6940000D01*
X-1800400Y+1120000D02*
X-11303600Y+1120000D01*
X-1902000Y+6940000D02*
X-1775000Y+6813000D01*
X-1775000Y+5420000D02*
X-1521000Y+5166000D01*
X-1521000Y+1864000D01*
X-1775000Y+1610000D02*
X-1521000Y+1864000D01*
X-1775000Y+6813000D02*
X-1775000Y+5420000D01*
X-1775000Y+1610000D02*
X-1775000Y+1150000D01*
X-1775000Y+1145400D02*
X-1800400Y+1120000D01*
X-11330959Y+6914600D02*
X-11330959Y+1150000D01*
X-11305559Y+6940000D02*
X-11330959Y+6914600D01*
X-11330959Y+1145400D02*
X-11305559Y+1120000D01*
M02*
