G04 PROTEUS GERBER X2 FILE*
%TF.GenerationSoftware,Labcenter,Proteus,8.6-SP2-Build23525*%
%TF.CreationDate,2019-07-10T19:11:28+00:00*%
%TF.FileFunction,Plated,1,2,PTH*%
%TF.FilePolarity,Positive*%
%TF.Part,Single*%
%FSLAX45Y45*%
%MOMM*%
G01*
%TA.AperFunction,ComponentDrill*%
%ADD68C,0.762000*%
%TA.AperFunction,ComponentDrill*%
%ADD69C,1.016000*%
%TA.AperFunction,ComponentDrill*%
%ADD74C,1.524000*%
%TA.AperFunction,OtherDrill,Unknown*%
%ADD75C,1.016000*%
%ADD76C,0.762000*%
%TA.AperFunction,ComponentDrill*%
%ADD77C,1.000000*%
%TD.AperFunction*%
D68*
X-3810000Y+5250000D03*
X-3556000Y+5250000D03*
X-3302000Y+5250000D03*
X-3048000Y+5250000D03*
X-2794000Y+5250000D03*
X-2540000Y+5250000D03*
X-2286000Y+5250000D03*
X-2032000Y+5250000D03*
X-2032000Y+6012000D03*
X-2286000Y+6012000D03*
X-2540000Y+6012000D03*
X-2794000Y+6012000D03*
X-3048000Y+6012000D03*
X-3302000Y+6012000D03*
X-3556000Y+6012000D03*
X-3810000Y+6012000D03*
X-8741680Y+4568320D03*
X-8487680Y+4568320D03*
X-8233680Y+4568320D03*
X-7979680Y+4568320D03*
X-7725680Y+4568320D03*
X-7471680Y+4568320D03*
X-7217680Y+4568320D03*
X-7217680Y+5330320D03*
X-7471680Y+5330320D03*
X-7725680Y+5330320D03*
X-7979680Y+5330320D03*
X-8233680Y+5330320D03*
X-8487680Y+5330320D03*
X-8741680Y+5330320D03*
X-9820000Y+2900000D03*
X-9566000Y+2900000D03*
X-9312000Y+2900000D03*
X-9058000Y+2900000D03*
X-8804000Y+2900000D03*
X-8550000Y+2900000D03*
X-8296000Y+2900000D03*
X-8296000Y+3662000D03*
X-8550000Y+3662000D03*
X-8804000Y+3662000D03*
X-9058000Y+3662000D03*
X-9312000Y+3662000D03*
X-9566000Y+3662000D03*
X-9820000Y+3662000D03*
X-8230000Y+6550000D03*
X-8484000Y+6550000D03*
X-8738000Y+6550000D03*
X-8738000Y+5788000D03*
X-8484000Y+5788000D03*
X-8230000Y+5788000D03*
X-7250000Y+6570000D03*
X-7504000Y+6570000D03*
X-7758000Y+6570000D03*
X-7758000Y+5808000D03*
X-7504000Y+5808000D03*
X-7250000Y+5808000D03*
X-7580000Y+2890000D03*
X-7326000Y+2890000D03*
X-7072000Y+2890000D03*
X-6818000Y+2890000D03*
X-6564000Y+2890000D03*
X-6310000Y+2890000D03*
X-6056000Y+2890000D03*
X-6056000Y+3652000D03*
X-6310000Y+3652000D03*
X-6564000Y+3652000D03*
X-6818000Y+3652000D03*
X-7072000Y+3652000D03*
X-7326000Y+3652000D03*
X-7580000Y+3652000D03*
D69*
X-8246000Y+1850000D03*
X-8500000Y+1850000D03*
X-8754000Y+1850000D03*
X-9346000Y+1850000D03*
X-9600000Y+1850000D03*
X-9854000Y+1850000D03*
X-7146000Y+1850000D03*
X-7400000Y+1850000D03*
X-7654000Y+1850000D03*
X-6046000Y+1850000D03*
X-6300000Y+1850000D03*
X-6554000Y+1850000D03*
D68*
X-3285659Y+3755601D03*
X-3285659Y+4263601D03*
D74*
X-10950000Y+1950380D03*
X-10950000Y+1450000D03*
D75*
X-10260000Y+1800000D03*
X-10410000Y+1950000D03*
D76*
X-2450000Y+2749929D03*
X-2450000Y+2250000D03*
D77*
X-3300000Y+1610000D03*
X-3046000Y+1610000D03*
X-2792000Y+1610000D03*
X-2538000Y+1610000D03*
X-2284000Y+1610000D03*
X-2030000Y+1610000D03*
X-5590000Y+1610000D03*
X-5336000Y+1610000D03*
X-5082000Y+1610000D03*
X-4828000Y+1610000D03*
X-4574000Y+1610000D03*
X-4320000Y+1610000D03*
X-4066000Y+1610000D03*
X-3812000Y+1610000D03*
X-3810000Y+6440000D03*
X-3556000Y+6440000D03*
X-3302000Y+6440000D03*
X-3048000Y+6440000D03*
X-2794000Y+6440000D03*
X-2540000Y+6440000D03*
X-2286000Y+6440000D03*
X-2032000Y+6440000D03*
X-6500000Y+6440000D03*
X-6246000Y+6440000D03*
X-5992000Y+6440000D03*
X-5738000Y+6440000D03*
X-5484000Y+6440000D03*
X-5230000Y+6440000D03*
X-4976000Y+6440000D03*
X-4722000Y+6440000D03*
X-4468000Y+6440000D03*
X-4214000Y+6440000D03*
D76*
X-2450380Y+3249620D03*
D68*
X-4850000Y+4662000D03*
X-4850000Y+4408000D03*
X-4850000Y+4154000D03*
X-4850000Y+3900000D03*
X-4850000Y+3646000D03*
X-4850000Y+3392000D03*
X-4850000Y+3138000D03*
X-4088000Y+3138000D03*
X-4088000Y+3392000D03*
X-4088000Y+3646000D03*
X-4088000Y+3900000D03*
X-4088000Y+4154000D03*
X-4088000Y+4408000D03*
X-4088000Y+4662000D03*
D76*
X-4720000Y+6090000D03*
X-4460000Y+6080000D03*
X-4200000Y+6080000D03*
D74*
X-10950000Y+2459620D03*
X-10950000Y+2960000D03*
D75*
X-10397601Y+2960000D03*
X-10397601Y+2720000D03*
D74*
X-1890000Y+2750000D03*
X-1890000Y+2249620D03*
X-1890000Y+4770000D03*
X-1890000Y+4269620D03*
X-1890000Y+3250000D03*
X-1890000Y+3750380D03*
D76*
X-2450000Y+3750000D03*
D69*
X-4446000Y+2300000D03*
X-4700000Y+2300000D03*
X-4954000Y+2300000D03*
M02*
