G04 PROTEUS GERBER X2 FILE*
%TF.GenerationSoftware,Labcenter,Proteus,8.6-SP2-Build23525*%
%TF.CreationDate,2019-07-10T19:11:28+00:00*%
%TF.FileFunction,Legend,Bot*%
%TF.FilePolarity,Positive*%
%TF.Part,Single*%
%FSLAX45Y45*%
%MOMM*%
G01*
%TA.AperFunction,Profile*%
%ADD29C,0.203200*%
%TA.AperFunction,Material*%
%ADD30C,0.203200*%
%TD.AperFunction*%
D29*
X-11303600Y+6940000D02*
X-1902000Y+6940000D01*
X-1800400Y+1120000D02*
X-11303600Y+1120000D01*
X-1902000Y+6940000D02*
X-1775000Y+6813000D01*
X-1775000Y+5420000D02*
X-1521000Y+5166000D01*
X-1521000Y+1864000D01*
X-1775000Y+1610000D02*
X-1521000Y+1864000D01*
X-1775000Y+6813000D02*
X-1775000Y+5420000D01*
X-1775000Y+1610000D02*
X-1775000Y+1150000D01*
X-1775000Y+1145400D02*
X-1800400Y+1120000D01*
X-11330959Y+6914600D02*
X-11330959Y+1150000D01*
X-11305559Y+6940000D02*
X-11330959Y+6914600D01*
X-11330959Y+1145400D02*
X-11305559Y+1120000D01*
D30*
X-8348420Y+2469700D02*
X-8348420Y+2401120D01*
X-8226500Y+2469700D02*
X-8226500Y+2398580D01*
X-8074140Y+2262360D02*
X-8165580Y+2262360D01*
X-8165580Y+2182985D01*
X-8150340Y+2167110D01*
X-8135100Y+2167110D01*
X-8119860Y+2182985D01*
X-8119860Y+2262360D01*
X-8119860Y+2182985D02*
X-8104620Y+2167110D01*
X-8074140Y+2167110D01*
X-8135100Y+2103610D02*
X-8165580Y+2071860D01*
X-8074140Y+2071860D01*
X-6108420Y+2426340D02*
X-6108420Y+2357760D01*
X-5986500Y+2426340D02*
X-5986500Y+2355220D01*
X-6154140Y+2219000D02*
X-6245580Y+2219000D01*
X-6245580Y+2139625D01*
X-6230340Y+2123750D01*
X-6215100Y+2123750D01*
X-6199860Y+2139625D01*
X-6199860Y+2219000D01*
X-6199860Y+2139625D02*
X-6184620Y+2123750D01*
X-6154140Y+2123750D01*
X-6184620Y+1996750D02*
X-6184620Y+2092000D01*
X-6245580Y+2028500D01*
X-6154140Y+2028500D01*
X-2827305Y+3617141D02*
X-2827305Y+3685721D01*
X-2949225Y+3617141D02*
X-2949225Y+3688261D01*
X-3031885Y+3742731D02*
X-3016645Y+3758606D01*
X-3016645Y+3806231D01*
X-3047125Y+3837981D01*
X-3077605Y+3837981D01*
X-3108085Y+3806231D01*
X-3108085Y+3758606D01*
X-3092845Y+3742731D01*
X-3077605Y+3679231D02*
X-3108085Y+3647481D01*
X-3016645Y+3647481D01*
X-3092845Y+3568106D02*
X-3108085Y+3552231D01*
X-3108085Y+3504606D01*
X-3092845Y+3488731D01*
X-3077605Y+3488731D01*
X-3062365Y+3504606D01*
X-3047125Y+3488731D01*
X-3031885Y+3488731D01*
X-3016645Y+3504606D01*
X-3016645Y+3552231D01*
X-3031885Y+3568106D01*
X-3062365Y+3536356D02*
X-3062365Y+3504606D01*
X-2957579Y+4403301D02*
X-2957579Y+4334721D01*
X-2835659Y+4403301D02*
X-2835659Y+4332181D01*
X-3032039Y+4488211D02*
X-3016799Y+4504086D01*
X-3016799Y+4551711D01*
X-3047279Y+4583461D01*
X-3077759Y+4583461D01*
X-3108239Y+4551711D01*
X-3108239Y+4504086D01*
X-3092999Y+4488211D01*
X-3077759Y+4424711D02*
X-3108239Y+4392961D01*
X-3016799Y+4392961D01*
X-3047279Y+4234211D02*
X-3047279Y+4329461D01*
X-3108239Y+4265961D01*
X-3016799Y+4265961D01*
X-3641580Y+4029261D02*
X-3641580Y+4097841D01*
X-3763500Y+4029261D02*
X-3763500Y+4100381D01*
X-3484420Y+4180601D02*
X-3575860Y+4180601D01*
X-3575860Y+4101226D01*
X-3560620Y+4085351D01*
X-3545380Y+4085351D01*
X-3530140Y+4101226D01*
X-3530140Y+4180601D01*
X-3530140Y+4101226D02*
X-3514900Y+4085351D01*
X-3484420Y+4085351D01*
X-3530140Y+4021851D02*
X-3545380Y+4037726D01*
X-3560620Y+4037726D01*
X-3575860Y+4021851D01*
X-3575860Y+3974226D01*
X-3560620Y+3958351D01*
X-3545380Y+3958351D01*
X-3530140Y+3974226D01*
X-3530140Y+4021851D01*
X-3514900Y+4037726D01*
X-3499660Y+4037726D01*
X-3484420Y+4021851D01*
X-3484420Y+3974226D01*
X-3499660Y+3958351D01*
X-3514900Y+3958351D01*
X-3530140Y+3974226D01*
X-6938100Y+2273000D02*
X-6437720Y+2273000D01*
X-6437720Y+2527000D02*
X-6938100Y+2527000D01*
X-6630760Y+2273000D02*
X-6630760Y+2527000D01*
X-6245000Y+2123300D02*
X-6245000Y+2214740D01*
X-6308500Y+2214740D01*
X-6340250Y+2184260D01*
X-6340250Y+2153780D01*
X-6308500Y+2123300D01*
X-6245000Y+2123300D01*
X-6387875Y+2199500D02*
X-6403750Y+2214740D01*
X-6451375Y+2214740D01*
X-6467250Y+2199500D01*
X-6467250Y+2184260D01*
X-6451375Y+2169020D01*
X-6403750Y+2169020D01*
X-6387875Y+2153780D01*
X-6387875Y+2123300D01*
X-6467250Y+2123300D01*
X-9188100Y+2273000D02*
X-8687720Y+2273000D01*
X-8687720Y+2527000D02*
X-9188100Y+2527000D01*
X-8880760Y+2273000D02*
X-8880760Y+2527000D01*
X-8515000Y+2133300D02*
X-8515000Y+2224740D01*
X-8578500Y+2224740D01*
X-8610250Y+2194260D01*
X-8610250Y+2163780D01*
X-8578500Y+2133300D01*
X-8515000Y+2133300D01*
X-8673750Y+2194260D02*
X-8705500Y+2224740D01*
X-8705500Y+2133300D01*
X-8639700Y+5491580D02*
X-8571120Y+5491580D01*
X-8639700Y+5613500D02*
X-8568580Y+5613500D01*
X-8487771Y+5654121D02*
X-8487771Y+5745561D01*
X-8567146Y+5745561D01*
X-8583021Y+5730321D01*
X-8583021Y+5715081D01*
X-8567146Y+5699841D01*
X-8487771Y+5699841D01*
X-8567146Y+5699841D02*
X-8583021Y+5684601D01*
X-8583021Y+5654121D01*
X-8710021Y+5715081D02*
X-8694146Y+5699841D01*
X-8646521Y+5699841D01*
X-8630646Y+5715081D01*
X-8630646Y+5730321D01*
X-8646521Y+5745561D01*
X-8694146Y+5745561D01*
X-8710021Y+5730321D01*
X-8710021Y+5669361D01*
X-8694146Y+5654121D01*
X-8646521Y+5654121D01*
X-8798420Y+4976340D02*
X-8798420Y+4907760D01*
X-8676500Y+4976340D02*
X-8676500Y+4905220D01*
X-8544140Y+5132500D02*
X-8635580Y+5132500D01*
X-8635580Y+5053125D01*
X-8620340Y+5037250D01*
X-8605100Y+5037250D01*
X-8589860Y+5053125D01*
X-8589860Y+5132500D01*
X-8589860Y+5053125D02*
X-8574620Y+5037250D01*
X-8544140Y+5037250D01*
X-8605100Y+4973750D02*
X-8635580Y+4942000D01*
X-8544140Y+4942000D01*
X-8605100Y+4846750D02*
X-8635580Y+4815000D01*
X-8544140Y+4815000D01*
X-8300300Y+6228420D02*
X-8368880Y+6228420D01*
X-8300300Y+6106500D02*
X-8371420Y+6106500D01*
X-8164140Y+5964140D02*
X-8164140Y+6055580D01*
X-8243515Y+6055580D01*
X-8259390Y+6040340D01*
X-8259390Y+6025100D01*
X-8243515Y+6009860D01*
X-8164140Y+6009860D01*
X-8243515Y+6009860D02*
X-8259390Y+5994620D01*
X-8259390Y+5964140D01*
X-8307015Y+6040340D02*
X-8322890Y+6055580D01*
X-8370515Y+6055580D01*
X-8386390Y+6040340D01*
X-8386390Y+6025100D01*
X-8370515Y+6009860D01*
X-8322890Y+6009860D01*
X-8307015Y+5994620D01*
X-8307015Y+5964140D01*
X-8386390Y+5964140D01*
X-8513390Y+5994620D02*
X-8418140Y+5994620D01*
X-8481640Y+6055580D01*
X-8481640Y+5964140D01*
X-7320300Y+6248420D02*
X-7388880Y+6248420D01*
X-7320300Y+6126500D02*
X-7391420Y+6126500D01*
X-7154140Y+5994140D02*
X-7154140Y+6085580D01*
X-7233515Y+6085580D01*
X-7249390Y+6070340D01*
X-7249390Y+6055100D01*
X-7233515Y+6039860D01*
X-7154140Y+6039860D01*
X-7233515Y+6039860D02*
X-7249390Y+6024620D01*
X-7249390Y+5994140D01*
X-7297015Y+6070340D02*
X-7312890Y+6085580D01*
X-7360515Y+6085580D01*
X-7376390Y+6070340D01*
X-7376390Y+6055100D01*
X-7360515Y+6039860D01*
X-7312890Y+6039860D01*
X-7297015Y+6024620D01*
X-7297015Y+5994140D01*
X-7376390Y+5994140D01*
X-7503390Y+6085580D02*
X-7424015Y+6085580D01*
X-7424015Y+6055100D01*
X-7487515Y+6055100D01*
X-7503390Y+6039860D01*
X-7503390Y+6009380D01*
X-7487515Y+5994140D01*
X-7439890Y+5994140D01*
X-7424015Y+6009380D01*
M02*
