G04 PROTEUS GERBER X2 FILE*
%TF.GenerationSoftware,Labcenter,Proteus,8.6-SP2-Build23525*%
%TF.CreationDate,2019-07-10T19:11:28+00:00*%
%TF.FileFunction,AssemblyDrawing,Bot*%
%TF.FilePolarity,Positive*%
%TF.Part,Single*%
%FSLAX45Y45*%
%MOMM*%
G01*
%TA.AperFunction,Profile*%
%ADD29C,0.203200*%
%TA.AperFunction,Material*%
%ADD30C,0.203200*%
%ADD60C,0.085340*%
%ADD58C,0.078740*%
%ADD67C,0.164590*%
%TD.AperFunction*%
D29*
X-11303600Y+6940000D02*
X-1902000Y+6940000D01*
X-1800400Y+1120000D02*
X-11303600Y+1120000D01*
X-1902000Y+6940000D02*
X-1775000Y+6813000D01*
X-1775000Y+5420000D02*
X-1521000Y+5166000D01*
X-1521000Y+1864000D01*
X-1775000Y+1610000D02*
X-1521000Y+1864000D01*
X-1775000Y+6813000D02*
X-1775000Y+5420000D01*
X-1775000Y+1610000D02*
X-1775000Y+1150000D01*
X-1775000Y+1145400D02*
X-1800400Y+1120000D01*
X-11330959Y+6914600D02*
X-11330959Y+1150000D01*
X-11305559Y+6940000D02*
X-11330959Y+6914600D01*
X-11330959Y+1145400D02*
X-11305559Y+1120000D01*
D30*
X-8358580Y+2279200D02*
X-8216340Y+2279200D01*
X-8216340Y+2594160D01*
X-8358580Y+2594160D01*
X-8358580Y+2279200D01*
D60*
X-8261856Y+2504955D02*
X-8313063Y+2504955D01*
X-8313063Y+2462284D01*
X-8304528Y+2453749D01*
X-8295994Y+2453749D01*
X-8287460Y+2462284D01*
X-8287460Y+2504955D01*
X-8287460Y+2462284D02*
X-8278925Y+2453749D01*
X-8261856Y+2453749D01*
X-8295994Y+2419612D02*
X-8313063Y+2402543D01*
X-8261856Y+2402543D01*
D30*
X-6118580Y+2235840D02*
X-5976340Y+2235840D01*
X-5976340Y+2550800D01*
X-6118580Y+2550800D01*
X-6118580Y+2235840D01*
D60*
X-6021856Y+2461595D02*
X-6073063Y+2461595D01*
X-6073063Y+2418924D01*
X-6064528Y+2410389D01*
X-6055994Y+2410389D01*
X-6047460Y+2418924D01*
X-6047460Y+2461595D01*
X-6047460Y+2418924D02*
X-6038925Y+2410389D01*
X-6021856Y+2410389D01*
X-6038925Y+2342114D02*
X-6038925Y+2393320D01*
X-6073063Y+2359183D01*
X-6021856Y+2359183D01*
D30*
X-2959385Y+3492681D02*
X-2817145Y+3492681D01*
X-2817145Y+3807641D01*
X-2959385Y+3807641D01*
X-2959385Y+3492681D01*
D58*
X-2872517Y+3697405D02*
X-2864643Y+3705279D01*
X-2864643Y+3728901D01*
X-2880391Y+3744649D01*
X-2896139Y+3744649D01*
X-2911887Y+3728901D01*
X-2911887Y+3705279D01*
X-2904013Y+3697405D01*
X-2896139Y+3665909D02*
X-2911887Y+3650161D01*
X-2864643Y+3650161D01*
X-2904013Y+3610791D02*
X-2911887Y+3602917D01*
X-2911887Y+3579295D01*
X-2904013Y+3571421D01*
X-2896139Y+3571421D01*
X-2888265Y+3579295D01*
X-2880391Y+3571421D01*
X-2872517Y+3571421D01*
X-2864643Y+3579295D01*
X-2864643Y+3602917D01*
X-2872517Y+3610791D01*
X-2888265Y+3595043D02*
X-2888265Y+3579295D01*
D30*
X-2967739Y+4212801D02*
X-2825499Y+4212801D01*
X-2825499Y+4527761D01*
X-2967739Y+4527761D01*
X-2967739Y+4212801D01*
D58*
X-2880871Y+4417525D02*
X-2872997Y+4425399D01*
X-2872997Y+4449021D01*
X-2888745Y+4464769D01*
X-2904493Y+4464769D01*
X-2920241Y+4449021D01*
X-2920241Y+4425399D01*
X-2912367Y+4417525D01*
X-2904493Y+4386029D02*
X-2920241Y+4370281D01*
X-2872997Y+4370281D01*
X-2888745Y+4291541D02*
X-2888745Y+4338785D01*
X-2920241Y+4307289D01*
X-2872997Y+4307289D01*
D30*
X-3773660Y+3904801D02*
X-3631420Y+3904801D01*
X-3631420Y+4219761D01*
X-3773660Y+4219761D01*
X-3773660Y+3904801D01*
D60*
X-3676936Y+4130556D02*
X-3728143Y+4130556D01*
X-3728143Y+4087885D01*
X-3719608Y+4079350D01*
X-3711074Y+4079350D01*
X-3702540Y+4087885D01*
X-3702540Y+4130556D01*
X-3702540Y+4087885D02*
X-3694005Y+4079350D01*
X-3676936Y+4079350D01*
X-3702540Y+4045213D02*
X-3711074Y+4053747D01*
X-3719608Y+4053747D01*
X-3728143Y+4045213D01*
X-3728143Y+4019610D01*
X-3719608Y+4011075D01*
X-3711074Y+4011075D01*
X-3702540Y+4019610D01*
X-3702540Y+4045213D01*
X-3694005Y+4053747D01*
X-3685471Y+4053747D01*
X-3676936Y+4045213D01*
X-3676936Y+4019610D01*
X-3685471Y+4011075D01*
X-3694005Y+4011075D01*
X-3702540Y+4019610D01*
D30*
X-7001600Y+2262840D02*
X-6376760Y+2262840D01*
X-6376760Y+2537160D01*
X-7001600Y+2537160D01*
X-7001600Y+2262840D01*
D67*
X-6557507Y+2350622D02*
X-6557507Y+2449377D01*
X-6623343Y+2449377D01*
X-6656261Y+2416459D01*
X-6656261Y+2383540D01*
X-6623343Y+2350622D01*
X-6557507Y+2350622D01*
X-6705639Y+2432918D02*
X-6722098Y+2449377D01*
X-6771475Y+2449377D01*
X-6787934Y+2432918D01*
X-6787934Y+2416459D01*
X-6771475Y+2400000D01*
X-6722098Y+2400000D01*
X-6705639Y+2383540D01*
X-6705639Y+2350622D01*
X-6787934Y+2350622D01*
D30*
X-9251600Y+2262840D02*
X-8626760Y+2262840D01*
X-8626760Y+2537160D01*
X-9251600Y+2537160D01*
X-9251600Y+2262840D01*
D67*
X-8807507Y+2350622D02*
X-8807507Y+2449377D01*
X-8873343Y+2449377D01*
X-8906261Y+2416459D01*
X-8906261Y+2383540D01*
X-8873343Y+2350622D01*
X-8807507Y+2350622D01*
X-8972098Y+2416459D02*
X-9005016Y+2449377D01*
X-9005016Y+2350622D01*
D30*
X-8764160Y+5481420D02*
X-8449200Y+5481420D01*
X-8449200Y+5623660D01*
X-8764160Y+5623660D01*
X-8764160Y+5481420D01*
D60*
X-8538405Y+5526936D02*
X-8538405Y+5578143D01*
X-8581076Y+5578143D01*
X-8589611Y+5569608D01*
X-8589611Y+5561074D01*
X-8581076Y+5552540D01*
X-8538405Y+5552540D01*
X-8581076Y+5552540D02*
X-8589611Y+5544005D01*
X-8589611Y+5526936D01*
X-8657886Y+5561074D02*
X-8649351Y+5552540D01*
X-8623748Y+5552540D01*
X-8615214Y+5561074D01*
X-8615214Y+5569608D01*
X-8623748Y+5578143D01*
X-8649351Y+5578143D01*
X-8657886Y+5569608D01*
X-8657886Y+5535471D01*
X-8649351Y+5526936D01*
X-8623748Y+5526936D01*
D30*
X-8808580Y+4785840D02*
X-8666340Y+4785840D01*
X-8666340Y+5100800D01*
X-8808580Y+5100800D01*
X-8808580Y+4785840D01*
D58*
X-8713838Y+5037808D02*
X-8761082Y+5037808D01*
X-8761082Y+4998438D01*
X-8753208Y+4990564D01*
X-8745334Y+4990564D01*
X-8737460Y+4998438D01*
X-8737460Y+5037808D01*
X-8737460Y+4998438D02*
X-8729586Y+4990564D01*
X-8713838Y+4990564D01*
X-8745334Y+4959068D02*
X-8761082Y+4943320D01*
X-8713838Y+4943320D01*
X-8745334Y+4896076D02*
X-8761082Y+4880328D01*
X-8713838Y+4880328D01*
D30*
X-8490800Y+6096340D02*
X-8175840Y+6096340D01*
X-8175840Y+6238580D01*
X-8490800Y+6238580D01*
X-8490800Y+6096340D01*
D58*
X-8238832Y+6143838D02*
X-8238832Y+6191082D01*
X-8278202Y+6191082D01*
X-8286076Y+6183208D01*
X-8286076Y+6175334D01*
X-8278202Y+6167460D01*
X-8238832Y+6167460D01*
X-8278202Y+6167460D02*
X-8286076Y+6159586D01*
X-8286076Y+6143838D01*
X-8309698Y+6183208D02*
X-8317572Y+6191082D01*
X-8341194Y+6191082D01*
X-8349068Y+6183208D01*
X-8349068Y+6175334D01*
X-8341194Y+6167460D01*
X-8317572Y+6167460D01*
X-8309698Y+6159586D01*
X-8309698Y+6143838D01*
X-8349068Y+6143838D01*
X-8412060Y+6159586D02*
X-8364816Y+6159586D01*
X-8396312Y+6191082D01*
X-8396312Y+6143838D01*
D30*
X-7510800Y+6116340D02*
X-7195840Y+6116340D01*
X-7195840Y+6258580D01*
X-7510800Y+6258580D01*
X-7510800Y+6116340D01*
D58*
X-7258832Y+6163838D02*
X-7258832Y+6211082D01*
X-7298202Y+6211082D01*
X-7306076Y+6203208D01*
X-7306076Y+6195334D01*
X-7298202Y+6187460D01*
X-7258832Y+6187460D01*
X-7298202Y+6187460D02*
X-7306076Y+6179586D01*
X-7306076Y+6163838D01*
X-7329698Y+6203208D02*
X-7337572Y+6211082D01*
X-7361194Y+6211082D01*
X-7369068Y+6203208D01*
X-7369068Y+6195334D01*
X-7361194Y+6187460D01*
X-7337572Y+6187460D01*
X-7329698Y+6179586D01*
X-7329698Y+6163838D01*
X-7369068Y+6163838D01*
X-7432060Y+6211082D02*
X-7392690Y+6211082D01*
X-7392690Y+6195334D01*
X-7424186Y+6195334D01*
X-7432060Y+6187460D01*
X-7432060Y+6171712D01*
X-7424186Y+6163838D01*
X-7400564Y+6163838D01*
X-7392690Y+6171712D01*
M02*
